<svg width="36" height="36" viewBox="0 0 36 36" fill="none" xmlns="http://www.w3.org/2000/svg">
<mask id="path-1-inside-1_321_1117" fill="white">
<path fill-rule="evenodd" clip-rule="evenodd" d="M18 36C27.9411 36 36 27.9411 36 18C36 8.05887 27.9411 0 18 0C8.05887 0 0 8.05887 0 18C0 27.9411 8.05887 36 18 36ZM9.81275 18.279C9.81275 24.015 13.3647 27.111 18.2367 27.111C21.2368 27.111 23.9487 25.911 25.2688 23.319C26.1567 21.567 25.8688 20.559 24.4528 20.319L23.6848 20.199C22.4608 20.007 21.7407 20.247 21.2368 20.991C20.4688 22.239 19.5328 22.791 18.2128 22.791C16.1728 22.791 14.8288 21.039 14.8288 18.279C14.8288 15.543 16.1728 13.767 18.2128 13.767C19.5088 13.767 20.4688 14.319 21.2607 15.543C21.8128 16.311 22.3647 16.503 23.6608 16.311L24.4288 16.167C25.7488 15.951 26.2048 15.087 25.6048 13.719C24.2607 10.791 21.4287 9.423 18.2367 9.423C13.4128 9.423 9.81275 12.687 9.81275 18.279Z"/>
</mask>
<path fill-rule="evenodd" clip-rule="evenodd" d="M18 36C27.9411 36 36 27.9411 36 18C36 8.05887 27.9411 0 18 0C8.05887 0 0 8.05887 0 18C0 27.9411 8.05887 36 18 36ZM9.81275 18.279C9.81275 24.015 13.3647 27.111 18.2367 27.111C21.2368 27.111 23.9487 25.911 25.2688 23.319C26.1567 21.567 25.8688 20.559 24.4528 20.319L23.6848 20.199C22.4608 20.007 21.7407 20.247 21.2368 20.991C20.4688 22.239 19.5328 22.791 18.2128 22.791C16.1728 22.791 14.8288 21.039 14.8288 18.279C14.8288 15.543 16.1728 13.767 18.2128 13.767C19.5088 13.767 20.4688 14.319 21.2607 15.543C21.8128 16.311 22.3647 16.503 23.6608 16.311L24.4288 16.167C25.7488 15.951 26.2048 15.087 25.6048 13.719C24.2607 10.791 21.4287 9.423 18.2367 9.423C13.4128 9.423 9.81275 12.687 9.81275 18.279Z" fill="#F3F3F3"/>
<path d="M25.2688 23.319L25.9371 23.6594L25.9377 23.6581L25.2688 23.319ZM24.4528 20.319L24.5781 19.5795L24.5685 19.578L24.4528 20.319ZM23.6848 20.199L23.5685 20.9399L23.569 20.94L23.6848 20.199ZM21.2368 20.991L20.6158 20.5704L20.6066 20.584L20.598 20.5979L21.2368 20.991ZM21.2607 15.543L20.6311 15.9504L20.641 15.9658L20.6517 15.9807L21.2607 15.543ZM23.6608 16.311L23.7707 17.0529L23.7849 17.0508L23.799 17.0482L23.6608 16.311ZM24.4288 16.167L24.3076 15.4268L24.2991 15.4282L24.2905 15.4298L24.4288 16.167ZM25.6048 13.719L26.2917 13.4177L26.2864 13.4061L25.6048 13.719ZM35.25 18C35.25 27.5269 27.5269 35.25 18 35.25V36.75C28.3553 36.75 36.75 28.3553 36.75 18H35.25ZM18 0.75C27.5269 0.75 35.25 8.47309 35.25 18H36.75C36.75 7.64466 28.3553 -0.75 18 -0.75V0.75ZM0.75 18C0.75 8.47309 8.47309 0.75 18 0.75V-0.75C7.64466 -0.75 -0.75 7.64466 -0.75 18H0.75ZM18 35.25C8.47309 35.25 0.75 27.5269 0.75 18H-0.75C-0.75 28.3553 7.64466 36.75 18 36.75V35.25ZM18.2367 26.361C15.9602 26.361 14.0581 25.6403 12.727 24.3146C11.3982 22.9911 10.5627 20.989 10.5627 18.279H9.06275C9.06275 21.305 10.0033 23.7189 11.6685 25.3774C13.3314 27.0337 15.6413 27.861 18.2367 27.861V26.361ZM24.6004 22.9787C23.4465 25.2445 21.0498 26.361 18.2367 26.361V27.861C21.4237 27.861 24.451 26.5776 25.9371 23.6594L24.6004 22.9787ZM24.3274 21.0585C24.8771 21.1516 24.9706 21.3384 25.0017 21.4512C25.0621 21.6705 25.0241 22.1428 24.5998 22.9799L25.9377 23.6581C26.4014 22.7432 26.6634 21.8355 26.4478 21.0528C26.2029 20.1636 25.4444 19.7264 24.5781 19.5795L24.3274 21.0585ZM23.569 20.94L24.337 21.06L24.5685 19.578L23.8005 19.458L23.569 20.94ZM21.8577 21.4116C22.0299 21.1575 22.2072 21.0274 22.4231 20.9571C22.6622 20.8792 23.0161 20.8533 23.5685 20.9399L23.801 19.4581C23.1294 19.3527 22.5113 19.3508 21.9584 19.5309C21.3823 19.7186 20.9476 20.0805 20.6158 20.5704L21.8577 21.4116ZM18.2128 23.541C18.9824 23.541 19.684 23.3785 20.3147 23.0038C20.9409 22.632 21.4465 22.0812 21.8755 21.3841L20.598 20.5979C20.259 21.1488 19.9126 21.4981 19.5488 21.7142C19.1895 21.9275 18.7631 22.041 18.2128 22.041V23.541ZM14.0788 18.279C14.0788 19.7716 14.4413 21.0734 15.1571 22.0218C15.8876 22.9896 16.9538 23.541 18.2128 23.541V22.041C17.4317 22.041 16.8059 21.7164 16.3544 21.1182C15.8882 20.5006 15.5788 19.5464 15.5788 18.279H14.0788ZM18.2128 13.017C16.9503 13.017 15.8849 13.5773 15.1563 14.5463C14.4419 15.4964 14.0788 16.7972 14.0788 18.279H15.5788C15.5788 17.0248 15.8876 16.0696 16.3552 15.4477C16.8086 14.8447 17.4352 14.517 18.2128 14.517V13.017ZM21.8904 15.1356C21.4475 14.451 20.9299 13.9119 20.3024 13.5475C19.6706 13.1804 18.9726 13.017 18.2128 13.017V14.517C18.7489 14.517 19.1789 14.6296 19.5491 14.8445C19.9236 15.0621 20.282 15.411 20.6311 15.9504L21.8904 15.1356ZM23.5508 15.5691C22.9341 15.6605 22.6135 15.6387 22.4137 15.5738C22.2486 15.5201 22.0907 15.4126 21.8698 15.1053L20.6517 15.9807C20.9828 16.4414 21.3769 16.8139 21.9498 17.0002C22.488 17.1753 23.0914 17.1535 23.7707 17.0529L23.5508 15.5691ZM24.2905 15.4298L23.5225 15.5738L23.799 17.0482L24.567 16.9042L24.2905 15.4298ZM24.9179 14.0202C25.1769 14.6108 25.1275 14.9146 25.064 15.0435C25.0089 15.1553 24.8405 15.3397 24.3076 15.4268L24.5499 16.9072C25.337 16.7783 26.0566 16.4228 26.4095 15.7065C26.754 15.0074 26.6326 14.1952 26.2916 13.4178L24.9179 14.0202ZM18.2367 10.173C21.2146 10.173 23.7312 11.4352 24.9231 14.0319L26.2864 13.4061C24.7903 10.1468 21.6429 8.673 18.2367 8.673V10.173ZM10.5627 18.279C10.5627 15.648 11.4061 13.635 12.7482 12.2822C14.0917 10.928 15.9965 10.173 18.2367 10.173V8.673C15.653 8.673 13.3458 9.55002 11.6833 11.2258C10.0194 12.903 9.06275 15.318 9.06275 18.279H10.5627Z" fill="black" mask="url(#path-1-inside-1_321_1117)"/>
<circle cx="18" cy="18" r="15.625" stroke="black" stroke-width="0.75"/>
</svg>
