<svg width="471" height="105" viewBox="0 0 471 105" fill="none" xmlns="http://www.w3.org/2000/svg">
<path d="M65.3339 4.20279C66.4347 4.29453 67.4014 3.47655 67.4931 2.3758C67.5848 1.27504 66.7668 0.308344 65.6661 0.216612L65.3339 4.20279ZM65.6661 0.216612C53.1953 -0.822651 44.3135 2.38462 37.7521 8.71398C31.298 14.9397 27.3019 23.9913 24.0922 34.1919C20.9097 44.3061 18.3249 56.216 15.0595 67.7944C11.7494 79.5312 7.65004 91.3217 1.28327 101.974L4.71673 104.026C11.35 92.928 15.5631 80.7448 18.9093 68.8802C22.3001 56.8573 24.7153 45.5384 27.9078 35.3925C31.0731 25.3331 34.827 17.0934 40.5292 11.5929C46.124 6.19596 53.8047 3.242 65.3339 4.20279L65.6661 0.216612Z" fill="#333333"/>
<path d="M468.5 93.2097L440.659 18.3856C437.017 8.59673 427.673 2.10376 417.228 2.10376H54.2621C43.5545 2.10376 34.0358 8.9227 30.5911 19.0611L19.1763 52.6567L2 103.21" stroke="black" stroke-width="4"/>
</svg>
