<svg width="150" height="40" viewBox="0 0 150 40" fill="none" xmlns="http://www.w3.org/2000/svg">
<rect width="150" height="40" rx="20" fill="#E63C99"/>
<path d="M41.1647 25.822C41.9347 27.23 41.5167 28 39.8227 28H38.9867C37.9307 28 37.3147 27.538 36.8527 26.57L35.2467 23.182C35.0707 23.182 34.8727 23.182 34.6967 23.182H33.3767V26.152C33.3767 27.362 32.7167 28 31.5067 28H30.7367C29.5267 28 28.8667 27.362 28.8667 26.152V13.942C28.8667 12.732 29.5267 12.072 30.7367 12.072H34.7847C40.1747 12.072 41.6707 14.118 41.6707 17.528C41.6707 19.486 40.9447 21.18 39.1847 22.192L41.1647 25.822ZM34.6747 20.036C36.5227 20.036 37.1827 19.288 37.1827 17.902C37.1827 16.538 36.5227 15.79 34.6747 15.79H33.3547V20.036H34.6747ZM49.7614 28.176C45.7354 28.176 43.0954 25.668 43.0954 21.708C43.0954 17.836 45.7794 15.262 49.6514 15.262C53.3254 15.262 55.6794 17.286 55.9874 20.762C56.0974 21.994 55.4594 22.61 54.1174 22.61H47.3854C47.4074 24.26 48.3974 25.272 50.0254 25.272C50.9274 25.272 51.5654 25.008 52.1814 24.524C52.7974 24.04 53.1714 23.798 54.0734 24.018L54.4254 24.106C55.6794 24.392 55.8554 25.096 55.0194 26.108C53.9634 27.362 52.1374 28.176 49.7614 28.176ZM52.0934 20.168C52.0054 18.826 51.1034 17.968 49.7834 17.968C48.4854 17.968 47.5394 18.782 47.4294 20.168H52.0934ZM63.4892 28.176C61.3772 28.176 59.5072 27.582 58.4072 26.526C57.4612 25.602 57.4392 24.392 59.0232 24.15L59.4852 24.084C60.3652 23.952 60.7832 24.26 61.5092 24.876C62.0812 25.382 62.8072 25.58 63.4892 25.58C64.4352 25.58 65.0292 25.184 65.0292 24.568C65.0292 22.456 57.9672 23.776 57.9672 19.134C57.9672 16.692 60.2552 15.262 63.5332 15.262C65.3812 15.262 67.1632 15.746 68.2192 16.758C69.1872 17.638 69.0992 18.804 67.6692 19.068L67.3172 19.134C66.2612 19.332 65.8432 18.782 65.3152 18.43C64.7212 18.056 64.1712 17.88 63.6212 17.88C62.7412 17.88 62.1692 18.232 62.1692 18.848C62.1692 20.938 69.3412 19.222 69.3412 23.996C69.3412 26.592 67.0752 28.176 63.4892 28.176ZM82.0041 15.438C83.2141 15.438 83.8741 16.098 83.8741 17.308V26.174C83.8741 27.384 83.2141 28.022 82.0041 28.022H81.4541C80.2441 28.022 79.6061 27.384 79.5841 26.284C79.0341 27.384 77.6041 28.176 75.9541 28.176C72.6761 28.176 71.2681 26.438 71.2681 22.478V17.308C71.2681 16.098 71.9281 15.438 73.1161 15.438H73.6881C74.8981 15.438 75.5581 16.098 75.5581 17.308V22.06C75.5581 23.886 76.1741 24.7 77.5821 24.7C79.0561 24.7 79.5841 23.82 79.5841 21.95V17.286C79.5841 16.098 80.2441 15.438 81.4541 15.438H82.0041ZM102.341 15.262C105.465 15.262 106.741 16.912 106.741 21.114V26.152C106.741 27.362 106.103 28 104.893 28H104.321C103.133 28 102.473 27.362 102.473 26.152V21.532C102.473 19.464 101.989 18.738 100.669 18.738C99.327 18.738 98.799 19.486 98.799 21.378V26.152C98.799 27.362 98.161 28 96.951 28H96.379C95.191 28 94.531 27.362 94.531 26.152V21.532C94.531 19.442 94.091 18.738 92.771 18.738C91.429 18.738 90.923 19.53 90.923 21.598V26.152C90.923 27.362 90.263 28 89.053 28H88.503C87.293 28 86.633 27.362 86.633 26.152V17.286C86.633 16.076 87.293 15.416 88.503 15.416H89.053C90.241 15.416 90.879 15.966 90.923 17.022C91.451 15.944 92.749 15.262 94.399 15.262C96.357 15.262 97.413 15.922 98.139 17.616C98.711 16.604 99.987 15.262 102.341 15.262ZM115.525 28.176C111.499 28.176 108.859 25.668 108.859 21.708C108.859 17.836 111.543 15.262 115.415 15.262C119.089 15.262 121.443 17.286 121.751 20.762C121.861 21.994 121.223 22.61 119.881 22.61H113.149C113.171 24.26 114.161 25.272 115.789 25.272C116.691 25.272 117.329 25.008 117.945 24.524C118.561 24.04 118.935 23.798 119.837 24.018L120.189 24.106C121.443 24.392 121.619 25.096 120.783 26.108C119.727 27.362 117.901 28.176 115.525 28.176ZM117.857 20.168C117.769 18.826 116.867 17.968 115.547 17.968C114.249 17.968 113.303 18.782 113.193 20.168H117.857Z" fill="#FEFEFE"/>
</svg>
