<svg width="76" height="56" viewBox="0 0 76 56" fill="none" xmlns="http://www.w3.org/2000/svg">
<g filter="url(#filter0_d_474_2325)">
<path d="M68.561 10.6808C68.561 10.6808 40.0526 22.9016 51.1281 2C38.4905 13.4754 33.9994 13.8852 29.3929 2C27.9834 15.3073 23.1086 15.0986 10.5948 7.55556C22.3127 19.039 20.5955 23.5854 1 27.9259C24.2928 29.026 21.1685 36.4154 12.7488 49.5309C27.1761 37.4893 30.7636 35.7449 35.8547 52C39.5751 33.893 43.7626 37.4508 59.1564 48.2963C48.0584 29.459 54.502 29.5332 70.5136 34.582C50.2062 23.9262 68.561 10.6808 68.561 10.6808Z" fill="#EF1C90"/>
<path d="M68.561 10.6808C68.561 10.6808 40.0526 22.9016 51.1281 2C38.4905 13.4754 33.9994 13.8852 29.3929 2C27.9834 15.3073 23.1086 15.0986 10.5948 7.55556C22.3127 19.039 20.5955 23.5854 1 27.9259C24.2928 29.026 21.1685 36.4154 12.7488 49.5309C27.1761 37.4893 30.7636 35.7449 35.8547 52C39.5751 33.893 43.7626 37.4508 59.1564 48.2963C48.0584 29.459 54.502 29.5332 70.5136 34.582C50.2062 23.9262 68.561 10.6808 68.561 10.6808Z" stroke="black" stroke-width="1.89583" stroke-linejoin="round"/>
</g>
<path d="M12.3093 15.2283L9.07151 10.3598M9.5776 15.4348L5.28953 11.4319M9.09864 17.982L4.16951 15.1654" stroke="black" stroke-width="0.914757" stroke-linecap="round" stroke-linejoin="round"/>
<path d="M11.3614 35.8808L8.12364 40.7493M8.62972 35.6743L4.34165 39.6772M8.15076 33.1271L3.22164 35.9438" stroke="black" stroke-width="0.914757" stroke-linecap="round" stroke-linejoin="round"/>
<path d="M66.5344 15.2283L69.7722 10.3598M69.2661 15.4348L73.5542 11.4319M69.745 17.982L74.6742 15.1654" stroke="black" stroke-width="0.914757" stroke-linecap="round" stroke-linejoin="round"/>
<path d="M65.5865 35.8808L68.8242 40.7493M68.3182 35.6743L72.6062 39.6772M68.7971 33.1271L73.7262 35.9438" stroke="black" stroke-width="0.914757" stroke-linecap="round" stroke-linejoin="round"/>
<g filter="url(#filter1_d_474_2325)">
<path d="M12.8849 33.2107C11.7031 33.2107 11.0586 32.5876 11.0586 31.4059V19.4811C11.0586 18.2994 11.7031 17.6548 12.8849 17.6548H15.9574C21.7371 17.6548 23.6064 19.653 23.6064 23.7139C23.6064 27.7532 21.7371 29.644 16.0003 29.644H15.4417V31.4059C15.4417 32.5876 14.7971 33.2107 13.6154 33.2107H12.8849ZM16.7094 25.9269C18.5357 25.9269 19.1588 25.046 19.1588 23.6279C19.1588 22.2313 18.5357 21.3934 16.7094 21.3934H15.4417V25.9269H16.7094ZM32.5573 33.3826C28.6254 33.3826 25.1661 31.1051 25.1661 25.4542C25.1661 19.9108 28.6684 17.5474 32.6003 17.5474C36.4678 17.5474 40.0345 19.9108 40.0345 25.4542C40.0345 31.1051 36.4893 33.3826 32.5573 33.3826ZM32.5573 29.601C34.4051 29.601 35.6728 28.2045 35.6728 25.4542C35.6728 22.8115 34.4051 21.3504 32.5788 21.3504C30.6881 21.3504 29.4419 22.8115 29.4419 25.4542C29.4419 28.2045 30.6666 29.601 32.5573 29.601ZM46.906 33.2107V33.2322C45.8532 33.2322 45.1656 32.738 44.8433 31.7282L41.0188 19.7175C40.6106 18.4713 41.2122 17.6763 42.5228 17.6763H43.4467C44.5425 17.6763 45.1871 18.192 45.4664 19.2233L47.5935 27.1301L49.6347 19.2448C49.8925 18.192 50.5586 17.6763 51.6329 17.6763H51.8692C52.9435 17.6763 53.6096 18.2135 53.8889 19.2448L55.9086 27.1301L58.0572 19.2233C58.3365 18.192 58.9811 17.6763 60.0769 17.6763H61.0008C62.3114 17.6763 62.9345 18.4713 62.5263 19.7175L58.6803 31.7282C58.3365 32.738 57.6705 33.2107 56.6177 33.2107H55.7582C54.6839 33.2107 54.0178 32.695 53.76 31.6422L51.7403 23.8643L49.7421 31.6422C49.4843 32.695 48.8182 33.2107 47.7439 33.2107H46.906ZM66.3251 28.054C65.3797 28.054 64.8211 27.4739 64.7137 26.3352L64.0906 19.5671C63.9617 18.3424 64.5848 17.6548 65.8095 17.6548H66.8193C68.044 17.6548 68.6671 18.3424 68.5597 19.5671L67.9366 26.3352C67.8292 27.4739 67.2705 28.054 66.3251 28.054ZM66.3251 33.447C64.9715 33.447 64.0046 32.7595 64.0046 31.4059C64.0046 30.0737 64.9715 29.3862 66.3251 29.3862C67.5713 29.3862 68.6671 30.0737 68.6671 31.4059C68.6671 32.7595 67.5713 33.447 66.3251 33.447Z" fill="white"/>
<path d="M15.4417 29.644V29.0121H14.8098V29.644H15.4417ZM15.4417 21.3934V20.7614H14.8098V21.3934H15.4417ZM15.4417 25.9269H14.8098V26.5589H15.4417V25.9269ZM12.8849 32.5788C12.3998 32.5788 12.1254 32.4519 11.9715 32.3007C11.8194 32.1513 11.6905 31.8852 11.6905 31.4059H10.4266C10.4266 32.1083 10.62 32.7446 11.0856 33.2022C11.5495 33.6579 12.1882 33.8426 12.8849 33.8426V32.5788ZM11.6905 31.4059V19.4811H10.4266V31.4059H11.6905ZM11.6905 19.4811C11.6905 19.0016 11.8196 18.7274 11.9754 18.5717C12.1312 18.4159 12.4054 18.2868 12.8849 18.2868V17.0229C12.1826 17.0229 11.5437 17.216 11.0817 17.678C10.6198 18.1399 10.4266 18.7789 10.4266 19.4811H11.6905ZM12.8849 18.2868H15.9574V17.0229H12.8849V18.2868ZM15.9574 18.2868C18.8026 18.2868 20.5257 18.7844 21.541 19.6439C22.5273 20.4787 22.9745 21.7695 22.9745 23.7139H24.2383C24.2383 21.5974 23.7509 19.8586 22.3576 18.6792C20.9933 17.5243 18.8919 17.0229 15.9574 17.0229V18.2868ZM22.9745 23.7139C22.9745 25.6466 22.5279 26.9012 21.5524 27.7063C20.543 28.5395 18.8294 29.0121 16.0003 29.0121V30.276C18.908 30.276 20.9975 29.8031 22.3569 28.6811C23.7503 27.531 24.2383 25.8205 24.2383 23.7139H22.9745ZM16.0003 29.0121H15.4417V30.276H16.0003V29.0121ZM14.8098 29.644V31.4059H16.0736V29.644H14.8098ZM14.8098 31.4059C14.8098 31.8852 14.6808 32.1513 14.5288 32.3007C14.3749 32.4519 14.1005 32.5788 13.6154 32.5788V33.8426C14.3121 33.8426 14.9508 33.6579 15.4146 33.2022C15.8803 32.7446 16.0736 32.1083 16.0736 31.4059H14.8098ZM13.6154 32.5788H12.8849V33.8426H13.6154V32.5788ZM16.7094 26.5589C17.7133 26.5589 18.524 26.317 19.0734 25.7483C19.6193 25.1833 19.7907 24.4155 19.7907 23.6279H18.5268C18.5268 24.2584 18.3867 24.6401 18.1645 24.8701C17.9458 25.0964 17.5318 25.295 16.7094 25.295V26.5589ZM19.7907 23.6279C19.7907 22.849 19.6182 22.0925 19.0658 21.5401C18.5144 20.9887 17.7054 20.7614 16.7094 20.7614V22.0253C17.5397 22.0253 17.9554 22.2171 18.1721 22.4338C18.3878 22.6495 18.5268 23.0103 18.5268 23.6279H19.7907ZM16.7094 20.7614H15.4417V22.0253H16.7094V20.7614ZM14.8098 21.3934V25.9269H16.0736V21.3934H14.8098ZM15.4417 26.5589H16.7094V25.295H15.4417V26.5589ZM32.5573 32.7506C30.7081 32.7506 29.0307 32.2157 27.8202 31.0772C26.6179 29.9463 25.7981 28.1463 25.7981 25.4542H24.5342C24.5342 28.413 25.444 30.5772 26.9543 31.9978C28.4564 33.4107 30.4746 34.0145 32.5573 34.0145V32.7506ZM25.7981 25.4542C25.7981 22.8215 26.6253 21.0247 27.8413 19.8827C29.0658 18.7328 30.7564 18.1793 32.6003 18.1793V16.9154C30.5122 16.9154 28.4858 17.5437 26.9761 18.9614C25.4581 20.3869 24.5342 22.5436 24.5342 25.4542H25.7981ZM32.6003 18.1793C34.4101 18.1793 36.1023 18.7318 37.3364 19.884C38.5615 21.0276 39.4025 22.825 39.4025 25.4542H40.6664C40.6664 22.5401 39.7241 20.384 38.1989 18.9601C36.6829 17.5447 34.658 16.9154 32.6003 16.9154V18.1793ZM39.4025 25.4542C39.4025 28.1416 38.5642 29.9412 37.341 31.0738C36.1082 32.2153 34.4071 32.7506 32.5573 32.7506V34.0145C34.6395 34.0145 36.677 33.4111 38.1997 32.0012C39.7321 30.5823 40.6664 28.4177 40.6664 25.4542H39.4025ZM32.5573 30.233C33.655 30.233 34.6244 29.8101 35.3037 28.9509C35.9686 28.1101 36.3048 26.9171 36.3048 25.4542H35.0409C35.0409 26.7416 34.7432 27.622 34.3123 28.167C33.8958 28.6937 33.3075 28.9691 32.5573 28.9691V30.233ZM36.3048 25.4542C36.3048 24.0396 35.9661 22.861 35.3081 22.0214C34.6374 21.1657 33.6767 20.7185 32.5788 20.7185V21.9824C33.3072 21.9824 33.8936 22.2656 34.3133 22.8011C34.7457 23.3528 35.0409 24.2261 35.0409 25.4542H36.3048ZM32.5788 20.7185C31.4549 20.7185 30.4816 21.161 29.8049 22.0203C29.142 22.8618 28.8099 24.0422 28.8099 25.4542H30.0738C30.0738 24.2235 30.3648 23.352 30.7977 22.8023C31.2167 22.2703 31.8119 21.9824 32.5788 21.9824V20.7185ZM28.8099 25.4542C28.8099 26.9123 29.1332 28.1059 29.793 28.9485C30.4692 29.8123 31.4415 30.233 32.5573 30.233V28.9691C31.7824 28.9691 31.1969 28.6915 30.7881 28.1694C30.3628 27.6262 30.0738 26.7464 30.0738 25.4542H28.8099ZM46.906 33.2107V32.5788H46.274V33.2107H46.906ZM46.906 33.2322V33.8641H47.5379V33.2322H46.906ZM44.8433 31.7282L44.2412 31.9199L44.2413 31.9203L44.8433 31.7282ZM41.0188 19.7175L41.621 19.5257L41.6193 19.5207L41.0188 19.7175ZM45.4664 19.2233L46.0767 19.0591L46.0764 19.0581L45.4664 19.2233ZM47.5935 27.1301L46.9833 27.2943L47.6053 29.6064L48.2053 27.2885L47.5935 27.1301ZM49.6347 19.2448L50.2465 19.4032L50.2485 19.3951L49.6347 19.2448ZM53.8889 19.2448L54.5012 19.088L54.4989 19.0796L53.8889 19.2448ZM55.9086 27.1301L55.2964 27.2869L55.8905 29.6065L56.5184 27.2959L55.9086 27.1301ZM58.0572 19.2233L58.667 19.389L58.6672 19.3885L58.0572 19.2233ZM62.5263 19.7175L61.9258 19.5207L61.9245 19.5248L62.5263 19.7175ZM58.6803 31.7282L59.2786 31.9318L59.2822 31.9209L58.6803 31.7282ZM53.76 31.6422L54.3739 31.4919L54.3717 31.4834L53.76 31.6422ZM51.7403 23.8643L52.352 23.7054L51.7371 21.3373L51.1283 23.707L51.7403 23.8643ZM49.7421 31.6422L49.13 31.485L49.1283 31.4919L49.7421 31.6422ZM46.274 33.2107V33.2322H47.5379V33.2107H46.274ZM46.906 32.6002C46.4793 32.6002 46.1835 32.5012 45.9721 32.3476C45.7612 32.1943 45.5756 31.9441 45.4453 31.536L44.2413 31.9203C44.4333 32.5221 44.7527 33.0239 45.2292 33.3701C45.7054 33.7161 46.2798 33.8641 46.906 33.8641V32.6002ZM45.4455 31.5364L41.621 19.5257L40.4166 19.9092L44.2412 31.9199L45.4455 31.5364ZM41.6193 19.5207C41.4525 19.0116 41.5359 18.7379 41.6336 18.6063C41.7341 18.4709 41.9811 18.3082 42.5228 18.3082V17.0444C41.7539 17.0444 41.0448 17.2792 40.6188 17.8529C40.1901 18.4303 40.1768 19.1772 40.4183 19.9142L41.6193 19.5207ZM42.5228 18.3082H43.4467V17.0444H42.5228V18.3082ZM43.4467 18.3082C43.8953 18.3082 44.182 18.4126 44.3759 18.5627C44.5708 18.7136 44.7417 18.9647 44.8564 19.3885L46.0764 19.0581C45.9118 18.4506 45.6208 17.9281 45.1496 17.5634C44.6775 17.1978 44.094 17.0444 43.4467 17.0444V18.3082ZM44.8562 19.3875L46.9833 27.2943L48.2038 26.966L46.0767 19.0591L44.8562 19.3875ZM48.2053 27.2885L50.2465 19.4031L49.0229 19.0864L46.9817 26.9718L48.2053 27.2885ZM50.2485 19.3951C50.3531 18.9678 50.5233 18.715 50.717 18.5635C50.9109 18.4118 51.1967 18.3082 51.6329 18.3082V17.0444C50.9948 17.0444 50.4104 17.1987 49.9383 17.568C49.4659 17.9375 49.1741 18.4689 49.0209 19.0945L50.2485 19.3951ZM51.6329 18.3082H51.8692V17.0444H51.6329V18.3082ZM51.8692 18.3082C52.2991 18.3082 52.587 18.4141 52.7873 18.5711C52.9895 18.7297 53.1651 18.9895 53.279 19.41L54.4989 19.0796C54.3334 18.4687 54.0363 17.9443 53.5671 17.5765C53.096 17.2071 52.5137 17.0444 51.8692 17.0444V18.3082ZM53.2767 19.4016L55.2964 27.2869L56.5208 26.9734L54.5011 19.088L53.2767 19.4016ZM56.5184 27.2959L58.667 19.389L57.4474 19.0576L55.2988 26.9644L56.5184 27.2959ZM58.6672 19.3885C58.782 18.9647 58.9529 18.7136 59.1477 18.5627C59.3417 18.4126 59.6283 18.3082 60.0769 18.3082V17.0444C59.4297 17.0444 58.8462 17.1978 58.374 17.5634C57.9028 17.9281 57.6118 18.4506 57.4473 19.0581L58.6672 19.3885ZM60.0769 18.3082H61.0008V17.0444H60.0769V18.3082ZM61.0008 18.3082C61.5425 18.3082 61.7983 18.4711 61.9044 18.6112C62.0054 18.7445 62.0909 19.0168 61.9258 19.5207L63.1269 19.9142C63.37 19.1719 63.348 18.4237 62.9118 17.848C62.4808 17.279 61.7698 17.0444 61.0008 17.0444V18.3082ZM61.9245 19.5248L58.0785 31.5354L59.2822 31.9209L63.1281 19.9102L61.9245 19.5248ZM58.0821 31.5245C57.9408 31.9397 57.7541 32.1859 57.5468 32.3344C57.3396 32.4829 57.049 32.5788 56.6177 32.5788V33.8426C57.2391 33.8426 57.808 33.7021 58.2829 33.3618C58.7578 33.0215 59.0761 32.5265 59.2785 31.9318L58.0821 31.5245ZM56.6177 32.5788H55.7582V33.8426H56.6177V32.5788ZM55.7582 32.5788C55.3221 32.5788 55.0362 32.4752 54.8423 32.3235C54.6486 32.172 54.4785 31.9192 54.3738 31.4919L53.1462 31.7925C53.2994 32.4181 53.5912 32.9495 54.0636 33.319C54.5357 33.6883 55.1201 33.8426 55.7582 33.8426V32.5788ZM54.3717 31.4834L52.352 23.7054L51.1287 24.0231L53.1484 31.801L54.3717 31.4834ZM51.1283 23.707L49.1301 31.485L50.3542 31.7995L52.3524 24.0215L51.1283 23.707ZM49.1283 31.4919C49.0237 31.9192 48.8535 32.172 48.6598 32.3235C48.4659 32.4752 48.1801 32.5788 47.7439 32.5788V33.8426C48.3821 33.8426 48.9664 33.6883 49.4386 33.319C49.911 32.9495 50.2027 32.4181 50.3559 31.7925L49.1283 31.4919ZM47.7439 32.5788H46.906V33.8426H47.7439V32.5788ZM64.7137 26.3352L64.0844 26.3931L64.0845 26.3945L64.7137 26.3352ZM64.0906 19.5671L64.7199 19.5091L64.7191 19.5009L64.0906 19.5671ZM68.5597 19.5671L69.189 19.625L69.1892 19.6223L68.5597 19.5671ZM67.9366 26.3352L68.5657 26.3945L68.5659 26.3931L67.9366 26.3352ZM66.3251 27.4221C65.9892 27.4221 65.7933 27.3241 65.6647 27.1879C65.5232 27.0379 65.3887 26.762 65.3428 26.2758L64.0845 26.3945C64.1461 27.0471 64.3446 27.6306 64.7456 28.0554C65.1596 28.494 65.7157 28.686 66.3251 28.686V27.4221ZM65.343 26.2772L64.7199 19.5091L63.4613 19.625L64.0844 26.3931L65.343 26.2772ZM64.7191 19.5009C64.6663 18.9994 64.778 18.7233 64.9119 18.5746C65.046 18.4258 65.3085 18.2868 65.8095 18.2868V17.0229C65.0858 17.0229 64.4243 17.2276 63.9729 17.7287C63.5214 18.23 63.386 18.91 63.4621 19.6332L64.7191 19.5009ZM65.8095 18.2868H66.8193V17.0229H65.8095V18.2868ZM66.8193 18.2868C67.3194 18.2868 67.5838 18.4254 67.7214 18.5768C67.8599 18.7291 67.9743 19.0089 67.9302 19.5118L69.1892 19.6223C69.2525 18.9005 69.1091 18.2243 68.6566 17.7266C68.2034 17.228 67.544 17.0229 66.8193 17.0229V18.2868ZM67.9304 19.5091L67.3073 26.2772L68.5659 26.3931L69.189 19.625L67.9304 19.5091ZM67.3074 26.2758C67.2616 26.762 67.1271 27.0379 66.9855 27.1879C66.857 27.3241 66.661 27.4221 66.3251 27.4221V28.686C66.9346 28.686 67.4907 28.494 67.9046 28.0554C68.3056 27.6306 68.5042 27.0471 68.5657 26.3945L67.3074 26.2758ZM66.3251 32.8151C65.7472 32.8151 65.3259 32.6678 65.0609 32.4478C64.8124 32.2416 64.6366 31.9191 64.6366 31.4059H63.3727C63.3727 32.2462 63.6803 32.9444 64.2537 33.4203C64.8105 33.8825 65.5495 34.079 66.3251 34.079V32.8151ZM64.6366 31.4059C64.6366 30.9066 64.8101 30.5893 65.059 30.3843C65.3248 30.1654 65.7472 30.0181 66.3251 30.0181V28.7542C65.5494 28.7542 64.8116 28.9507 64.2556 29.4087C63.6827 29.8804 63.3727 30.573 63.3727 31.4059H64.6366ZM66.3251 30.0181C66.84 30.0181 67.278 30.1611 67.5725 30.393C67.85 30.6115 68.0352 30.9335 68.0352 31.4059H69.299C69.299 30.5461 68.9363 29.8582 68.3544 29.4C67.7894 28.9551 67.0564 28.7542 66.3251 28.7542V30.0181ZM68.0352 31.4059C68.0352 31.8924 67.8472 32.2195 67.5706 32.4391C67.2769 32.6722 66.84 32.8151 66.3251 32.8151V34.079C67.0564 34.079 67.7906 33.8781 68.3563 33.429C68.9391 32.9665 69.299 32.2729 69.299 31.4059H68.0352Z" fill="black"/>
</g>
<defs>
<filter id="filter0_d_474_2325" x="0.052063" y="0.736031" width="74.2533" height="54.4238" filterUnits="userSpaceOnUse" color-interpolation-filters="sRGB">
<feFlood flood-opacity="0" result="BackgroundImageFix"/>
<feColorMatrix in="SourceAlpha" type="matrix" values="0 0 0 0 0 0 0 0 0 0 0 0 0 0 0 0 0 0 127 0" result="hardAlpha"/>
<feOffset dx="1.57985" dy="0.947913"/>
<feGaussianBlur stdDeviation="0.631942"/>
<feComposite in2="hardAlpha" operator="out"/>
<feColorMatrix type="matrix" values="0 0 0 0 0 0 0 0 0 0 0 0 0 0 0 0 0 0 0.25 0"/>
<feBlend mode="normal" in2="BackgroundImageFix" result="effect1_dropShadow_474_2325"/>
<feBlend mode="normal" in="SourceGraphic" in2="effect1_dropShadow_474_2325" result="shape"/>
</filter>
<filter id="filter1_d_474_2325" x="11.0585" y="17.5474" width="58.5565" height="17.1635" filterUnits="userSpaceOnUse" color-interpolation-filters="sRGB">
<feFlood flood-opacity="0" result="BackgroundImageFix"/>
<feColorMatrix in="SourceAlpha" type="matrix" values="0 0 0 0 0 0 0 0 0 0 0 0 0 0 0 0 0 0 127 0" result="hardAlpha"/>
<feOffset dx="0.947913" dy="1.26388"/>
<feComposite in2="hardAlpha" operator="out"/>
<feColorMatrix type="matrix" values="0 0 0 0 0 0 0 0 0 0 0 0 0 0 0 0 0 0 1 0"/>
<feBlend mode="normal" in2="BackgroundImageFix" result="effect1_dropShadow_474_2325"/>
<feBlend mode="normal" in="SourceGraphic" in2="effect1_dropShadow_474_2325" result="shape"/>
</filter>
</defs>
</svg>
