<svg width="844" height="390" viewBox="0 0 844 390" fill="none" xmlns="http://www.w3.org/2000/svg">
<mask id="path-1-inside-1_371_511" fill="white">
<path fill-rule="evenodd" clip-rule="evenodd" d="M828.543 365.533C826.606 372.446 819.432 376.48 812.518 374.543C805.605 372.606 801.571 365.431 803.508 358.518C805.445 351.604 812.619 347.57 819.533 349.507C826.446 351.445 830.481 358.619 828.543 365.533ZM824.835 363.98C823.419 369.035 818.173 371.985 813.118 370.568C808.063 369.152 805.113 363.906 806.53 358.851C807.946 353.796 813.192 350.846 818.247 352.263C823.302 353.679 826.252 358.925 824.835 363.98Z"/>
</mask>
<path fill-rule="evenodd" clip-rule="evenodd" d="M828.543 365.533C826.606 372.446 819.432 376.48 812.518 374.543C805.605 372.606 801.571 365.431 803.508 358.518C805.445 351.604 812.619 347.57 819.533 349.507C826.446 351.445 830.481 358.619 828.543 365.533ZM824.835 363.98C823.419 369.035 818.173 371.985 813.118 370.568C808.063 369.152 805.113 363.906 806.53 358.851C807.946 353.796 813.192 350.846 818.247 352.263C823.302 353.679 826.252 358.925 824.835 363.98Z" fill="#1D1D1B"/>
<path d="M812.248 375.506C819.694 377.592 827.42 373.248 829.506 365.803L827.581 365.263C825.792 371.645 819.17 375.368 812.788 373.58L812.248 375.506ZM802.545 358.248C800.459 365.693 804.803 373.42 812.248 375.506L812.788 373.58C806.406 371.792 802.682 365.169 804.471 358.788L802.545 358.248ZM819.803 348.544C812.357 346.458 804.631 350.803 802.545 358.248L804.471 358.788C806.259 352.406 812.881 348.682 819.263 350.47L819.803 348.544ZM829.506 365.803C831.592 358.357 827.248 350.631 819.803 348.544L819.263 350.47C825.645 352.258 829.369 358.881 827.581 365.263L829.506 365.803ZM812.848 371.531C818.435 373.097 824.233 369.837 825.798 364.25L823.872 363.71C822.605 368.233 817.911 370.873 813.388 369.605L812.848 371.531ZM805.567 358.581C804.002 364.168 807.262 369.966 812.848 371.531L813.388 369.605C808.865 368.338 806.225 363.644 807.493 359.121L805.567 358.581ZM818.517 351.3C812.93 349.734 807.132 352.994 805.567 358.581L807.493 359.121C808.76 354.598 813.454 351.958 817.977 353.226L818.517 351.3ZM825.798 364.25C827.364 358.663 824.104 352.865 818.517 351.3L817.977 353.226C822.5 354.493 825.14 359.187 823.872 363.71L825.798 364.25Z" fill="#1D1D1B" mask="url(#path-1-inside-1_371_511)"/>
<path fill-rule="evenodd" clip-rule="evenodd" d="M827.117 364.387C825.335 370.747 818.734 374.458 812.373 372.676C806.013 370.894 802.302 364.293 804.084 357.933C805.866 351.573 812.467 347.861 818.827 349.643C825.187 351.425 828.899 358.026 827.117 364.387ZM824.567 364.046C823.151 369.101 817.905 372.051 812.85 370.634C807.795 369.218 804.846 363.972 806.262 358.917C807.678 353.862 812.924 350.912 817.979 352.329C823.034 353.745 825.984 358.991 824.567 364.046Z" fill="#1D1D1B"/>
<path d="M822.27 365.422L809.974 355.082L808.551 356.773L820.848 367.114L822.27 365.422Z" fill="black"/>
<path d="M819.962 354.155L809.621 366.451L811.312 367.874L821.653 355.577L819.962 354.155Z" fill="black"/>
<mask id="path-6-inside-2_371_511" fill="white">
<path fill-rule="evenodd" clip-rule="evenodd" d="M53.5432 365.533C51.6061 372.446 44.4314 376.48 37.5179 374.543C30.6045 372.606 26.5703 365.431 28.5074 358.518C30.4445 351.604 37.6193 347.57 44.5327 349.507C51.4462 351.445 55.4803 358.619 53.5432 365.533ZM49.8352 363.98C48.4189 369.035 43.1728 371.985 38.1179 370.568C33.0629 369.152 30.1133 363.906 31.5296 358.851C32.946 353.796 38.192 350.846 43.247 352.263C48.3019 353.679 51.2516 358.925 49.8352 363.98Z"/>
</mask>
<path fill-rule="evenodd" clip-rule="evenodd" d="M53.5432 365.533C51.6061 372.446 44.4314 376.48 37.5179 374.543C30.6045 372.606 26.5703 365.431 28.5074 358.518C30.4445 351.604 37.6193 347.57 44.5327 349.507C51.4462 351.445 55.4803 358.619 53.5432 365.533ZM49.8352 363.98C48.4189 369.035 43.1728 371.985 38.1179 370.568C33.0629 369.152 30.1133 363.906 31.5296 358.851C32.946 353.796 38.192 350.846 43.247 352.263C48.3019 353.679 51.2516 358.925 49.8352 363.98Z" fill="#1D1D1B"/>
<path d="M37.2481 375.506C44.6934 377.592 52.4201 373.248 54.5062 365.803L52.5803 365.263C50.7922 371.645 44.1694 375.368 37.7877 373.58L37.2481 375.506ZM27.5445 358.248C25.4584 365.693 29.8029 373.42 37.2481 375.506L37.7877 373.58C31.4061 371.792 27.6822 365.169 29.4703 358.788L27.5445 358.248ZM44.8025 348.544C37.3573 346.458 29.6306 350.803 27.5445 358.248L29.4703 358.788C31.2584 352.406 37.8813 348.682 44.2629 350.47L44.8025 348.544ZM54.5062 365.803C56.5922 358.357 52.2478 350.631 44.8025 348.544L44.2629 350.47C50.6446 352.258 54.3684 358.881 52.5803 365.263L54.5062 365.803ZM37.8481 371.531C43.4348 373.097 49.2328 369.837 50.7981 364.25L48.8723 363.71C47.605 368.233 42.9108 370.873 38.3877 369.605L37.8481 371.531ZM30.5667 358.581C29.0014 364.168 32.2613 369.966 37.8481 371.531L38.3877 369.605C33.8645 368.338 31.2252 363.644 32.4926 359.121L30.5667 358.581ZM43.5168 351.3C37.93 349.734 32.1321 352.994 30.5667 358.581L32.4926 359.121C33.7599 354.598 38.454 351.958 42.9772 353.226L43.5168 351.3ZM50.7981 364.25C52.3635 358.663 49.1035 352.865 43.5168 351.3L42.9772 353.226C47.5003 354.493 50.1397 359.187 48.8723 363.71L50.7981 364.25Z" fill="#1D1D1B" mask="url(#path-6-inside-2_371_511)"/>
<path fill-rule="evenodd" clip-rule="evenodd" d="M52.1165 364.387C50.3344 370.747 43.7336 374.458 37.3732 372.676C31.0128 370.894 27.3014 364.293 29.0836 357.933C30.8657 351.573 37.4665 347.861 43.8268 349.643C50.1872 351.425 53.8986 358.026 52.1165 364.387ZM49.5673 364.046C48.1509 369.101 42.9049 372.051 37.8499 370.634C32.795 369.218 29.8453 363.972 31.2617 358.917C32.678 353.862 37.9241 350.912 42.979 352.329C48.034 353.745 50.9836 358.991 49.5673 364.046Z" fill="#1D1D1B"/>
<path d="M47.2702 365.422L34.9736 355.082L33.551 356.773L45.8477 367.114L47.2702 365.422Z" fill="black"/>
<path d="M44.9615 354.155L34.6208 366.451L36.3122 367.874L46.6529 355.577L44.9615 354.155Z" fill="black"/>
<ellipse cx="259.806" cy="360.611" rx="12.6086" ry="12.2748" fill="#212020"/>
<path d="M270.16 367.623C266.342 372.787 259.53 374.41 254.849 371.13C250.168 367.85 251.701 359.273 253.952 356.227C256.834 352.329 263.698 349.049 268.379 352.329C273.06 355.609 273.977 362.459 270.16 367.623Z" fill="black"/>
<ellipse cx="579.806" cy="360.611" rx="12.6086" ry="12.2748" fill="#212020"/>
<path d="M590.159 367.623C586.342 372.787 579.53 374.41 574.849 371.13C570.168 367.85 571.701 359.273 573.952 356.227C576.834 352.329 583.698 349.049 588.379 352.329C593.06 355.609 593.977 362.459 590.159 367.623Z" fill="black"/>
<path opacity="0.5" fill-rule="evenodd" clip-rule="evenodd" d="M114 15H730C743.255 15 754 25.7452 754 39V283C754 296.255 743.255 307 730 307H114C100.745 307 90.0001 296.255 90.0001 283V39C90.0001 25.7452 100.745 15 114 15ZM114 21C104.059 21 96.0001 29.0589 96.0001 39V283C96.0001 292.941 104.059 301 114 301H730C739.941 301 748 292.941 748 283V39C748 29.0589 739.941 21 730 21H114Z" fill="url(#paint0_linear_371_511)" fill-opacity="0.8"/>
<path fill-rule="evenodd" clip-rule="evenodd" d="M95.0001 39C95.0001 28.5066 103.507 20 114 20H730C740.494 20 749 28.5066 749 39V283C749 293.493 740.494 302 730 302H114C103.507 302 95.0001 293.493 95.0001 283V39ZM114 22C104.611 22 97.0001 29.6112 97.0001 39V283C97.0001 292.389 104.611 300 114 300H730C739.389 300 747 292.389 747 283V39C747 29.6112 739.389 22 730 22H114Z" fill="black"/>
<defs>
<linearGradient id="paint0_linear_371_511" x1="405.5" y1="21" x2="404" y2="301" gradientUnits="userSpaceOnUse">
<stop offset="0.0466325"/>
<stop offset="0.903731" stop-color="#9D9A9A"/>
</linearGradient>
</defs>
</svg>
