<svg width="188" height="44" viewBox="0 0 188 44" fill="none" xmlns="http://www.w3.org/2000/svg">
<path d="M16.1373 24C15.1053 24 14.5533 23.448 14.5533 22.416V8.232C14.5533 7.2 15.1053 6.624 16.1373 6.624H19.4973C26.5293 6.624 29.2653 9.624 29.2653 15.336C29.2653 20.976 26.5293 24 19.4973 24H16.1373ZM19.6413 20.64C24.0333 20.64 25.4493 18.912 25.4493 15.288C25.4493 11.712 24.0333 9.984 19.6173 9.984H18.3213V20.64H19.6413ZM38.7772 10.152C39.7612 10.152 40.1932 10.752 40.0732 11.784L40.0492 12.048C39.9292 13.056 39.3772 13.32 38.3692 13.512C36.5692 13.8 35.6092 15.024 35.6092 17.544V22.416C35.6092 23.448 35.0572 24 34.0252 24H33.5692C32.5372 24 31.9852 23.448 31.9852 22.416V11.88C31.9852 10.848 32.5372 10.272 33.5692 10.272H34.0252C35.0572 10.272 35.6092 10.776 35.6092 11.76V12.36C36.0172 11.28 37.0012 10.152 38.7772 10.152ZM46.9037 24.264C43.4957 24.264 40.9037 21.768 40.9037 17.136C40.9037 12.528 43.4717 10.056 46.9037 10.056C48.8237 10.056 50.6477 11.016 51.3677 12.696V11.688C51.3677 10.8 51.9437 10.296 52.9517 10.296H53.4077C54.4397 10.296 54.9917 10.848 54.9917 11.88V22.392C54.9917 23.424 54.4397 23.976 53.4077 23.976H52.9517C51.9437 23.976 51.3677 23.496 51.3677 22.632V21.672C50.6717 23.304 48.8237 24.264 46.9037 24.264ZM48.0077 21.264C50.0717 21.264 51.4637 19.704 51.4637 17.136C51.4637 14.616 50.0717 13.032 47.9837 13.032C45.9437 13.032 44.5277 14.592 44.5277 17.136C44.5277 19.704 45.9197 21.264 48.0077 21.264ZM70.1889 10.272V10.296C71.2209 10.296 71.7729 10.848 71.7729 11.88V21.6C71.7729 26.76 69.4209 28.992 64.6929 28.992C62.0289 28.992 59.9889 28.128 58.7649 26.52C58.0929 25.608 58.4049 24.792 59.4849 24.528L59.9409 24.408C60.8049 24.192 61.2609 24.504 61.8129 25.056C62.5329 25.776 63.4929 26.184 64.6449 26.184C66.9009 26.184 68.1489 25.056 68.1489 22.248V20.952C67.4769 22.44 65.7009 23.352 63.7809 23.352C60.3249 23.352 57.6849 21.024 57.6849 16.704C57.6849 12.384 60.3009 10.056 63.7329 10.056C65.8689 10.056 67.5249 11.064 68.2209 12.504V11.88C68.2449 10.824 68.7249 10.272 69.7569 10.272H70.1889ZM64.7649 20.688C66.8289 20.688 68.2209 19.224 68.2209 16.704C68.2209 14.208 66.8289 12.744 64.7649 12.744C62.7249 12.744 61.3089 14.208 61.3089 16.704C61.3089 19.248 62.7249 20.688 64.7649 20.688ZM87.819 24.216C84.075 24.216 82.371 22.728 82.371 18.528V13.032H81.795C80.931 13.032 80.451 12.504 80.451 11.64C80.451 10.752 80.883 10.272 81.675 10.272H82.371V9.168C82.371 8.232 82.827 7.728 83.859 7.512L84.291 7.416C85.515 7.152 86.043 7.632 86.043 8.784V10.272H88.203C89.307 10.272 89.811 10.752 89.811 11.64C89.811 12.552 89.307 13.032 88.203 13.032H86.043V18.216C86.043 20.472 86.715 21.312 88.419 21.36C89.283 21.408 89.835 21.768 89.883 22.608C89.931 23.496 89.523 24.096 88.491 24.192C88.275 24.216 88.035 24.216 87.819 24.216ZM97.9993 24.264C94.3993 24.264 90.9193 22.128 90.9193 17.136C90.9193 12.192 94.4233 10.056 97.9993 10.056C101.575 10.056 105.103 12.192 105.103 17.136C105.103 22.128 101.599 24.264 97.9993 24.264ZM97.9993 21.264C100.063 21.264 101.455 19.752 101.455 17.136C101.455 14.568 100.039 13.032 97.9993 13.032C95.9593 13.032 94.5433 14.544 94.5433 17.136C94.5433 19.752 95.9593 21.264 97.9993 21.264ZM120.777 24.216C117.801 24.216 115.161 22.92 113.961 21C113.409 20.064 113.721 19.368 114.777 19.032L115.113 18.936C115.953 18.648 116.433 18.912 117.105 19.656C118.065 20.664 119.289 21.216 120.729 21.216C122.577 21.216 123.657 20.448 123.657 19.152C123.657 15.768 114.129 17.976 114.129 11.472C114.129 8.448 116.697 6.432 120.369 6.432C123.105 6.432 125.577 7.512 126.657 9.264C127.305 10.272 127.017 11.016 125.913 11.28L125.505 11.376C124.473 11.616 124.065 11.184 123.345 10.56C122.529 9.816 121.689 9.456 120.537 9.456C118.881 9.456 117.849 10.176 117.849 11.376C117.849 15.048 127.449 12.504 127.449 19.056C127.449 22.176 124.713 24.216 120.777 24.216ZM135.772 24.216C132.028 24.216 130.324 22.728 130.324 18.528V13.032H129.748C128.884 13.032 128.404 12.504 128.404 11.64C128.404 10.752 128.836 10.272 129.628 10.272H130.324V9.168C130.324 8.232 130.78 7.728 131.812 7.512L132.244 7.416C133.468 7.152 133.996 7.632 133.996 8.784V10.272H136.156C137.26 10.272 137.764 10.752 137.764 11.64C137.764 12.552 137.26 13.032 136.156 13.032H133.996V18.216C133.996 20.472 134.668 21.312 136.372 21.36C137.236 21.408 137.788 21.768 137.836 22.608C137.884 23.496 137.476 24.096 136.444 24.192C136.228 24.216 135.988 24.216 135.772 24.216ZM144.849 24.264C141.441 24.264 138.849 21.768 138.849 17.136C138.849 12.528 141.417 10.056 144.849 10.056C146.769 10.056 148.593 11.016 149.313 12.696V11.688C149.313 10.8 149.889 10.296 150.897 10.296H151.353C152.385 10.296 152.937 10.848 152.937 11.88V22.392C152.937 23.424 152.385 23.976 151.353 23.976H150.897C149.889 23.976 149.313 23.496 149.313 22.632V21.672C148.617 23.304 146.769 24.264 144.849 24.264ZM145.953 21.264C148.017 21.264 149.409 19.704 149.409 17.136C149.409 14.616 148.017 13.032 145.929 13.032C143.889 13.032 142.473 14.592 142.473 17.136C142.473 19.704 143.865 21.264 145.953 21.264ZM162.902 10.152C163.886 10.152 164.318 10.752 164.198 11.784L164.174 12.048C164.054 13.056 163.502 13.32 162.494 13.512C160.694 13.8 159.734 15.024 159.734 17.544V22.416C159.734 23.448 159.182 24 158.15 24H157.694C156.662 24 156.11 23.448 156.11 22.416V11.88C156.11 10.848 156.662 10.272 157.694 10.272H158.15C159.182 10.272 159.734 10.776 159.734 11.76V12.36C160.142 11.28 161.126 10.152 162.902 10.152ZM172.546 24.216C168.802 24.216 167.098 22.728 167.098 18.528V13.032H166.522C165.658 13.032 165.178 12.504 165.178 11.64C165.178 10.752 165.61 10.272 166.402 10.272H167.098V9.168C167.098 8.232 167.554 7.728 168.586 7.512L169.018 7.416C170.242 7.152 170.77 7.632 170.77 8.784V10.272H172.93C174.034 10.272 174.538 10.752 174.538 11.64C174.538 12.552 174.034 13.032 172.93 13.032H170.77V18.216C170.77 20.472 171.442 21.312 173.146 21.36C174.01 21.408 174.562 21.768 174.61 22.608C174.658 23.496 174.25 24.096 173.218 24.192C173.002 24.216 172.762 24.216 172.546 24.216Z" fill="black"/>
<path d="M18.3213 9.984V5.984C16.1122 5.984 14.3213 7.77486 14.3213 9.984H18.3213ZM18.3213 20.64H14.3213C14.3213 22.8491 16.1122 24.64 18.3213 24.64V20.64ZM16.1373 20C16.3064 20 17.0742 20.054 17.7868 20.7666C18.4994 21.4792 18.5533 22.247 18.5533 22.416H10.5533C10.5533 23.617 10.8833 25.1768 12.1299 26.4234C13.3765 27.67 14.9363 28 16.1373 28V20ZM18.5533 22.416V8.232H10.5533V22.416H18.5533ZM18.5533 8.232C18.5533 8.39972 18.501 9.13947 17.818 9.83783C17.1209 10.5507 16.3517 10.624 16.1373 10.624V2.624C14.891 2.624 13.3298 2.98533 12.0987 4.24417C10.8817 5.48852 10.5533 7.03228 10.5533 8.232H18.5533ZM16.1373 10.624H19.4973V2.624H16.1373V10.624ZM19.4973 10.624C22.5522 10.624 23.7864 11.2914 24.2839 11.7574C24.7206 12.1664 25.2653 13.0564 25.2653 15.336H33.2653C33.2653 11.9036 32.4421 8.43759 29.7528 5.91863C27.1243 3.45664 23.4745 2.624 19.4973 2.624V10.624ZM25.2653 15.336C25.2653 17.5665 24.7272 18.4493 24.2869 18.8608C23.7848 19.3301 22.5443 20 19.4973 20V28C23.4824 28 27.1258 27.1579 29.7498 24.7052C32.4355 22.1947 33.2653 18.7455 33.2653 15.336H25.2653ZM19.4973 20H16.1373V28H19.4973V20ZM19.6413 24.64C22.2088 24.64 24.9683 24.1633 26.9922 22.1798C29.046 20.1668 29.4493 17.4824 29.4493 15.288H21.4493C21.4493 16.7176 21.1447 16.7092 21.3925 16.4662C21.6104 16.2527 21.4658 16.64 19.6413 16.64V24.64ZM29.4493 15.288C29.4493 13.1052 29.0407 10.4285 26.9747 8.42412C24.9493 6.45913 22.1929 5.984 19.6173 5.984V13.984C21.4578 13.984 21.6174 14.3729 21.404 14.1659C21.15 13.9195 21.4493 13.8948 21.4493 15.288H29.4493ZM19.6173 5.984H18.3213V13.984H19.6173V5.984ZM14.3213 9.984V20.64H22.3213V9.984H14.3213ZM18.3213 24.64H19.6413V16.64H18.3213V24.64ZM40.0732 11.784L36.1 11.322C36.0961 11.3552 36.0927 11.3885 36.0896 11.4219L40.0732 11.784ZM40.0492 12.048L44.0212 12.5209C44.0256 12.484 44.0294 12.4471 44.0328 12.4101L40.0492 12.048ZM38.3692 13.512L39.0012 17.4618C39.0401 17.4555 39.0789 17.4487 39.1177 17.4414L38.3692 13.512ZM35.6092 12.36H31.6092C31.6092 14.292 32.9901 15.9479 34.8907 16.2949C36.7913 16.642 38.6683 15.5809 39.3511 13.7736L35.6092 12.36ZM38.7772 14.152C38.4623 14.152 37.4474 14.0256 36.6763 13.0297C35.9973 12.1526 36.0978 11.3412 36.1 11.322L44.0464 12.246C44.1687 11.1948 44.1131 9.56736 43.0021 8.13231C41.7991 6.5784 40.0762 6.152 38.7772 6.152V14.152ZM36.0896 11.4219L36.0656 11.6858L44.0328 12.4101L44.0568 12.1461L36.0896 11.4219ZM36.0773 11.5751C36.0862 11.4998 36.1262 11.2356 36.297 10.8925C36.4833 10.5183 36.7602 10.1812 37.0935 9.92311C37.3979 9.68742 37.6557 9.59031 37.7339 9.56328C37.803 9.53942 37.7945 9.54955 37.6208 9.58265L39.1177 17.4414C39.6593 17.3382 40.8946 17.0977 41.9909 16.2489C43.346 15.1998 43.8732 13.7637 44.0212 12.5209L36.0773 11.5751ZM37.7373 9.56224C36.0193 9.83712 34.2655 10.6617 33.0492 12.3802C31.9212 13.9739 31.6092 15.8471 31.6092 17.544H39.6092C39.6092 17.158 39.647 16.9454 39.6685 16.8593C39.688 16.781 39.6811 16.8578 39.5792 17.0018C39.4683 17.1585 39.314 17.2965 39.1521 17.3884C39.0053 17.4717 38.9302 17.4731 39.0012 17.4618L37.7373 9.56224ZM31.6092 17.544V22.416H39.6092V17.544H31.6092ZM31.6092 22.416C31.6092 22.247 31.6632 21.4792 32.3758 20.7666C33.0884 20.054 33.8562 20 34.0252 20V28C35.2262 28 36.786 27.67 38.0326 26.4234C39.2793 25.1768 39.6092 23.617 39.6092 22.416H31.6092ZM34.0252 20H33.5692V28H34.0252V20ZM33.5692 20C33.7382 20 34.506 20.054 35.2186 20.7666C35.9313 21.4792 35.9852 22.247 35.9852 22.416H27.9852C27.9852 23.617 28.3152 25.1768 29.5618 26.4234C30.8084 27.67 32.3682 28 33.5692 28V20ZM35.9852 22.416V11.88H27.9852V22.416H35.9852ZM35.9852 11.88C35.9852 12.0477 35.9329 12.7875 35.2499 13.4858C34.5527 14.1987 33.7836 14.272 33.5692 14.272V6.272C32.3229 6.272 30.7617 6.63333 29.5305 7.89217C28.3135 9.13652 27.9852 10.6803 27.9852 11.88H35.9852ZM33.5692 14.272H34.0252V6.272H33.5692V14.272ZM34.0252 14.272C33.947 14.272 33.2075 14.2544 32.4761 13.5723C31.696 12.8448 31.6092 12.0073 31.6092 11.76H39.6092C39.6092 10.5287 39.2465 8.94724 37.9323 7.72169C36.667 6.54164 35.1355 6.272 34.0252 6.272V14.272ZM31.6092 11.76V12.36H39.6092V11.76H31.6092ZM39.3511 13.7736C39.3481 13.7814 39.3409 13.7991 39.3212 13.8277C39.3004 13.8579 39.2582 13.9109 39.1856 13.9692C39.1092 14.0306 39.0164 14.0837 38.9184 14.1182C38.8198 14.1529 38.7635 14.152 38.7772 14.152V6.152C34.895 6.152 32.6898 8.76935 31.8673 10.9464L39.3511 13.7736ZM51.3677 12.696L47.6911 14.2717C48.4392 16.0173 50.3116 16.9962 52.1719 16.6143C54.0323 16.2325 55.3677 14.5951 55.3677 12.696L51.3677 12.696ZM51.3677 21.672H55.3677C55.3677 19.7715 54.0304 18.1334 52.1684 17.753C50.3064 17.3725 48.4338 18.3547 47.6883 20.1029L51.3677 21.672ZM46.9037 20.264C46.2209 20.264 45.8493 20.0416 45.6095 19.7731C45.3391 19.4702 44.9037 18.7191 44.9037 17.136H36.9037C36.9037 20.1849 37.7642 22.9978 39.6418 25.1009C41.5501 27.2384 44.1784 28.264 46.9037 28.264V20.264ZM44.9037 17.136C44.9037 15.5607 45.3352 14.8278 45.5943 14.5389C45.8219 14.2852 46.1906 14.056 46.9037 14.056V6.056C44.1847 6.056 41.5534 7.06283 39.639 9.1971C37.7561 11.2962 36.9037 14.1033 36.9037 17.136H44.9037ZM46.9037 14.056C47.2134 14.056 47.4568 14.1364 47.5982 14.2173C47.7275 14.2914 47.715 14.3275 47.6911 14.2717L55.0442 11.1203C53.5431 7.61765 50.0025 6.056 46.9037 6.056V14.056ZM55.3677 12.696V11.688H47.3677V12.696H55.3677ZM55.3677 11.688C55.3677 12.1496 55.1846 12.9944 54.4204 13.6652C53.7331 14.2684 53.066 14.296 52.9517 14.296V6.296C51.8293 6.296 50.3702 6.57557 49.1429 7.65284C47.8387 8.79761 47.3677 10.3384 47.3677 11.688H55.3677ZM52.9517 14.296H53.4077V6.296H52.9517V14.296ZM53.4077 14.296C53.2386 14.296 52.4708 14.242 51.7582 13.5294C51.0456 12.8168 50.9917 12.049 50.9917 11.88H58.9917C58.9917 10.679 58.6617 9.11919 57.4151 7.87257C56.1685 6.62596 54.6087 6.296 53.4077 6.296V14.296ZM50.9917 11.88V22.392H58.9917V11.88H50.9917ZM50.9917 22.392C50.9917 22.223 51.0456 21.4552 51.7582 20.7426C52.4708 20.03 53.2386 19.976 53.4077 19.976V27.976C54.6087 27.976 56.1685 27.646 57.4151 26.3994C58.6617 25.1528 58.9917 23.593 58.9917 22.392H50.9917ZM53.4077 19.976H52.9517V27.976H53.4077V19.976ZM52.9517 19.976C53.0224 19.976 53.6709 19.988 54.3624 20.5719C55.1564 21.2423 55.3677 22.1189 55.3677 22.632H47.3677C47.3677 24.0091 47.867 25.5577 49.2009 26.6841C50.4324 27.724 51.8729 27.976 52.9517 27.976V19.976ZM55.3677 22.632V21.672H47.3677V22.632H55.3677ZM47.6883 20.1029C47.7395 19.9828 47.7818 20.0103 47.633 20.0941C47.4771 20.1818 47.2169 20.264 46.9037 20.264V28.264C49.9466 28.264 53.5534 26.7435 55.047 23.2411L47.6883 20.1029ZM48.0077 25.264C50.1187 25.264 52.1299 24.4285 53.5539 22.7577C54.9245 21.1497 55.4637 19.1155 55.4637 17.136H47.4637C47.4637 17.7245 47.3068 17.7543 47.4654 17.5683C47.5451 17.4748 47.6618 17.3834 47.7984 17.3229C47.931 17.2641 48.0149 17.264 48.0077 17.264V25.264ZM55.4637 17.136C55.4637 15.1642 54.9159 13.1379 53.5446 11.5369C52.122 9.87605 50.1108 9.032 47.9837 9.032V17.032C47.9946 17.032 47.9156 17.0325 47.7882 16.9761C47.6575 16.9182 47.5455 16.8307 47.4687 16.7411C47.3154 16.5621 47.4637 16.5878 47.4637 17.136H55.4637ZM47.9837 9.032C45.8757 9.032 43.876 9.87319 42.4582 11.5215C41.0863 13.1164 40.5277 15.1432 40.5277 17.136H48.5277C48.5277 16.5848 48.677 16.5596 48.5231 16.7385C48.4473 16.8267 48.3359 16.9139 48.2039 16.9724C48.1424 16.9996 48.0885 17.0152 48.0474 17.0236C48.0272 17.0277 48.0114 17.0298 48.0004 17.0309C47.9894 17.032 47.9837 17.032 47.9837 17.032V9.032ZM40.5277 17.136C40.5277 19.1153 41.0669 21.1542 42.4467 22.7651C43.8802 24.4387 45.8985 25.264 48.0077 25.264V17.264C47.9882 17.264 48.0641 17.2618 48.1922 17.3181C48.3249 17.3764 48.4415 17.4662 48.5226 17.5609C48.6844 17.7498 48.5277 17.7247 48.5277 17.136H40.5277ZM70.1889 10.272H74.1889C74.1889 8.06286 72.398 6.272 70.1889 6.272V10.272ZM70.1889 10.296H66.1889C66.1889 12.5051 67.9798 14.296 70.1889 14.296V10.296ZM58.7649 26.52L55.5447 28.8928C55.557 28.9095 55.5695 28.9262 55.5821 28.9427L58.7649 26.52ZM59.4849 24.528L60.4347 28.4136C60.4575 28.408 60.4802 28.4023 60.5029 28.3963L59.4849 24.528ZM59.9409 24.408L58.9708 20.5274C58.9548 20.5314 58.9389 20.5355 58.9229 20.5397L59.9409 24.408ZM61.8129 25.056L58.9845 27.8844L58.9845 27.8844L61.8129 25.056ZM68.1489 20.952H72.1489C72.1489 19.0674 70.8334 17.4384 68.9909 17.0416C67.1485 16.6449 65.2791 17.588 64.5034 19.3057L68.1489 20.952ZM68.2209 12.504L64.6195 14.2447C65.4312 15.924 67.2957 16.8194 69.1138 16.4031C70.9319 15.9867 72.2209 14.3691 72.2209 12.504H68.2209ZM68.2209 11.88L64.2219 11.7891C64.2213 11.8194 64.2209 11.8497 64.2209 11.88L68.2209 11.88ZM66.1889 10.272V10.296H74.1889V10.272H66.1889ZM70.1889 14.296C70.0199 14.296 69.2521 14.242 68.5395 13.5294C67.8269 12.8168 67.7729 12.049 67.7729 11.88H75.7729C75.7729 10.679 75.4429 9.11919 74.1963 7.87257C72.9497 6.62596 71.3899 6.296 70.1889 6.296V14.296ZM67.7729 11.88V21.6H75.7729V11.88H67.7729ZM67.7729 21.6C67.7729 23.6566 67.2963 24.281 67.1491 24.4312C67.0196 24.5634 66.4976 24.992 64.6929 24.992V32.992C67.6162 32.992 70.6343 32.3046 72.8627 30.0308C75.0735 27.775 75.7729 24.7034 75.7729 21.6H67.7729ZM64.6929 24.992C62.8754 24.992 62.2008 24.4298 61.9477 24.0973L55.5821 28.9427C57.777 31.8262 61.1824 32.992 64.6929 32.992V24.992ZM61.9851 24.1472C62.1122 24.3197 62.7223 25.3006 62.2224 26.6608C61.7273 28.0079 60.6434 28.3626 60.4347 28.4136L58.5351 20.6424C57.2464 20.9574 55.4665 21.8521 54.7134 23.9012C53.9555 25.9634 54.7456 27.8083 55.5447 28.8928L61.9851 24.1472ZM60.5029 28.3963L60.9589 28.2763L58.9229 20.5397L58.4669 20.6597L60.5029 28.3963ZM60.911 28.2886C60.8281 28.3093 60.6288 28.349 60.3469 28.3367C60.0497 28.3238 59.748 28.257 59.469 28.1419C58.9828 27.9414 58.766 27.6659 58.9845 27.8844L64.6413 22.2276C64.3078 21.8941 63.587 21.1866 62.5188 20.7461C61.2898 20.2393 60.0634 20.2543 58.9708 20.5274L60.911 28.2886ZM58.9845 27.8844C60.4863 29.3863 62.4777 30.184 64.6449 30.184V22.184C64.5936 22.184 64.5655 22.1795 64.5568 22.1779C64.5485 22.1763 64.5539 22.1766 64.5686 22.1826C64.5835 22.1886 64.6002 22.1973 64.616 22.2078C64.6315 22.2182 64.64 22.2262 64.6413 22.2276L58.9845 27.8844ZM64.6449 30.184C66.3926 30.184 68.5317 29.7411 70.1598 28.0061C71.7365 26.3259 72.1489 24.1533 72.1489 22.248H64.1489C64.1489 22.6689 64.1004 22.8553 64.0917 22.8838C64.0887 22.8936 64.139 22.7312 64.3261 22.5319C64.4149 22.4371 64.5137 22.3571 64.613 22.2945C64.7108 22.2329 64.7919 22.199 64.8411 22.1821C64.9295 22.1516 64.8899 22.184 64.6449 22.184V30.184ZM72.1489 22.248V20.952H64.1489V22.248H72.1489ZM64.5034 19.3057C64.5922 19.109 64.6788 19.1114 64.5349 19.189C64.3908 19.2667 64.1262 19.352 63.7809 19.352V27.352C66.7421 27.352 70.282 25.9472 71.7944 22.5983L64.5034 19.3057ZM63.7809 19.352C62.9652 19.352 62.5331 19.0942 62.3034 18.8582C62.0757 18.6243 61.6849 18.0373 61.6849 16.704H53.6849C53.6849 19.6907 54.6141 22.4277 56.5704 24.4378C58.5247 26.4458 61.1406 27.352 63.7809 27.352V19.352ZM61.6849 16.704C61.6849 15.3605 62.0761 14.7698 62.2999 14.538C62.5222 14.3076 62.9382 14.056 63.7329 14.056V6.056C61.0957 6.056 58.4876 6.96837 56.5439 8.98203C54.6017 10.9942 53.6849 13.7275 53.6849 16.704H61.6849ZM63.7329 14.056C64.6474 14.056 64.7174 14.4472 64.6195 14.2447L71.8223 10.7633C70.3324 7.68075 67.0904 6.056 63.7329 6.056V14.056ZM72.2209 12.504V11.88H64.2209V12.504H72.2209ZM72.2199 11.9709C72.2195 11.9887 72.2152 12.1553 72.1333 12.4096C72.0465 12.679 71.8704 13.0501 71.5351 13.4093C70.7891 14.2086 69.9376 14.272 69.7569 14.272V6.272C68.5443 6.272 66.9367 6.61143 65.6867 7.95073C64.501 9.22109 64.2455 10.7507 64.2219 11.7891L72.2199 11.9709ZM69.7569 14.272H70.1889V6.272H69.7569V14.272ZM64.7649 24.688C66.7925 24.688 68.798 23.9375 70.2551 22.3001C71.6697 20.7104 72.2209 18.6795 72.2209 16.704H64.2209C64.2209 17.2485 64.0761 17.2096 64.2787 16.9819C64.376 16.8725 64.5018 16.7844 64.6274 16.7317C64.7467 16.6816 64.806 16.688 64.7649 16.688V24.688ZM72.2209 16.704C72.2209 14.7314 71.6647 12.706 70.2493 11.1224C68.7934 9.49352 66.7915 8.744 64.7649 8.744V16.744C64.806 16.744 64.7478 16.7504 64.6302 16.7011C64.5065 16.6493 64.3818 16.5624 64.2846 16.4536C64.0811 16.226 64.2209 16.1806 64.2209 16.704H72.2209ZM64.7649 8.744C62.7402 8.744 60.7469 9.4999 59.2961 11.1151C57.8806 12.691 57.3089 14.714 57.3089 16.704H65.3089C65.3089 16.198 65.4452 16.241 65.2477 16.4609C65.1545 16.5647 65.0343 16.6488 64.9133 16.6997C64.7974 16.7483 64.7358 16.744 64.7649 16.744V8.744ZM57.3089 16.704C57.3089 18.7005 57.8712 20.7366 59.2961 22.3229C60.7581 23.9506 62.7589 24.688 64.7649 24.688V16.688C64.7271 16.688 64.7855 16.6821 64.902 16.7306C65.0249 16.7818 65.1498 16.8681 65.2477 16.9771C65.4546 17.2074 65.3089 17.2515 65.3089 16.704H57.3089ZM82.371 13.032H86.371C86.371 10.8229 84.5801 9.032 82.371 9.032V13.032ZM82.371 10.272V14.272C84.5801 14.272 86.371 12.4811 86.371 10.272H82.371ZM83.859 7.512L84.6784 11.4272C84.6945 11.4238 84.7106 11.4203 84.7267 11.4167L83.859 7.512ZM84.291 7.416L83.4476 3.50591C83.4395 3.50767 83.4314 3.50945 83.4232 3.51125L84.291 7.416ZM86.043 10.272H82.043C82.043 12.4811 83.8338 14.272 86.043 14.272V10.272ZM86.043 13.032V9.032C83.8338 9.032 82.043 10.8229 82.043 13.032H86.043ZM88.419 21.36L88.6408 17.3662C88.6045 17.3641 88.568 17.3626 88.5316 17.3616L88.419 21.36ZM89.883 22.608L93.8772 22.3921L93.8765 22.3798L89.883 22.608ZM88.491 24.192L88.1205 20.2092C88.0967 20.2114 88.073 20.2138 88.0492 20.2165L88.491 24.192ZM87.819 20.216C86.3421 20.216 86.3002 19.8987 86.5241 20.1233C86.7391 20.339 86.371 20.2253 86.371 18.528H78.371C78.371 21.0307 78.8548 23.761 80.8578 25.7707C82.8697 27.7893 85.5518 28.216 87.819 28.216V20.216ZM86.371 18.528V13.032H78.371V18.528H86.371ZM82.371 9.032H81.795V17.032H82.371V9.032ZM81.795 9.032C82.1924 9.032 83.0057 9.17528 83.699 9.905C84.3634 10.6044 84.451 11.3533 84.451 11.64H76.451C76.451 12.7907 76.7786 14.2356 77.899 15.415C79.0482 16.6247 80.5335 17.032 81.795 17.032V9.032ZM84.451 11.64C84.451 11.7882 84.4174 12.542 83.7449 13.2924C83.0084 14.1144 82.106 14.272 81.675 14.272V6.272C80.4519 6.272 78.9376 6.66962 77.787 7.95356C76.7006 9.16598 76.451 10.6038 76.451 11.64H84.451ZM81.675 14.272H82.371V6.272H81.675V14.272ZM86.371 10.272V9.168H78.371V10.272H86.371ZM86.371 9.168C86.371 9.3585 86.3108 10.0685 85.7011 10.7459C85.1543 11.3534 84.5968 11.4443 84.6784 11.4272L83.0395 3.59684C82.0892 3.79575 80.7876 4.24655 79.7548 5.39414C78.6592 6.61149 78.371 8.0415 78.371 9.168H86.371ZM84.7267 11.4167L85.1587 11.3207L83.4232 3.51125L82.9912 3.60725L84.7267 11.4167ZM85.1343 11.3261C85.3273 11.2845 84.2382 11.5931 83.1073 10.6765C82.5549 10.2287 82.2775 9.69923 82.1523 9.32883C82.0926 9.15234 82.0666 9.01208 82.0549 8.92645C82.0431 8.84043 82.043 8.78974 82.043 8.784H90.043C90.043 7.78837 89.8423 5.83756 88.1446 4.46154C86.4438 3.08294 84.4787 3.28353 83.4476 3.50591L85.1343 11.3261ZM82.043 8.784V10.272H90.043V8.784H82.043ZM86.043 14.272H88.203V6.272H86.043V14.272ZM88.203 14.272C88.2023 14.272 88.0495 14.2734 87.8032 14.2018C87.5443 14.1265 87.1654 13.9645 86.787 13.6333C85.9243 12.8785 85.811 11.9544 85.811 11.64H93.811C93.811 10.4376 93.4457 8.82955 92.055 7.61269C90.7676 6.48622 89.2443 6.272 88.203 6.272V14.272ZM85.811 11.64C85.811 11.3681 85.9063 10.4481 86.7677 9.68461C87.1485 9.3471 87.5324 9.18104 87.7967 9.10371C88.047 9.03046 88.2028 9.032 88.203 9.032V17.032C89.2427 17.032 90.7802 16.8183 92.0742 15.6714C93.4636 14.4399 93.811 12.8239 93.811 11.64H85.811ZM88.203 9.032H86.043V17.032H88.203V9.032ZM82.043 13.032V18.216H90.043V13.032H82.043ZM82.043 18.216C82.043 19.5455 82.1988 21.4567 83.4151 23.0465C84.8306 24.8967 86.8528 25.3175 88.3063 25.3584L88.5316 17.3616C88.4022 17.3579 88.5413 17.3429 88.8112 17.4506C89.1324 17.5787 89.4912 17.8226 89.7689 18.1855C89.8931 18.3479 89.9706 18.4949 90.0165 18.601C90.0612 18.7043 90.0756 18.7677 90.0763 18.7709C90.0769 18.7736 90.0676 18.7327 90.0588 18.6351C90.05 18.538 90.043 18.4011 90.043 18.216H82.043ZM88.1971 25.3538C88.1704 25.3524 88.0336 25.3433 87.8274 25.2797C87.6152 25.2143 87.297 25.0807 86.9627 24.8141C86.1657 24.1784 85.9177 23.3302 85.8895 22.8362L93.8765 22.3798C93.8002 21.0458 93.2522 19.5976 91.9512 18.5599C90.7932 17.6363 89.4989 17.4138 88.6408 17.3662L88.1971 25.3538ZM85.8888 22.8239C85.8795 22.6527 85.8832 21.9077 86.5052 21.153C87.1551 20.3645 87.9304 20.2269 88.1205 20.2092L88.8615 28.1748C90.0836 28.0611 91.5788 27.5755 92.6787 26.241C93.7507 24.9403 93.9344 23.4513 93.8771 22.3921L85.8888 22.8239ZM88.0492 20.2165C88.0938 20.2115 88.1016 20.213 88.0497 20.2144C87.9969 20.2158 87.935 20.216 87.819 20.216V28.216C87.987 28.216 88.4563 28.2205 88.9327 28.1675L88.0492 20.2165ZM97.9993 20.264C96.9457 20.264 96.1849 19.9491 95.7472 19.5651C95.3973 19.2581 94.9193 18.6268 94.9193 17.136H86.9193C86.9193 20.6372 88.1813 23.5699 90.4714 25.5789C92.6737 27.5109 95.4529 28.264 97.9993 28.264V20.264ZM94.9193 17.136C94.9193 15.6904 95.3882 15.0693 95.745 14.7587C96.1925 14.369 96.9617 14.056 97.9993 14.056V6.056C95.4609 6.056 92.6901 6.81097 90.4915 8.72535C88.2023 10.7187 86.9193 13.6376 86.9193 17.136H94.9193ZM97.9993 14.056C99.038 14.056 99.8169 14.3698 100.272 14.7645C100.635 15.0789 101.103 15.6996 101.103 17.136H109.103C109.103 13.6284 107.808 10.7091 105.512 8.71947C103.31 6.81019 100.537 6.056 97.9993 6.056V14.056ZM101.103 17.136C101.103 18.6177 100.626 19.2485 100.27 19.5592C99.8245 19.9483 99.054 20.264 97.9993 20.264V28.264C100.545 28.264 103.326 27.5117 105.532 25.5848C107.829 23.5795 109.103 20.6463 109.103 17.136H101.103ZM97.9993 25.264C100.072 25.264 102.091 24.4682 103.535 22.7884C104.924 21.1722 105.455 19.1236 105.455 17.136H97.4553C97.4553 17.7644 97.2906 17.7798 97.4679 17.5736C97.5564 17.4706 97.6805 17.377 97.8174 17.3176C97.9484 17.2607 98.0236 17.264 97.9993 17.264V25.264ZM105.455 17.136C105.455 15.1391 104.901 13.1052 103.519 11.5062C102.091 9.85321 100.088 9.032 97.9993 9.032V17.032C98.0028 17.032 97.9209 17.0313 97.7927 16.975C97.6605 16.917 97.5455 16.8287 97.4653 16.7358C97.302 16.5468 97.4553 16.5649 97.4553 17.136H105.455ZM97.9993 9.032C95.9298 9.032 93.9227 9.83332 92.4848 11.4908C91.094 13.094 90.5433 15.1351 90.5433 17.136H98.5433C98.5433 16.5449 98.7006 16.534 98.5278 16.7332C98.4431 16.8308 98.3244 16.9202 98.1921 16.9777C98.0647 17.033 97.9871 17.032 97.9993 17.032V9.032ZM90.5433 17.136C90.5433 19.1404 91.0894 21.1868 92.4793 22.7958C93.9182 24.4616 95.9287 25.264 97.9993 25.264V17.264C97.9871 17.264 98.0658 17.263 98.1949 17.3192C98.329 17.3775 98.4486 17.4682 98.5333 17.5662C98.7052 17.7652 98.5433 17.7476 98.5433 17.136H90.5433ZM113.961 21L110.516 23.0319C110.533 23.0615 110.551 23.0909 110.569 23.12L113.961 21ZM114.777 19.032L113.678 15.1859C113.64 15.1968 113.602 15.2083 113.564 15.2203L114.777 19.032ZM115.113 18.936L116.212 22.7821C116.279 22.763 116.345 22.7423 116.41 22.7198L115.113 18.936ZM117.105 19.656L114.137 22.3371C114.16 22.3633 114.184 22.3891 114.209 22.4146L117.105 19.656ZM126.657 9.264L123.252 11.363C123.265 11.3845 123.279 11.4058 123.292 11.427L126.657 9.264ZM125.913 11.28L126.829 15.1737C126.834 15.1726 126.839 15.1714 126.843 15.1703L125.913 11.28ZM125.505 11.376L126.411 15.272L126.421 15.2697L125.505 11.376ZM123.345 10.56L120.65 13.5158C120.675 13.5384 120.7 13.5608 120.725 13.5828L123.345 10.56ZM120.777 20.216C118.789 20.216 117.636 19.3331 117.353 18.88L110.569 23.12C112.686 26.5069 116.813 28.216 120.777 28.216V20.216ZM117.407 18.9681C117.477 19.0867 117.994 20.0651 117.45 21.3506C116.941 22.551 115.992 22.8431 115.99 22.8437L113.564 15.2203C112.506 15.5569 110.873 16.365 110.083 18.2314C109.256 20.1829 109.894 21.9773 110.516 23.0319L117.407 18.9681ZM115.876 22.8781L116.212 22.7821L114.014 15.0899L113.678 15.1859L115.876 22.8781ZM116.41 22.7198C116.34 22.7441 116.114 22.8133 115.779 22.8212C115.417 22.8299 115.041 22.7641 114.693 22.6254C114.369 22.4966 114.168 22.3439 114.096 22.285C114.031 22.2325 114.037 22.2266 114.137 22.3371L120.074 16.9749C119.662 16.5192 118.86 15.6738 117.651 15.1926C116.218 14.6218 114.865 14.7926 113.816 15.1522L116.41 22.7198ZM114.209 22.4146C115.9 24.1901 118.16 25.216 120.729 25.216V17.216C120.418 17.216 120.231 17.1379 120.002 16.8974L114.209 22.4146ZM120.729 25.216C122.129 25.216 123.78 24.9365 125.194 23.9368C126.78 22.8166 127.657 21.0701 127.657 19.152H119.657C119.657 18.9091 119.711 18.5653 119.899 18.1989C120.087 17.8306 120.345 17.5677 120.578 17.4032C120.991 17.1115 121.177 17.216 120.729 17.216V25.216ZM127.657 19.152C127.657 17.659 127.083 16.3541 126.157 15.3724C125.341 14.5068 124.379 14.0253 123.701 13.7442C122.998 13.4527 122.264 13.2437 121.682 13.0871C121 12.9038 120.562 12.7997 119.997 12.6374C118.893 12.3204 118.413 12.0667 118.211 11.8943C118.194 11.8799 118.183 11.8692 118.177 11.8627C118.174 11.8594 118.171 11.8569 118.17 11.8554C118.169 11.8547 118.169 11.8541 118.169 11.8538C118.168 11.8534 118.168 11.8532 118.168 11.8532C118.168 11.8532 118.168 11.8533 118.169 11.8536C118.169 11.8539 118.169 11.8543 118.169 11.8548C118.17 11.8559 118.171 11.8572 118.172 11.8587C118.173 11.8602 118.174 11.8616 118.174 11.8628C118.175 11.8639 118.175 11.8646 118.175 11.8646C118.175 11.8645 118.175 11.8635 118.174 11.8614C118.173 11.8592 118.172 11.8555 118.17 11.8503C118.167 11.8399 118.161 11.8214 118.155 11.793C118.144 11.7369 118.129 11.6339 118.129 11.472H110.129C110.129 14.2517 111.225 16.4532 113.025 17.9857C114.609 19.3343 116.511 19.9596 117.789 20.3266C118.415 20.5063 119.168 20.6955 119.603 20.8125C120.138 20.9563 120.446 21.0548 120.636 21.1338C120.851 21.2232 120.634 21.1752 120.338 20.8619C119.933 20.4326 119.657 19.799 119.657 19.152H127.657ZM118.129 11.472C118.129 11.2936 118.164 11.201 118.186 11.1553C118.21 11.1071 118.257 11.0324 118.373 10.9398C118.617 10.7445 119.233 10.432 120.369 10.432V2.432C117.833 2.432 115.33 3.12747 113.371 4.69618C111.342 6.32186 110.129 8.72128 110.129 11.472H118.129ZM120.369 10.432C122.305 10.432 123.163 11.2186 123.252 11.363L130.062 7.16501C127.991 3.80539 123.906 2.432 120.369 2.432V10.432ZM123.292 11.427C123.272 11.3959 123.142 11.1883 123.061 10.8168C122.974 10.4197 122.946 9.81796 123.196 9.15008C123.732 7.71456 124.916 7.40569 124.983 7.38968L126.843 15.1703C128.014 14.8903 129.894 14.0774 130.689 11.9519C131.459 9.89088 130.646 8.07123 130.022 7.10097L123.292 11.427ZM124.997 7.38633L124.589 7.48233L126.421 15.2697L126.829 15.1737L124.997 7.38633ZM124.599 7.47997C124.654 7.46722 124.862 7.4256 125.171 7.4518C125.503 7.47991 125.809 7.57389 126.057 7.69434C126.271 7.79867 126.382 7.89448 126.34 7.86102C126.322 7.84658 126.288 7.81855 126.221 7.75999C126.187 7.73128 126.152 7.70067 126.108 7.66226C126.067 7.62569 126.017 7.58227 125.965 7.53724L120.725 13.5828C120.849 13.6897 121.636 14.4408 122.56 14.8897C123.839 15.5114 125.159 15.5633 126.411 15.272L124.599 7.47997ZM126.04 7.60418C124.539 6.23535 122.754 5.456 120.537 5.456V13.456C120.616 13.456 120.647 13.4621 120.642 13.4613C120.635 13.4601 120.61 13.4544 120.577 13.4412C120.545 13.4282 120.529 13.4175 120.534 13.4209C120.542 13.4258 120.58 13.4516 120.65 13.5158L126.04 7.60418ZM120.537 5.456C119.199 5.456 117.619 5.73742 116.257 6.70397C114.745 7.77725 113.849 9.46809 113.849 11.376H121.849C121.849 11.663 121.783 12.0331 121.587 12.4125C121.39 12.7905 121.126 13.0587 120.887 13.228C120.455 13.5346 120.22 13.456 120.537 13.456V5.456ZM113.849 11.376C113.849 12.8157 114.359 14.1246 115.275 15.1523C116.095 16.0725 117.077 16.5862 117.792 16.8884C119.03 17.4114 120.862 17.7985 121.615 18.0001C122.752 18.3041 123.22 18.5428 123.408 18.6975C123.451 18.7331 123.428 18.7221 123.409 18.6817C123.393 18.6467 123.449 18.7353 123.449 19.056H131.449C131.449 16.258 130.341 14.0417 128.49 12.519C126.878 11.1932 124.947 10.6099 123.683 10.2719C122.036 9.83145 121.468 9.7566 120.906 9.51912C120.721 9.44101 120.954 9.4999 121.248 9.83077C121.639 10.2691 121.849 10.8543 121.849 11.376H113.849ZM123.449 19.056C123.449 19.2376 123.413 19.3292 123.389 19.3761C123.364 19.4269 123.305 19.5168 123.158 19.6295C122.843 19.871 122.096 20.216 120.777 20.216V28.216C123.395 28.216 125.984 27.541 128.02 25.9825C130.144 24.3572 131.449 21.9124 131.449 19.056H123.449ZM130.324 13.032H134.324C134.324 10.8229 132.533 9.032 130.324 9.032V13.032ZM130.324 10.272V14.272C132.533 14.272 134.324 12.4811 134.324 10.272H130.324ZM131.812 7.512L132.632 11.4272C132.648 11.4238 132.664 11.4203 132.68 11.4167L131.812 7.512ZM132.244 7.416L131.401 3.50591C131.393 3.50767 131.384 3.50945 131.376 3.51125L132.244 7.416ZM133.996 10.272H129.996C129.996 12.4811 131.787 14.272 133.996 14.272V10.272ZM133.996 13.032V9.032C131.787 9.032 129.996 10.8229 129.996 13.032H133.996ZM136.372 21.36L136.594 17.3662C136.558 17.3641 136.521 17.3626 136.485 17.3616L136.372 21.36ZM137.836 22.608L141.83 22.3921L141.83 22.3798L137.836 22.608ZM136.444 24.192L136.074 20.2092C136.05 20.2114 136.026 20.2138 136.002 20.2165L136.444 24.192ZM135.772 20.216C134.295 20.216 134.253 19.8987 134.477 20.1233C134.692 20.339 134.324 20.2253 134.324 18.528H126.324C126.324 21.0307 126.808 23.761 128.811 25.7707C130.823 27.7893 133.505 28.216 135.772 28.216V20.216ZM134.324 18.528V13.032H126.324V18.528H134.324ZM130.324 9.032H129.748V17.032H130.324V9.032ZM129.748 9.032C130.146 9.032 130.959 9.17528 131.652 9.905C132.317 10.6044 132.404 11.3533 132.404 11.64H124.404C124.404 12.7907 124.732 14.2356 125.852 15.415C127.001 16.6247 128.487 17.032 129.748 17.032V9.032ZM132.404 11.64C132.404 11.7882 132.37 12.542 131.698 13.2924C130.961 14.1144 130.059 14.272 129.628 14.272V6.272C128.405 6.272 126.891 6.66962 125.74 7.95356C124.654 9.16598 124.404 10.6038 124.404 11.64H132.404ZM129.628 14.272H130.324V6.272H129.628V14.272ZM134.324 10.272V9.168H126.324V10.272H134.324ZM134.324 9.168C134.324 9.3585 134.264 10.0685 133.654 10.7459C133.107 11.3534 132.55 11.4443 132.632 11.4272L130.993 3.59684C130.042 3.79575 128.741 4.24655 127.708 5.39414C126.612 6.61149 126.324 8.0415 126.324 9.168H134.324ZM132.68 11.4167L133.112 11.3207L131.376 3.51125L130.944 3.60725L132.68 11.4167ZM133.087 11.3261C133.28 11.2845 132.191 11.5931 131.06 10.6765C130.508 10.2287 130.231 9.69923 130.105 9.32883C130.046 9.15234 130.02 9.01208 130.008 8.92645C129.996 8.84043 129.996 8.78974 129.996 8.784H137.996C137.996 7.78837 137.795 5.83756 136.098 4.46154C134.397 3.08294 132.432 3.28353 131.401 3.50591L133.087 11.3261ZM129.996 8.784V10.272H137.996V8.784H129.996ZM133.996 14.272H136.156V6.272H133.996V14.272ZM136.156 14.272C136.155 14.272 136.003 14.2734 135.756 14.2018C135.497 14.1265 135.119 13.9645 134.74 13.6333C133.877 12.8785 133.764 11.9544 133.764 11.64H141.764C141.764 10.4376 141.399 8.82955 140.008 7.61269C138.721 6.48622 137.197 6.272 136.156 6.272V14.272ZM133.764 11.64C133.764 11.3681 133.859 10.4481 134.721 9.68461C135.102 9.3471 135.486 9.18104 135.75 9.10371C136 9.03046 136.156 9.032 136.156 9.032V17.032C137.196 17.032 138.733 16.8183 140.027 15.6714C141.417 14.4399 141.764 12.8239 141.764 11.64H133.764ZM136.156 9.032H133.996V17.032H136.156V9.032ZM129.996 13.032V18.216H137.996V13.032H129.996ZM129.996 18.216C129.996 19.5455 130.152 21.4567 131.368 23.0465C132.784 24.8967 134.806 25.3175 136.259 25.3584L136.485 17.3616C136.355 17.3579 136.494 17.3429 136.764 17.4506C137.085 17.5787 137.444 17.8226 137.722 18.1855C137.846 18.3479 137.924 18.4949 137.97 18.601C138.014 18.7043 138.029 18.7677 138.029 18.7709C138.03 18.7736 138.021 18.7327 138.012 18.6351C138.003 18.538 137.996 18.4011 137.996 18.216H129.996ZM136.15 25.3538C136.124 25.3524 135.987 25.3433 135.781 25.2797C135.568 25.2143 135.25 25.0807 134.916 24.8141C134.119 24.1784 133.871 23.3302 133.843 22.8362L141.83 22.3798C141.753 21.0458 141.205 19.5976 139.904 18.5599C138.746 17.6363 137.452 17.4138 136.594 17.3662L136.15 25.3538ZM133.842 22.8239C133.833 22.6527 133.836 21.9077 134.458 21.153C135.108 20.3645 135.883 20.2269 136.074 20.2092L136.815 28.1748C138.037 28.0611 139.532 27.5755 140.632 26.241C141.704 24.9403 141.888 23.4513 141.83 22.3921L133.842 22.8239ZM136.002 20.2165C136.047 20.2115 136.055 20.213 136.003 20.2144C135.95 20.2158 135.888 20.216 135.772 20.216V28.216C135.94 28.216 136.409 28.2205 136.886 28.1675L136.002 20.2165ZM149.313 12.696L145.636 14.2717C146.384 16.0173 148.257 16.9962 150.117 16.6143C151.978 16.2325 153.313 14.5951 153.313 12.696L149.313 12.696ZM149.313 21.672H153.313C153.313 19.7715 151.976 18.1334 150.114 17.753C148.252 17.3725 146.379 18.3547 145.634 20.1029L149.313 21.672ZM144.849 20.264C144.166 20.264 143.795 20.0416 143.555 19.7731C143.284 19.4702 142.849 18.7191 142.849 17.136H134.849C134.849 20.1849 135.71 22.9978 137.587 25.1009C139.495 27.2384 142.124 28.264 144.849 28.264V20.264ZM142.849 17.136C142.849 15.5607 143.28 14.8278 143.54 14.5389C143.767 14.2852 144.136 14.056 144.849 14.056V6.056C142.13 6.056 139.499 7.06283 137.584 9.1971C135.701 11.2962 134.849 14.1033 134.849 17.136H142.849ZM144.849 14.056C145.159 14.056 145.402 14.1364 145.544 14.2173C145.673 14.2914 145.66 14.3275 145.636 14.2717L152.99 11.1203C151.488 7.61765 147.948 6.056 144.849 6.056V14.056ZM153.313 12.696V11.688H145.313V12.696H153.313ZM153.313 11.688C153.313 12.1496 153.13 12.9944 152.366 13.6652C151.678 14.2684 151.011 14.296 150.897 14.296V6.296C149.775 6.296 148.315 6.57557 147.088 7.65284C145.784 8.79761 145.313 10.3384 145.313 11.688H153.313ZM150.897 14.296H151.353V6.296H150.897V14.296ZM151.353 14.296C151.184 14.296 150.416 14.242 149.704 13.5294C148.991 12.8168 148.937 12.049 148.937 11.88H156.937C156.937 10.679 156.607 9.11919 155.36 7.87257C154.114 6.62596 152.554 6.296 151.353 6.296V14.296ZM148.937 11.88V22.392H156.937V11.88H148.937ZM148.937 22.392C148.937 22.223 148.991 21.4552 149.704 20.7426C150.416 20.03 151.184 19.976 151.353 19.976V27.976C152.554 27.976 154.114 27.646 155.36 26.3994C156.607 25.1528 156.937 23.593 156.937 22.392H148.937ZM151.353 19.976H150.897V27.976H151.353V19.976ZM150.897 19.976C150.968 19.976 151.616 19.988 152.308 20.5719C153.102 21.2423 153.313 22.1189 153.313 22.632H145.313C145.313 24.0091 145.812 25.5577 147.146 26.6841C148.378 27.724 149.818 27.976 150.897 27.976V19.976ZM153.313 22.632V21.672H145.313V22.632H153.313ZM145.634 20.1029C145.685 19.9828 145.727 20.0103 145.578 20.0941C145.422 20.1818 145.162 20.264 144.849 20.264V28.264C147.892 28.264 151.499 26.7435 152.992 23.2411L145.634 20.1029ZM145.953 25.264C148.064 25.264 150.075 24.4285 151.499 22.7577C152.87 21.1497 153.409 19.1155 153.409 17.136H145.409C145.409 17.7245 145.252 17.7543 145.411 17.5683C145.49 17.4748 145.607 17.3834 145.744 17.3229C145.876 17.2641 145.96 17.264 145.953 17.264V25.264ZM153.409 17.136C153.409 15.1642 152.861 13.1379 151.49 11.5369C150.067 9.87605 148.056 9.032 145.929 9.032V17.032C145.94 17.032 145.861 17.0325 145.734 16.9761C145.603 16.9182 145.491 16.8307 145.414 16.7411C145.261 16.5621 145.409 16.5878 145.409 17.136H153.409ZM145.929 9.032C143.821 9.032 141.821 9.87319 140.403 11.5215C139.032 13.1164 138.473 15.1432 138.473 17.136H146.473C146.473 16.5848 146.622 16.5596 146.468 16.7385C146.393 16.8267 146.281 16.9139 146.149 16.9724C146.088 16.9996 146.034 17.0152 145.993 17.0236C145.973 17.0277 145.957 17.0298 145.946 17.0309C145.935 17.032 145.929 17.032 145.929 17.032V9.032ZM138.473 17.136C138.473 19.1153 139.012 21.1542 140.392 22.7651C141.826 24.4387 143.844 25.264 145.953 25.264V17.264C145.934 17.264 146.009 17.2618 146.138 17.3181C146.27 17.3764 146.387 17.4662 146.468 17.5609C146.63 17.7498 146.473 17.7247 146.473 17.136H138.473ZM164.198 11.784L160.225 11.322C160.221 11.3552 160.218 11.3885 160.215 11.4219L164.198 11.784ZM164.174 12.048L168.146 12.5209C168.151 12.484 168.154 12.4471 168.158 12.4101L164.174 12.048ZM162.494 13.512L163.126 17.4618C163.165 17.4555 163.204 17.4487 163.243 17.4414L162.494 13.512ZM159.734 12.36H155.734C155.734 14.292 157.115 15.9479 159.016 16.2949C160.916 16.642 162.793 15.5809 163.476 13.7736L159.734 12.36ZM162.902 14.152C162.587 14.152 161.572 14.0256 160.801 13.0297C160.122 12.1526 160.223 11.3412 160.225 11.322L168.171 12.246C168.294 11.1948 168.238 9.56736 167.127 8.13231C165.924 6.5784 164.201 6.152 162.902 6.152V14.152ZM160.215 11.4219L160.191 11.6858L168.158 12.4101L168.182 12.1461L160.215 11.4219ZM160.202 11.5751C160.211 11.4998 160.251 11.2356 160.422 10.8925C160.608 10.5183 160.885 10.1812 161.219 9.92311C161.523 9.68742 161.781 9.59031 161.859 9.56328C161.928 9.53942 161.92 9.54955 161.746 9.58265L163.243 17.4414C163.784 17.3382 165.02 17.0977 166.116 16.2489C167.471 15.1998 167.998 13.7637 168.146 12.5209L160.202 11.5751ZM161.862 9.56224C160.144 9.83712 158.391 10.6617 157.174 12.3802C156.046 13.9739 155.734 15.8471 155.734 17.544H163.734C163.734 17.158 163.772 16.9454 163.793 16.8593C163.813 16.781 163.806 16.8578 163.704 17.0018C163.593 17.1585 163.439 17.2965 163.277 17.3884C163.13 17.4717 163.055 17.4731 163.126 17.4618L161.862 9.56224ZM155.734 17.544V22.416H163.734V17.544H155.734ZM155.734 22.416C155.734 22.247 155.788 21.4792 156.501 20.7666C157.213 20.054 157.981 20 158.15 20V28C159.351 28 160.911 27.67 162.158 26.4234C163.404 25.1768 163.734 23.617 163.734 22.416H155.734ZM158.15 20H157.694V28H158.15V20ZM157.694 20C157.863 20 158.631 20.054 159.344 20.7666C160.056 21.4792 160.11 22.247 160.11 22.416H152.11C152.11 23.617 152.44 25.1768 153.687 26.4234C154.933 27.67 156.493 28 157.694 28V20ZM160.11 22.416V11.88H152.11V22.416H160.11ZM160.11 11.88C160.11 12.0477 160.058 12.7875 159.375 13.4858C158.678 14.1987 157.909 14.272 157.694 14.272V6.272C156.448 6.272 154.887 6.63333 153.656 7.89217C152.439 9.13652 152.11 10.6803 152.11 11.88H160.11ZM157.694 14.272H158.15V6.272H157.694V14.272ZM158.15 14.272C158.072 14.272 157.332 14.2544 156.601 13.5723C155.821 12.8448 155.734 12.0073 155.734 11.76H163.734C163.734 10.5287 163.371 8.94724 162.057 7.72169C160.792 6.54164 159.26 6.272 158.15 6.272V14.272ZM155.734 11.76V12.36H163.734V11.76H155.734ZM163.476 13.7736C163.473 13.7814 163.466 13.7991 163.446 13.8277C163.425 13.8579 163.383 13.9109 163.311 13.9692C163.234 14.0306 163.141 14.0837 163.043 14.1182C162.945 14.1529 162.888 14.152 162.902 14.152V6.152C159.02 6.152 156.815 8.76935 155.992 10.9464L163.476 13.7736ZM167.098 13.032H171.098C171.098 10.8229 169.307 9.032 167.098 9.032V13.032ZM167.098 10.272V14.272C169.307 14.272 171.098 12.4811 171.098 10.272H167.098ZM168.586 7.512L169.405 11.4272C169.421 11.4238 169.437 11.4203 169.453 11.4167L168.586 7.512ZM169.018 7.416L168.174 3.50591C168.166 3.50767 168.158 3.50945 168.15 3.51125L169.018 7.416ZM170.77 10.272H166.77C166.77 12.4811 168.56 14.272 170.77 14.272V10.272ZM170.77 13.032V9.032C168.56 9.032 166.77 10.8229 166.77 13.032H170.77ZM173.146 21.36L173.367 17.3662C173.331 17.3641 173.295 17.3626 173.258 17.3616L173.146 21.36ZM174.61 22.608L178.604 22.3921L178.603 22.3798L174.61 22.608ZM173.218 24.192L172.847 20.2092C172.823 20.2114 172.8 20.2138 172.776 20.2165L173.218 24.192ZM172.546 20.216C171.069 20.216 171.027 19.8987 171.251 20.1233C171.466 20.339 171.098 20.2253 171.098 18.528H163.098C163.098 21.0307 163.581 23.761 165.584 25.7707C167.596 27.7893 170.278 28.216 172.546 28.216V20.216ZM171.098 18.528V13.032H163.098V18.528H171.098ZM167.098 9.032H166.522V17.032H167.098V9.032ZM166.522 9.032C166.919 9.032 167.732 9.17528 168.426 9.905C169.09 10.6044 169.178 11.3533 169.178 11.64H161.178C161.178 12.7907 161.505 14.2356 162.626 15.415C163.775 16.6247 165.26 17.032 166.522 17.032V9.032ZM169.178 11.64C169.178 11.7882 169.144 12.542 168.471 13.2924C167.735 14.1144 166.833 14.272 166.402 14.272V6.272C165.178 6.272 163.664 6.66962 162.514 7.95356C161.427 9.16598 161.178 10.6038 161.178 11.64H169.178ZM166.402 14.272H167.098V6.272H166.402V14.272ZM171.098 10.272V9.168H163.098V10.272H171.098ZM171.098 9.168C171.098 9.3585 171.037 10.0685 170.428 10.7459C169.881 11.3534 169.323 11.4443 169.405 11.4272L167.766 3.59684C166.816 3.79575 165.514 4.24655 164.481 5.39414C163.386 6.61149 163.098 8.0415 163.098 9.168H171.098ZM169.453 11.4167L169.885 11.3207L168.15 3.51125L167.718 3.60725L169.453 11.4167ZM169.861 11.3261C170.054 11.2845 168.965 11.5931 167.834 10.6765C167.281 10.2287 167.004 9.69923 166.879 9.32883C166.819 9.15234 166.793 9.01208 166.781 8.92645C166.77 8.84043 166.77 8.78974 166.77 8.784H174.77C174.77 7.78837 174.569 5.83756 172.871 4.46154C171.17 3.08294 169.205 3.28353 168.174 3.50591L169.861 11.3261ZM166.77 8.784V10.272H174.77V8.784H166.77ZM170.77 14.272H172.93V6.272H170.77V14.272ZM172.93 14.272C172.929 14.272 172.776 14.2734 172.53 14.2018C172.271 14.1265 171.892 13.9645 171.514 13.6333C170.651 12.8785 170.538 11.9544 170.538 11.64H178.538C178.538 10.4376 178.172 8.82955 176.782 7.61269C175.494 6.48622 173.971 6.272 172.93 6.272V14.272ZM170.538 11.64C170.538 11.3681 170.633 10.4481 171.494 9.68461C171.875 9.3471 172.259 9.18104 172.523 9.10371C172.774 9.03046 172.929 9.032 172.93 9.032V17.032C173.969 17.032 175.507 16.8183 176.801 15.6714C178.19 14.4399 178.538 12.8239 178.538 11.64H170.538ZM172.93 9.032H170.77V17.032H172.93V9.032ZM166.77 13.032V18.216H174.77V13.032H166.77ZM166.77 18.216C166.77 19.5455 166.925 21.4567 168.142 23.0465C169.557 24.8967 171.579 25.3175 173.033 25.3584L173.258 17.3616C173.129 17.3579 173.268 17.3429 173.538 17.4506C173.859 17.5787 174.218 17.8226 174.495 18.1855C174.62 18.3479 174.697 18.4949 174.743 18.601C174.788 18.7043 174.802 18.7677 174.803 18.7709C174.803 18.7736 174.794 18.7327 174.785 18.6351C174.777 18.538 174.77 18.4011 174.77 18.216H166.77ZM172.924 25.3538C172.897 25.3524 172.76 25.3433 172.554 25.2797C172.342 25.2143 172.024 25.0807 171.689 24.8141C170.892 24.1784 170.644 23.3302 170.616 22.8362L178.603 22.3798C178.527 21.0458 177.979 19.5976 176.678 18.5599C175.52 17.6363 174.225 17.4138 173.367 17.3662L172.924 25.3538ZM170.615 22.8239C170.606 22.6527 170.61 21.9077 171.232 21.153C171.882 20.3645 172.657 20.2269 172.847 20.2092L173.588 28.1748C174.81 28.0611 176.305 27.5755 177.405 26.241C178.477 24.9403 178.661 23.4513 178.604 22.3921L170.615 22.8239ZM172.776 20.2165C172.82 20.2115 172.828 20.213 172.776 20.2144C172.723 20.2158 172.662 20.216 172.546 20.216V28.216C172.714 28.216 173.183 28.2205 173.659 28.1675L172.776 20.2165Z" fill="black"/>
<path d="M16.1373 24C15.1053 24 14.5533 23.448 14.5533 22.416V8.232C14.5533 7.2 15.1053 6.624 16.1373 6.624H19.4973C26.5293 6.624 29.2653 9.624 29.2653 15.336C29.2653 20.976 26.5293 24 19.4973 24H16.1373ZM19.6413 20.64C24.0333 20.64 25.4493 18.912 25.4493 15.288C25.4493 11.712 24.0333 9.984 19.6173 9.984H18.3213V20.64H19.6413ZM38.7772 10.152C39.7612 10.152 40.1932 10.752 40.0732 11.784L40.0492 12.048C39.9292 13.056 39.3772 13.32 38.3692 13.512C36.5692 13.8 35.6092 15.024 35.6092 17.544V22.416C35.6092 23.448 35.0572 24 34.0252 24H33.5692C32.5372 24 31.9852 23.448 31.9852 22.416V11.88C31.9852 10.848 32.5372 10.272 33.5692 10.272H34.0252C35.0572 10.272 35.6092 10.776 35.6092 11.76V12.36C36.0172 11.28 37.0012 10.152 38.7772 10.152ZM46.9037 24.264C43.4957 24.264 40.9037 21.768 40.9037 17.136C40.9037 12.528 43.4717 10.056 46.9037 10.056C48.8237 10.056 50.6477 11.016 51.3677 12.696V11.688C51.3677 10.8 51.9437 10.296 52.9517 10.296H53.4077C54.4397 10.296 54.9917 10.848 54.9917 11.88V22.392C54.9917 23.424 54.4397 23.976 53.4077 23.976H52.9517C51.9437 23.976 51.3677 23.496 51.3677 22.632V21.672C50.6717 23.304 48.8237 24.264 46.9037 24.264ZM48.0077 21.264C50.0717 21.264 51.4637 19.704 51.4637 17.136C51.4637 14.616 50.0717 13.032 47.9837 13.032C45.9437 13.032 44.5277 14.592 44.5277 17.136C44.5277 19.704 45.9197 21.264 48.0077 21.264ZM70.1889 10.272V10.296C71.2209 10.296 71.7729 10.848 71.7729 11.88V21.6C71.7729 26.76 69.4209 28.992 64.6929 28.992C62.0289 28.992 59.9889 28.128 58.7649 26.52C58.0929 25.608 58.4049 24.792 59.4849 24.528L59.9409 24.408C60.8049 24.192 61.2609 24.504 61.8129 25.056C62.5329 25.776 63.4929 26.184 64.6449 26.184C66.9009 26.184 68.1489 25.056 68.1489 22.248V20.952C67.4769 22.44 65.7009 23.352 63.7809 23.352C60.3249 23.352 57.6849 21.024 57.6849 16.704C57.6849 12.384 60.3009 10.056 63.7329 10.056C65.8689 10.056 67.5249 11.064 68.2209 12.504V11.88C68.2449 10.824 68.7249 10.272 69.7569 10.272H70.1889ZM64.7649 20.688C66.8289 20.688 68.2209 19.224 68.2209 16.704C68.2209 14.208 66.8289 12.744 64.7649 12.744C62.7249 12.744 61.3089 14.208 61.3089 16.704C61.3089 19.248 62.7249 20.688 64.7649 20.688ZM87.819 24.216C84.075 24.216 82.371 22.728 82.371 18.528V13.032H81.795C80.931 13.032 80.451 12.504 80.451 11.64C80.451 10.752 80.883 10.272 81.675 10.272H82.371V9.168C82.371 8.232 82.827 7.728 83.859 7.512L84.291 7.416C85.515 7.152 86.043 7.632 86.043 8.784V10.272H88.203C89.307 10.272 89.811 10.752 89.811 11.64C89.811 12.552 89.307 13.032 88.203 13.032H86.043V18.216C86.043 20.472 86.715 21.312 88.419 21.36C89.283 21.408 89.835 21.768 89.883 22.608C89.931 23.496 89.523 24.096 88.491 24.192C88.275 24.216 88.035 24.216 87.819 24.216ZM97.9993 24.264C94.3993 24.264 90.9193 22.128 90.9193 17.136C90.9193 12.192 94.4233 10.056 97.9993 10.056C101.575 10.056 105.103 12.192 105.103 17.136C105.103 22.128 101.599 24.264 97.9993 24.264ZM97.9993 21.264C100.063 21.264 101.455 19.752 101.455 17.136C101.455 14.568 100.039 13.032 97.9993 13.032C95.9593 13.032 94.5433 14.544 94.5433 17.136C94.5433 19.752 95.9593 21.264 97.9993 21.264ZM120.777 24.216C117.801 24.216 115.161 22.92 113.961 21C113.409 20.064 113.721 19.368 114.777 19.032L115.113 18.936C115.953 18.648 116.433 18.912 117.105 19.656C118.065 20.664 119.289 21.216 120.729 21.216C122.577 21.216 123.657 20.448 123.657 19.152C123.657 15.768 114.129 17.976 114.129 11.472C114.129 8.448 116.697 6.432 120.369 6.432C123.105 6.432 125.577 7.512 126.657 9.264C127.305 10.272 127.017 11.016 125.913 11.28L125.505 11.376C124.473 11.616 124.065 11.184 123.345 10.56C122.529 9.816 121.689 9.456 120.537 9.456C118.881 9.456 117.849 10.176 117.849 11.376C117.849 15.048 127.449 12.504 127.449 19.056C127.449 22.176 124.713 24.216 120.777 24.216ZM135.772 24.216C132.028 24.216 130.324 22.728 130.324 18.528V13.032H129.748C128.884 13.032 128.404 12.504 128.404 11.64C128.404 10.752 128.836 10.272 129.628 10.272H130.324V9.168C130.324 8.232 130.78 7.728 131.812 7.512L132.244 7.416C133.468 7.152 133.996 7.632 133.996 8.784V10.272H136.156C137.26 10.272 137.764 10.752 137.764 11.64C137.764 12.552 137.26 13.032 136.156 13.032H133.996V18.216C133.996 20.472 134.668 21.312 136.372 21.36C137.236 21.408 137.788 21.768 137.836 22.608C137.884 23.496 137.476 24.096 136.444 24.192C136.228 24.216 135.988 24.216 135.772 24.216ZM144.849 24.264C141.441 24.264 138.849 21.768 138.849 17.136C138.849 12.528 141.417 10.056 144.849 10.056C146.769 10.056 148.593 11.016 149.313 12.696V11.688C149.313 10.8 149.889 10.296 150.897 10.296H151.353C152.385 10.296 152.937 10.848 152.937 11.88V22.392C152.937 23.424 152.385 23.976 151.353 23.976H150.897C149.889 23.976 149.313 23.496 149.313 22.632V21.672C148.617 23.304 146.769 24.264 144.849 24.264ZM145.953 21.264C148.017 21.264 149.409 19.704 149.409 17.136C149.409 14.616 148.017 13.032 145.929 13.032C143.889 13.032 142.473 14.592 142.473 17.136C142.473 19.704 143.865 21.264 145.953 21.264ZM162.902 10.152C163.886 10.152 164.318 10.752 164.198 11.784L164.174 12.048C164.054 13.056 163.502 13.32 162.494 13.512C160.694 13.8 159.734 15.024 159.734 17.544V22.416C159.734 23.448 159.182 24 158.15 24H157.694C156.662 24 156.11 23.448 156.11 22.416V11.88C156.11 10.848 156.662 10.272 157.694 10.272H158.15C159.182 10.272 159.734 10.776 159.734 11.76V12.36C160.142 11.28 161.126 10.152 162.902 10.152ZM172.546 24.216C168.802 24.216 167.098 22.728 167.098 18.528V13.032H166.522C165.658 13.032 165.178 12.504 165.178 11.64C165.178 10.752 165.61 10.272 166.402 10.272H167.098V9.168C167.098 8.232 167.554 7.728 168.586 7.512L169.018 7.416C170.242 7.152 170.77 7.632 170.77 8.784V10.272H172.93C174.034 10.272 174.538 10.752 174.538 11.64C174.538 12.552 174.034 13.032 172.93 13.032H170.77V18.216C170.77 20.472 171.442 21.312 173.146 21.36C174.01 21.408 174.562 21.768 174.61 22.608C174.658 23.496 174.25 24.096 173.218 24.192C173.002 24.216 172.762 24.216 172.546 24.216Z" fill="url(#paint0_linear_421_1156)"/>
<defs>
<linearGradient id="paint0_linear_421_1156" x1="0" y1="0" x2="173.992" y2="21.0749" gradientUnits="userSpaceOnUse">
<stop stop-color="#8BCDE7"/>
<stop offset="1" stop-color="#2D92B9"/>
</linearGradient>
</defs>
</svg>
