<svg width="480" height="128" viewBox="0 0 480 128" fill="none" xmlns="http://www.w3.org/2000/svg">
<g clip-path="url(#clip0_380_271)">
<path d="M152 37C152 32.5817 155.582 29 160 29H325C326.657 29 328 30.3431 328 32V97C328 98.6569 326.657 100 325 100H156C153.791 100 152 98.2091 152 96V37Z" fill="url(#paint0_linear_380_271)" fill-opacity="0.61"/>
<path opacity="0.81" d="M168.124 68.6582H167.964C167.544 68.6582 167.204 69.0053 167.204 69.4334V95.1154C167.204 95.5435 167.544 95.8905 167.964 95.8905H168.124C168.544 95.8905 168.884 95.5435 168.884 95.1154V69.4334C168.884 69.0053 168.544 68.6582 168.124 68.6582Z" fill="#D2CBC7"/>
<path opacity="0.81" d="M179.793 68.6582H179.633C179.214 68.6582 178.873 69.0053 178.873 69.4334V95.1154C178.873 95.5435 179.214 95.8905 179.633 95.8905H179.793C180.213 95.8905 180.553 95.5435 180.553 95.1154V69.4334C180.553 69.0053 180.213 68.6582 179.793 68.6582Z" fill="#D2CBC7"/>
<path opacity="0.81" d="M191.802 58.5403H191.592C191.013 58.5403 190.543 59.0198 190.543 59.6112V94.8194C190.543 95.4109 191.013 95.8904 191.592 95.8904H191.802C192.382 95.8904 192.852 95.4109 192.852 94.8194V59.6112C192.852 59.0198 192.382 58.5403 191.802 58.5403Z" fill="#D2CBC7"/>
<path opacity="0.81" d="M203.762 68.6582H203.602C203.182 68.6582 202.842 69.0053 202.842 69.4334V95.1154C202.842 95.5435 203.182 95.8905 203.602 95.8905H203.762C204.182 95.8905 204.522 95.5435 204.522 95.1154V69.4334C204.522 69.0053 204.182 68.6582 203.762 68.6582Z" fill="#D2CBC7"/>
<path opacity="0.81" d="M215.432 68.6582H215.272C214.852 68.6582 214.512 69.0053 214.512 69.4334V95.1154C214.512 95.5435 214.852 95.8905 215.272 95.8905H215.432C215.851 95.8905 216.192 95.5435 216.192 95.1154V69.4334C216.192 69.0053 215.851 68.6582 215.432 68.6582Z" fill="#D2CBC7"/>
<path opacity="0.81" d="M227.44 58.5403H227.23C226.651 58.5403 226.181 59.0198 226.181 59.6112V94.8194C226.181 95.4109 226.651 95.8904 227.23 95.8904H227.44C228.02 95.8904 228.49 95.4109 228.49 94.8194V59.6112C228.49 59.0198 228.02 58.5403 227.44 58.5403Z" fill="#D2CBC7"/>
<path opacity="0.81" d="M239.4 68.6582H239.24C238.82 68.6582 238.48 69.0053 238.48 69.4334V95.1154C238.48 95.5435 238.82 95.8905 239.24 95.8905H239.4C239.82 95.8905 240.16 95.5435 240.16 95.1154V69.4334C240.16 69.0053 239.82 68.6582 239.4 68.6582Z" fill="#D2CBC7"/>
<path opacity="0.81" d="M251.07 68.6582H250.91C250.49 68.6582 250.15 69.0053 250.15 69.4334V95.1154C250.15 95.5435 250.49 95.8905 250.91 95.8905H251.07C251.489 95.8905 251.83 95.5435 251.83 95.1154V69.4334C251.83 69.0053 251.489 68.6582 251.07 68.6582Z" fill="#D2CBC7"/>
<path opacity="0.81" d="M263.078 58.5403H262.868C262.289 58.5403 261.819 59.0198 261.819 59.6112V94.8194C261.819 95.4109 262.289 95.8904 262.868 95.8904H263.078C263.658 95.8904 264.128 95.4109 264.128 94.8194V59.6112C264.128 59.0198 263.658 58.5403 263.078 58.5403Z" fill="#D2CBC7"/>
<path opacity="0.81" d="M275.038 68.6582H274.878C274.458 68.6582 274.118 69.0053 274.118 69.4334V95.1154C274.118 95.5435 274.458 95.8905 274.878 95.8905H275.038C275.458 95.8905 275.798 95.5435 275.798 95.1154V69.4334C275.798 69.0053 275.458 68.6582 275.038 68.6582Z" fill="#D2CBC7"/>
<path opacity="0.81" d="M286.708 68.6582H286.548C286.128 68.6582 285.788 69.0053 285.788 69.4334V95.1154C285.788 95.5435 286.128 95.8905 286.548 95.8905H286.708C287.127 95.8905 287.468 95.5435 287.468 95.1154V69.4334C287.468 69.0053 287.127 68.6582 286.708 68.6582Z" fill="#D2CBC7"/>
<path opacity="0.81" d="M298.716 58.5403H298.506C297.927 58.5403 297.457 59.0198 297.457 59.6112V94.8194C297.457 95.4109 297.927 95.8904 298.506 95.8904H298.716C299.296 95.8904 299.766 95.4109 299.766 94.8194V59.6112C299.766 59.0198 299.296 58.5403 298.716 58.5403Z" fill="#D2CBC7"/>
<path opacity="0.81" d="M310.676 68.6582H310.516C310.096 68.6582 309.756 69.0053 309.756 69.4334V95.1154C309.756 95.5435 310.096 95.8905 310.516 95.8905H310.676C311.096 95.8905 311.436 95.5435 311.436 95.1154V69.4334C311.436 69.0053 311.096 68.6582 310.676 68.6582Z" fill="#D2CBC7"/>
<path d="M416.53 3.90674H67.4394C49.9056 3.90674 34.0378 10.8482 22.5536 22.0845C11.0693 33.3111 3.96851 48.8229 3.96851 65.9536C3.96851 69.0559 4.19661 72.1001 4.6528 75.0765C9.16519 105.024 35.5552 128 67.4394 128H416.53C434.064 128 449.931 121.059 461.416 109.833C470.827 100.632 477.292 88.5619 479.316 75.0765C479.772 72.1001 480 69.0559 480 65.9536C480 31.6921 451.588 3.90674 416.53 3.90674ZM331.241 92.8082C331.241 97.7913 327.105 101.824 322.007 101.824H161.961C156.864 101.824 152.729 97.7913 152.729 92.8082V39.1086C152.729 34.1255 156.864 30.0828 161.961 30.0828H322.007C327.105 30.0828 331.241 34.1255 331.241 39.1086V92.8082Z" fill="#311D0B"/>
<path d="M18.9346 18.5353L18.9348 18.5352C30.3281 7.38786 46.0712 0.5 63.4709 0.5H412.561C447.354 0.5 475.531 28.072 475.531 62.0468C475.531 65.1246 475.305 68.1435 474.854 71.0941L474.853 71.0955C472.846 84.4684 466.434 96.4403 457.098 105.568C445.704 116.706 429.961 123.593 412.561 123.593H63.4709C31.8292 123.593 5.65353 100.793 1.17872 71.0952L1.17853 71.094C0.726292 68.1435 0.5 65.1246 0.5 62.0468C0.5 45.0578 7.54139 29.6729 18.9346 18.5353ZM318.039 98.4172C323.401 98.4172 327.772 94.1721 327.772 88.9015V35.2019C327.772 29.9319 323.401 25.676 318.039 25.676H157.993C152.63 25.676 148.26 29.932 148.26 35.2019V88.9015C148.26 94.1721 152.631 98.4172 157.993 98.4172H318.039Z" fill="#4E3015" stroke="black"/>
<path d="M114.444 65.8053C114.444 90.8249 94.087 111.11 68.9718 111.11C43.8567 111.11 23.5 90.8249 23.5 65.8053C23.5 40.7856 43.8567 20.5 68.9718 20.5C94.087 20.5 114.444 40.7856 114.444 65.8053Z" fill="white" stroke="black"/>
<path d="M464.192 65.8053C464.192 90.8249 443.835 111.11 418.72 111.11C393.605 111.11 373.248 90.8249 373.248 65.8053C373.248 40.7856 393.605 20.5 418.72 20.5C443.835 20.5 464.192 40.7856 464.192 65.8053Z" fill="white" stroke="black"/>
</g>
<defs>
<linearGradient id="paint0_linear_380_271" x1="304.044" y1="85.6081" x2="100.195" y2="-75.4774" gradientUnits="userSpaceOnUse">
<stop stop-color="#35312E"/>
<stop offset="1" stop-color="white"/>
</linearGradient>
<clipPath id="clip0_380_271">
<rect width="480" height="128" fill="white"/>
</clipPath>
</defs>
</svg>
