<svg width="28" height="35" viewBox="0 0 28 35" fill="none" xmlns="http://www.w3.org/2000/svg">
<path d="M13.7967 31.4211C13.0334 31.4211 12.6587 30.9076 11.8816 29.8529L3.59673 18.7926C3.20816 18.2791 3 17.7656 3 17.2105C3 16.6416 3.20816 16.142 3.59673 15.6285L11.8816 4.55428C12.6587 3.51347 13.0334 3 13.7967 3C14.5599 3 14.9346 3.51347 15.7256 4.55428L24.0105 15.6285C24.3852 16.142 24.6072 16.6416 24.6072 17.2105C24.6072 17.7656 24.3852 18.2791 24.0105 18.7926L15.7256 29.8529C14.9346 30.9076 14.5599 31.4211 13.7967 31.4211Z" fill="url(#paint0_linear_645_1099)"/>
<path fill-rule="evenodd" clip-rule="evenodd" d="M24.0105 18.7926L15.6941 29.8949C14.9245 30.9212 14.5497 31.4211 13.7967 31.4211C13.037 31.4211 12.6623 30.9125 11.8926 29.8679L11.8816 29.8529L3.59673 18.7926C3.20816 18.2791 3 17.7656 3 17.2105C3 16.6416 3.20816 16.142 3.59673 15.6285L11.9075 4.51949C12.6672 3.50203 13.042 3 13.7967 3C14.5448 3 14.9197 3.49337 15.6792 4.49318C15.6945 4.51334 15.71 4.5337 15.7256 4.55428L24.0105 15.6285C24.3852 16.142 24.6072 16.6416 24.6072 17.2105C24.6072 17.7656 24.3852 18.2791 24.0105 18.7926ZM9.47826 2.75872C9.47808 2.75895 9.47843 2.75848 9.47826 2.75872C9.50426 2.72389 9.53152 2.68719 9.55998 2.64889C9.87068 2.23067 10.3237 1.62084 10.8337 1.16031C11.5808 0.48562 12.5588 0 13.7967 0C15.0354 0 16.0103 0.486101 16.7547 1.15428C17.2575 1.60564 17.7111 2.20592 18.0242 2.62028C18.0556 2.66185 18.0856 2.70154 18.1141 2.73903L18.121 2.74807L26.4233 13.8457L26.4339 13.8601C27.0222 14.6663 27.6072 15.7784 27.6072 17.2105C27.6072 18.621 27.0288 19.7457 26.4339 20.561L26.4228 20.5761L18.1256 31.6529C18.0985 31.6891 18.07 31.7273 18.0403 31.7671C17.7248 32.1899 17.27 32.7994 16.7621 33.2584C16.0149 33.9335 15.0371 34.4211 13.7967 34.4211C12.5571 34.4211 11.5762 33.934 10.8263 33.2523C10.3114 32.7842 9.85721 32.1651 9.54422 31.7384C9.51965 31.7049 9.49596 31.6726 9.47317 31.6417L1.19943 20.5962C0.534803 19.7158 0 18.5848 0 17.2105C0 15.8147 0.540889 14.6974 1.19894 13.8255L9.47826 2.75872Z" fill="black"/>
<defs>
<linearGradient id="paint0_linear_645_1099" x1="14.169" y1="4.73006" x2="14.169" y2="30.7301" gradientUnits="userSpaceOnUse">
<stop stop-color="#FFA3D5" stop-opacity="0.9"/>
<stop offset="0.578528" stop-color="#E63C99"/>
<stop offset="1" stop-color="#CB1679"/>
</linearGradient>
</defs>
</svg>
