<svg width="46" height="23" viewBox="0 0 46 23" fill="none" xmlns="http://www.w3.org/2000/svg">
<path d="M0 2.65385C0 1.18817 1.18817 0 2.65385 0H43.3462C44.8118 0 46 1.18817 46 2.65385V20.3462C46 21.8118 44.8118 23 43.3462 23H2.65385C1.18817 23 0 21.8118 0 20.3462V2.65385Z" fill="#011822"/>
<path fill-rule="evenodd" clip-rule="evenodd" d="M26.9437 4.74805C26.9712 4.53611 27.0525 4.33294 27.1813 4.15472C27.31 3.97651 27.4827 3.82816 27.6854 3.72151C27.8882 3.61486 28.1155 3.55285 28.3492 3.54041C28.5828 3.52798 28.8165 3.56547 29.0315 3.64989C30.1183 4.07348 32.554 5.08021 35.6447 6.70646C38.7365 8.33364 40.9112 9.75463 41.8558 10.3993C42.6622 10.9508 42.6643 12.0443 41.8568 12.5975C40.9214 13.2385 38.7733 14.6408 35.6447 16.2886C32.5131 17.9363 30.1061 18.9309 29.0294 19.3489C28.1022 19.7099 27.0645 19.1623 26.9437 18.2507C26.8025 17.1852 26.5385 14.7659 26.5385 11.4984C26.5385 8.23288 26.8015 5.81449 26.9437 4.74805Z" fill="url(#paint0_radial_304_17682)"/>
<defs>
<radialGradient id="paint0_radial_304_17682" cx="0" cy="0" r="1" gradientUnits="userSpaceOnUse" gradientTransform="translate(28.9269 5.92655) rotate(49.8991) scale(9.88803 9.88803)">
<stop stop-color="#ADFFEB"/>
<stop offset="0.874979" stop-color="#28D0A8"/>
</radialGradient>
</defs>
</svg>
