<svg width="121" height="36" viewBox="0 0 121 36" fill="none" xmlns="http://www.w3.org/2000/svg">
<rect width="121" height="36" rx="18" fill="#85C7E4"/>
<path d="M32.5622 25C31.4622 25 30.8622 24.42 30.8622 23.32V12.22C30.8622 11.12 31.4622 10.52 32.5622 10.52H33.2422C34.3422 10.52 34.9422 11.12 34.9422 12.22V15.96H39.0422V12.22C39.0422 11.12 39.6422 10.52 40.7222 10.52H41.4222C42.5022 10.52 43.1022 11.12 43.1022 12.22V23.32C43.1022 24.42 42.5022 25 41.4222 25H40.7222C39.6422 25 39.0422 24.42 39.0422 23.32V19.5H34.9422V23.32C34.9422 24.42 34.3422 25 33.2422 25H32.5622ZM51.4194 25.18C48.3794 25.18 45.3794 23.44 45.3794 19.28C45.3794 15.16 48.3794 13.42 51.4394 13.42C54.4994 13.42 57.4794 15.16 57.4794 19.28C57.4794 23.44 54.4994 25.18 51.4194 25.18ZM51.4394 22.06C52.6994 22.06 53.5994 21.06 53.5994 19.28C53.5994 17.52 52.6794 16.52 51.4194 16.52C50.1794 16.52 49.2394 17.52 49.2394 19.28C49.2394 21.08 50.1794 22.06 51.4394 22.06ZM73.8289 13.42C76.6689 13.42 77.8289 14.92 77.8289 18.74V23.32C77.8289 24.42 77.2489 25 76.1489 25H75.6289C74.5489 25 73.9489 24.42 73.9489 23.32V19.12C73.9489 17.24 73.5089 16.58 72.3089 16.58C71.0889 16.58 70.6089 17.26 70.6089 18.98V23.32C70.6089 24.42 70.0289 25 68.9289 25H68.4089C67.3289 25 66.7289 24.42 66.7289 23.32V19.12C66.7289 17.22 66.3289 16.58 65.1289 16.58C63.9089 16.58 63.4489 17.3 63.4489 19.18V23.32C63.4489 24.42 62.8489 25 61.7489 25H61.2489C60.1489 25 59.5489 24.42 59.5489 23.32V15.26C59.5489 14.16 60.1489 13.56 61.2489 13.56H61.7489C62.8289 13.56 63.4089 14.06 63.4489 15.02C63.9289 14.04 65.1089 13.42 66.6089 13.42C68.3889 13.42 69.3489 14.02 70.0089 15.56C70.5289 14.64 71.6889 13.42 73.8289 13.42ZM85.8144 25.16C82.1544 25.16 79.7544 22.88 79.7544 19.28C79.7544 15.76 82.1944 13.42 85.7144 13.42C89.0544 13.42 91.1944 15.26 91.4744 18.42C91.5744 19.54 90.9944 20.1 89.7744 20.1H83.6544C83.6744 21.6 84.5744 22.52 86.0544 22.52C86.8744 22.52 87.4544 22.28 88.0144 21.84C88.5744 21.4 88.9144 21.18 89.7344 21.38L90.0544 21.46C91.1944 21.72 91.3544 22.36 90.5944 23.28C89.6344 24.42 87.9744 25.16 85.8144 25.16ZM87.9344 17.88C87.8544 16.66 87.0344 15.88 85.8344 15.88C84.6544 15.88 83.7944 16.62 83.6944 17.88H87.9344Z" fill="#012B3E"/>
</svg>
