<svg width="87" height="34" viewBox="0 0 87 34" fill="none" xmlns="http://www.w3.org/2000/svg">
<path d="M13.6277 31.191C12.8644 31.191 12.4897 30.6775 11.7126 29.6228L3.42773 18.5625C3.03917 18.049 2.831 17.5356 2.831 16.9805C2.831 16.4115 3.03917 15.9119 3.42773 15.3984L11.7126 4.32422C12.4897 3.28341 12.8644 2.76994 13.6277 2.76994C14.3909 2.76994 14.7656 3.28341 15.5566 4.32422L23.8415 15.3984C24.2162 15.9119 24.4382 16.4115 24.4382 16.9805C24.4382 17.5356 24.2162 18.049 23.8415 18.5625L15.5566 29.6228C14.7656 30.6775 14.3909 31.191 13.6277 31.191Z" fill="url(#paint0_linear_315_677)"/>
<path d="M33.08 25C31.98 25 31.4 24.42 31.4 23.32V14.12H30.96C29.94 14.12 29.4 13.52 29.4 12.42V12.22C29.4 11.12 29.98 10.52 31.08 10.52H33.76C34.84 10.52 35.44 11.12 35.44 12.22V23.32C35.44 24.42 34.84 25 33.76 25H33.08ZM43.6106 25.16C41.2106 25.16 39.0906 24.12 38.1306 22.64C37.4706 21.64 37.9906 20.94 39.1506 20.74L39.4506 20.68C40.5906 20.5 40.9906 20.76 41.5506 21.16C42.1906 21.58 42.7306 21.78 43.4106 21.78C44.7306 21.78 45.6306 21.04 45.6306 19.88C45.6306 18.76 44.8906 18.04 43.5106 18.04C42.9506 18.04 42.4306 18.24 41.7906 18.56C41.2906 18.82 40.8506 19.04 39.9306 18.94L39.6506 18.9C38.5306 18.78 38.0106 18.14 38.2106 17L39.0106 12.06C39.1706 11.02 39.8106 10.52 40.8306 10.52H47.0306C48.1306 10.52 48.7106 11.12 48.7106 12.22V12.4C48.7106 13.5 48.1306 14.1 47.0306 14.1H42.3306L41.9706 16.04C42.7506 15.68 43.6106 15.48 44.4706 15.48C47.5106 15.48 49.5306 17.26 49.5306 20.1C49.5306 23.14 47.0506 25.16 43.6106 25.16ZM57.1109 25.16C53.9309 25.16 51.0309 23.98 51.0309 21.06C51.0309 19.46 51.9909 18.34 53.5109 17.8C52.0309 17.24 51.2509 16.12 51.2509 14.52C51.2509 11.62 53.9909 10.42 57.1309 10.42C60.2709 10.42 62.9909 11.62 62.9909 14.52C62.9909 16.12 62.2109 17.24 60.7309 17.8C62.2509 18.34 63.1909 19.46 63.1909 21.06C63.1909 24 60.2909 25.16 57.1109 25.16ZM57.1109 16.42C58.3109 16.42 59.1709 15.9 59.1709 14.96C59.1709 14.02 58.3309 13.52 57.1109 13.52C55.8709 13.52 55.0509 14.02 55.0509 14.96C55.0509 15.9 55.8709 16.42 57.1109 16.42ZM57.0909 22.12C58.3509 22.12 59.2109 21.6 59.2109 20.66C59.2109 19.7 58.3509 19.2 57.1109 19.2C55.8309 19.2 54.9709 19.7 54.9709 20.66C54.9709 21.6 55.8309 22.12 57.0909 22.12Z" fill="url(#paint1_linear_315_677)"/>
<defs>
<linearGradient id="paint0_linear_315_677" x1="14" y1="4.5" x2="14" y2="30.5" gradientUnits="userSpaceOnUse">
<stop stop-color="#FFA3D5" stop-opacity="0.9"/>
<stop offset="0.578528" stop-color="#E63C99"/>
<stop offset="1" stop-color="#CB1679"/>
</linearGradient>
<linearGradient id="paint1_linear_315_677" x1="55.5" y1="11.5" x2="55" y2="23.5" gradientUnits="userSpaceOnUse">
<stop stop-color="#F991CA"/>
<stop offset="0.567708" stop-color="#E63D9A"/>
<stop offset="0.911458" stop-color="#DF1E88"/>
</linearGradient>
</defs>
</svg>
