<svg width="36" height="36" viewBox="0 0 36 36" fill="none" xmlns="http://www.w3.org/2000/svg">
<mask id="path-1-inside-1_317_1067" fill="white">
<path fill-rule="evenodd" clip-rule="evenodd" d="M18 36C27.9411 36 36 27.9411 36 18C36 8.05887 27.9411 0 18 0C8.05887 0 0 8.05887 0 18C0 27.9411 8.05887 36 18 36ZM11.008 24.576C10.096 25.92 10.672 27 12.28 27H13.504C14.608 27 15.328 26.52 15.88 25.584L18.136 21.84L20.416 25.584C20.992 26.52 21.664 27 22.792 27H24.04C25.624 27 26.224 25.92 25.312 24.552L20.848 17.784L24.712 12.072C25.624 10.728 25.048 9.624 23.392 9.624H22.12C20.992 9.624 20.368 10.104 19.744 11.112L18.136 13.704L16.48 10.968C15.952 10.08 15.28 9.624 14.176 9.624H12.88C11.248 9.624 10.672 10.728 11.608 12.072L15.448 17.808L11.008 24.576Z"/>
</mask>
<path fill-rule="evenodd" clip-rule="evenodd" d="M18 36C27.9411 36 36 27.9411 36 18C36 8.05887 27.9411 0 18 0C8.05887 0 0 8.05887 0 18C0 27.9411 8.05887 36 18 36ZM11.008 24.576C10.096 25.92 10.672 27 12.28 27H13.504C14.608 27 15.328 26.52 15.88 25.584L18.136 21.84L20.416 25.584C20.992 26.52 21.664 27 22.792 27H24.04C25.624 27 26.224 25.92 25.312 24.552L20.848 17.784L24.712 12.072C25.624 10.728 25.048 9.624 23.392 9.624H22.12C20.992 9.624 20.368 10.104 19.744 11.112L18.136 13.704L16.48 10.968C15.952 10.08 15.28 9.624 14.176 9.624H12.88C11.248 9.624 10.672 10.728 11.608 12.072L15.448 17.808L11.008 24.576Z" fill="url(#paint0_linear_317_1067)"/>
<path d="M11.008 24.576L12.663 25.699L12.6717 25.6861L12.6803 25.6731L11.008 24.576ZM15.88 25.584L14.167 24.5518L14.1621 24.5599L14.1573 24.568L15.88 25.584ZM18.136 21.84L19.8442 20.7998L18.1269 17.9799L16.423 20.8078L18.136 21.84ZM20.416 25.584L18.7078 26.6243L18.7127 26.6322L20.416 25.584ZM25.312 24.552L23.6424 25.6532L23.6479 25.6614L25.312 24.552ZM20.848 17.784L19.1914 16.6634L18.4429 17.77L19.1785 18.8852L20.848 17.784ZM24.712 12.072L23.057 10.949L23.0554 10.9514L24.712 12.072ZM19.744 11.112L21.4435 12.1663L21.4445 12.1647L19.744 11.112ZM18.136 13.704L16.425 14.7396L18.115 17.5317L19.8355 14.7583L18.136 13.704ZM16.48 10.968L14.7609 11.9901L14.7649 11.9969L14.769 12.0036L16.48 10.968ZM11.608 12.072L13.27 10.9594L13.2597 10.9441L13.2492 10.929L11.608 12.072ZM15.448 17.808L17.1203 18.9051L17.8473 17.7968L17.11 16.6954L15.448 17.808ZM34 18C34 26.8366 26.8366 34 18 34V38C29.0457 38 38 29.0457 38 18H34ZM18 2C26.8366 2 34 9.16344 34 18H38C38 6.9543 29.0457 -2 18 -2V2ZM2 18C2 9.16344 9.16344 2 18 2V-2C6.9543 -2 -2 6.9543 -2 18H2ZM18 34C9.16344 34 2 26.8366 2 18H-2C-2 29.0457 6.9543 38 18 38V34ZM12.28 25C12.0906 25 12.0528 24.9668 12.1101 24.9931C12.1815 25.0259 12.3481 25.1316 12.468 25.359C12.5879 25.5862 12.5803 25.7817 12.5678 25.8555C12.5579 25.9143 12.5534 25.8604 12.663 25.699L9.35305 23.453C8.69592 24.4214 8.20686 25.8539 8.92995 27.225C9.65406 28.598 11.1136 29 12.28 29V25ZM13.504 25H12.28V29H13.504V25ZM14.1573 24.568C13.9973 24.8393 13.8888 24.9164 13.8545 24.9374C13.833 24.9506 13.7523 25 13.504 25V29C14.3597 29 15.191 28.8094 15.9435 28.3486C16.6832 27.8956 17.2107 27.2647 17.6027 26.6L14.1573 24.568ZM16.423 20.8078L14.167 24.5518L17.593 26.6162L19.849 22.8722L16.423 20.8078ZM22.1242 24.5438L19.8442 20.7998L16.4278 22.8802L18.7078 26.6242L22.1242 24.5438ZM22.792 25C22.5283 25 22.4605 24.9492 22.4534 24.9448C22.4243 24.9266 22.3104 24.8464 22.1193 24.5358L18.7127 26.6322C19.0976 27.2576 19.6077 27.8854 20.3406 28.3412C21.0955 28.8108 21.9277 29 22.792 29V25ZM24.04 25H22.792V29H24.04V25ZM23.6479 25.6614C23.7584 25.8272 23.755 25.8845 23.7462 25.8294C23.7349 25.7595 23.7288 25.5711 23.8453 25.3516C23.9618 25.132 24.123 25.0283 24.1947 24.9951C24.2529 24.9681 24.2194 25 24.04 25V29C25.2076 29 26.655 28.5903 27.3787 27.2264C28.1016 25.864 27.6344 24.43 26.9761 23.4426L23.6479 25.6614ZM19.1785 18.8852L23.6425 25.6532L26.9815 23.4508L22.5175 16.6828L19.1785 18.8852ZM23.0554 10.9514L19.1914 16.6634L22.5046 18.9046L26.3686 13.1926L23.0554 10.9514ZM23.392 11.624C23.595 11.624 23.6435 11.6592 23.5943 11.6368C23.5313 11.608 23.3692 11.508 23.2506 11.2858C23.1319 11.0633 23.1379 10.8704 23.1502 10.7962C23.1599 10.7371 23.165 10.79 23.057 10.949L26.367 13.195C27.0285 12.2201 27.5136 10.7777 26.7794 9.4022C26.0465 8.0292 24.5789 7.624 23.392 7.624V11.624ZM22.12 11.624H23.392V7.624H22.12V11.624ZM21.4445 12.1647C21.6865 11.7739 21.8138 11.6795 21.84 11.6623C21.8472 11.6575 21.8545 11.653 21.8779 11.6467C21.9068 11.639 21.9795 11.624 22.12 11.624V7.624C21.2498 7.624 20.4104 7.81626 19.646 8.31771C18.9222 8.79248 18.4255 9.44213 18.0435 10.0593L21.4445 12.1647ZM19.8355 14.7583L21.4435 12.1663L18.0445 10.0577L16.4365 12.6497L19.8355 14.7583ZM14.769 12.0036L16.425 14.7396L19.847 12.6684L18.191 9.93239L14.769 12.0036ZM14.176 11.624C14.3147 11.624 14.3982 11.6383 14.4424 11.6494C14.4833 11.6596 14.5008 11.6694 14.5089 11.6743C14.5193 11.6806 14.6091 11.7348 14.7609 11.9901L18.1991 9.94585C17.8229 9.31317 17.3127 8.69541 16.5791 8.25168C15.834 7.80101 15.0145 7.624 14.176 7.624V11.624ZM12.88 11.624H14.176V7.624H12.88V11.624ZM13.2492 10.929C13.1371 10.7681 13.141 10.7133 13.1514 10.7716C13.1644 10.8448 13.1735 11.0398 13.0552 11.2671C12.9368 11.4947 12.7712 11.6001 12.7015 11.6324C12.6458 11.6582 12.6862 11.624 12.88 11.624V7.624C11.6985 7.624 10.228 8.03468 9.50676 9.42092C8.78653 10.8053 9.29134 12.2451 9.96679 13.215L13.2492 10.929ZM17.11 16.6954L13.27 10.9594L9.94604 13.1846L13.786 18.9206L17.11 16.6954ZM12.6803 25.6731L17.1203 18.9051L13.7757 16.7109L9.33573 23.4789L12.6803 25.6731Z" fill="black" mask="url(#path-1-inside-1_317_1067)"/>
<defs>
<linearGradient id="paint0_linear_317_1067" x1="18" y1="0" x2="18" y2="36" gradientUnits="userSpaceOnUse">
<stop stop-color="white"/>
<stop offset="1" stop-color="white"/>
</linearGradient>
</defs>
</svg>
