<svg width="104" height="32" viewBox="0 0 104 32" fill="none" xmlns="http://www.w3.org/2000/svg">
<path d="M7.19594 25C6.16394 25 5.61194 24.448 5.61194 23.416V9.232C5.61194 8.2 6.16394 7.624 7.19594 7.624H10.6759C16.7239 7.624 19.0279 9.52 19.0279 14.056C19.0279 18.592 16.7239 20.416 10.6999 20.416H9.40394V23.416C9.40394 24.448 8.82794 25 7.79594 25H7.19594ZM11.2999 17.104C13.9639 17.104 15.1639 16.24 15.1639 13.984C15.1639 11.776 13.9639 10.936 11.2999 10.936H9.40394V17.104H11.2999ZM34.8591 23.176C35.3151 24.256 34.7871 25 33.6351 25H32.9631C32.0511 25 31.4751 24.592 31.1391 23.704L30.5151 22H23.0031L22.4031 23.704C22.0911 24.592 21.4911 25 20.5791 25H19.9311C18.7551 25 18.2271 24.256 18.6831 23.176L24.3471 8.896C24.6831 8.032 25.2831 7.624 26.1951 7.624H27.3231C28.2351 7.624 28.8351 8.032 29.1711 8.896L34.8591 23.176ZM29.4831 19.192L26.7471 11.776L24.0351 19.192H29.4831ZM43.6534 25.216C38.7574 25.216 36.3094 22.624 36.3094 16.936V9.232C36.3094 8.2 36.8614 7.624 37.8934 7.624H38.4934C39.5254 7.624 40.1014 8.2 40.1014 9.232V16.912C40.1014 20.416 41.1814 21.832 43.6534 21.832C46.1494 21.832 47.2294 20.416 47.2294 16.936V9.232C47.2294 8.2 47.8054 7.624 48.8374 7.624H49.4374C50.4694 7.624 51.0454 8.2 51.0454 9.232V16.96C51.0454 22.576 48.5734 25.216 43.6534 25.216ZM60.6014 25.216C57.6254 25.216 54.9854 23.92 53.7854 22C53.2334 21.064 53.5454 20.368 54.6014 20.032L54.9374 19.936C55.7774 19.648 56.2574 19.912 56.9294 20.656C57.8894 21.664 59.1134 22.216 60.5534 22.216C62.4014 22.216 63.4814 21.448 63.4814 20.152C63.4814 16.768 53.9534 18.976 53.9534 12.472C53.9534 9.448 56.5214 7.432 60.1934 7.432C62.9294 7.432 65.4014 8.512 66.4814 10.264C67.1294 11.272 66.8414 12.016 65.7374 12.28L65.3294 12.376C64.2974 12.616 63.8894 12.184 63.1694 11.56C62.3534 10.816 61.5134 10.456 60.3614 10.456C58.7054 10.456 57.6734 11.176 57.6734 12.376C57.6734 16.048 67.2734 13.504 67.2734 20.056C67.2734 23.176 64.5374 25.216 60.6014 25.216ZM71.3913 25C70.3593 25 69.8073 24.448 69.8073 23.416V9.232C69.8073 8.2 70.3593 7.624 71.3913 7.624H79.6953C80.7273 7.624 81.2793 8.2 81.2793 9.232V9.424C81.2793 10.456 80.7273 11.008 79.6953 11.008H73.5753V14.776H79.2633C80.2953 14.776 80.8473 15.304 80.8473 16.24V16.264C80.8473 17.2 80.2953 17.728 79.2633 17.728H73.5753V21.64H79.6953C80.7273 21.64 81.2793 22.216 81.2793 23.248V23.416C81.2793 24.448 80.7273 25 79.6953 25H71.3913ZM85.8522 25C84.8202 25 84.2682 24.448 84.2682 23.416V9.232C84.2682 8.2 84.8202 7.624 85.8522 7.624H89.2122C96.2442 7.624 98.9802 10.624 98.9802 16.336C98.9802 21.976 96.2442 25 89.2122 25H85.8522ZM89.3562 21.64C93.7482 21.64 95.1642 19.912 95.1642 16.288C95.1642 12.712 93.7482 10.984 89.3322 10.984H88.0362V21.64H89.3562Z" fill="white"/>
<path d="M9.40394 20.416V17.416C7.74708 17.416 6.40394 18.7591 6.40394 20.416H9.40394ZM9.40394 10.936V7.936C7.74708 7.936 6.40394 9.27915 6.40394 10.936H9.40394ZM9.40394 17.104H6.40394C6.40394 18.7609 7.74708 20.104 9.40394 20.104V17.104ZM7.19594 22C7.19894 22 7.3118 21.9997 7.49087 22.0614C7.68152 22.1272 7.91912 22.2545 8.13826 22.4737C8.35739 22.6928 8.48476 22.9304 8.55049 23.1211C8.61223 23.3001 8.61194 23.413 8.61194 23.416H2.61194C2.61194 24.4458 2.89391 25.7146 3.89562 26.7163C4.89733 27.718 6.16617 28 7.19594 28V22ZM8.61194 23.416V9.232H2.61194V23.416H8.61194ZM8.61194 9.232C8.61194 9.23548 8.61209 9.34251 8.55388 9.51329C8.49222 9.69419 8.37191 9.92368 8.1617 10.1386C7.70557 10.605 7.22771 10.624 7.19594 10.624V4.624C6.13216 4.624 4.86231 4.931 3.87218 5.94338C2.89268 6.94489 2.61194 8.20321 2.61194 9.232H8.61194ZM7.19594 10.624H10.6759V4.624H7.19594V10.624ZM10.6759 10.624C13.5286 10.624 14.7588 11.1012 15.2726 11.5027C15.5912 11.7517 16.0279 12.2746 16.0279 14.056H22.0279C22.0279 11.3014 21.3127 8.60827 18.9673 6.77525C16.8171 5.09482 13.8713 4.624 10.6759 4.624V10.624ZM16.0279 14.056C16.0279 15.837 15.5921 16.3295 15.293 16.5597C14.7837 16.9518 13.5574 17.416 10.6999 17.416V23.416C13.8665 23.416 16.8042 22.9682 18.9528 21.3143C21.3118 19.4985 22.0279 16.811 22.0279 14.056H16.0279ZM10.6999 17.416H9.40394V23.416H10.6999V17.416ZM6.40394 20.416V23.416H12.4039V20.416H6.40394ZM6.40394 23.416C6.40394 23.3842 6.42294 22.9064 6.88932 22.4502C7.10425 22.24 7.33375 22.1197 7.51465 22.0581C7.68543 21.9998 7.79245 22 7.79594 22V28C8.82473 28 10.083 27.7193 11.0846 26.7398C12.0969 25.7496 12.4039 24.4798 12.4039 23.416H6.40394ZM7.79594 22H7.19594V28H7.79594V22ZM11.2999 20.104C12.8263 20.104 14.6422 19.8836 16.0859 18.7478C17.7064 17.4729 18.1639 15.6325 18.1639 13.984H12.1639C12.1639 14.2966 12.1204 14.3834 12.137 14.3405C12.1664 14.2646 12.2468 14.1339 12.376 14.0322C12.4825 13.9484 12.5109 13.9728 12.3312 14.0157C12.144 14.0604 11.8189 14.104 11.2999 14.104V20.104ZM18.1639 13.984C18.1639 12.3381 17.6931 10.5079 16.0579 9.25245C14.6181 8.147 12.8144 7.936 11.2999 7.936V13.936C11.8233 13.936 12.1544 13.9788 12.3482 14.0238C12.5359 14.0675 12.5111 14.0938 12.404 14.0115C12.3492 13.9695 12.2909 13.9124 12.2391 13.8431C12.1879 13.7745 12.1592 13.7153 12.1455 13.6807C12.122 13.6213 12.1639 13.6894 12.1639 13.984H18.1639ZM11.2999 7.936H9.40394V13.936H11.2999V7.936ZM6.40394 10.936V17.104H12.4039V10.936H6.40394ZM9.40394 20.104H11.2999V14.104H9.40394V20.104ZM34.8591 23.176L32.0721 24.2861C32.0797 24.3051 32.0874 24.3241 32.0954 24.3429L34.8591 23.176ZM31.1391 23.704L28.3221 24.7356C28.3257 24.7456 28.3295 24.7557 28.3333 24.7657L31.1391 23.704ZM30.5151 22L33.3322 20.9684C32.8992 19.7861 31.7742 19 30.5151 19V22ZM23.0031 22V19C21.7304 19 20.5961 19.8031 20.1734 21.0036L23.0031 22ZM22.4031 23.704L19.5734 22.7076L19.5727 22.7095L22.4031 23.704ZM18.6831 23.176L21.4469 24.3429C21.4554 24.3227 21.4637 24.3025 21.4718 24.2821L18.6831 23.176ZM24.3471 8.896L27.1358 10.0021C27.1383 9.99585 27.1407 9.9896 27.1431 9.98334L24.3471 8.896ZM29.1711 8.896L26.3751 9.98334C26.3781 9.99095 26.3811 9.99855 26.3841 10.0061L29.1711 8.896ZM29.4831 19.192V22.192C30.4642 22.192 31.3834 21.7123 31.9443 20.9074C32.5053 20.1024 32.6373 19.0741 32.2977 18.1536L29.4831 19.192ZM26.7471 11.776L29.5617 10.7376C29.1263 9.55742 28.0008 8.77421 26.7428 8.776C25.4849 8.7778 24.3617 9.56421 23.9296 10.7456L26.7471 11.776ZM24.0351 19.192L21.2176 18.1616C20.8812 19.0817 21.0151 20.108 21.5764 20.9109C22.1376 21.7137 23.0555 22.192 24.0351 22.192V19.192ZM32.0954 24.3429C32.0877 24.3248 31.8168 23.616 32.3719 22.8023C32.6267 22.4288 32.9503 22.213 33.2058 22.1047C33.4467 22.0026 33.6111 22 33.6351 22V28C34.7871 28 36.3511 27.6161 37.3283 26.1837C38.3215 24.728 38.0865 23.1072 37.6229 22.0091L32.0954 24.3429ZM33.6351 22H32.9631V28H33.6351V22ZM32.9631 22C32.9626 22 33.2435 22.0057 33.5719 22.2389C33.8896 22.4644 33.9676 22.702 33.945 22.6423L28.3333 24.7657C28.6467 25.594 29.1807 26.4796 30.0984 27.1311C31.0268 27.7903 32.0517 28 32.9631 28V22ZM33.9562 22.6724L33.3322 20.9684L27.6981 23.0316L28.3221 24.7356L33.9562 22.6724ZM30.5151 19H23.0031V25H30.5151V19ZM20.1734 21.0036L19.5734 22.7076L25.2328 24.7004L25.8328 22.9964L20.1734 21.0036ZM19.5727 22.7095C19.5703 22.7164 19.6642 22.4604 19.9908 22.2307C20.3149 22.0029 20.5854 22 20.5791 22V28C21.4848 28 22.5113 27.7931 23.4414 27.1393C24.3741 26.4836 24.9239 25.5796 25.2335 24.6985L19.5727 22.7095ZM20.5791 22H19.9311V28H20.5791V22ZM19.9311 22C19.9419 22 20.0964 22.0004 20.3304 22.0979C20.5789 22.2016 20.9039 22.4125 21.1625 22.7866C21.7295 23.6063 21.4539 24.3262 21.4469 24.3429L15.9194 22.0091C15.4563 23.1058 15.2168 24.7377 16.2277 26.1994C17.2164 27.629 18.7875 28 19.9311 28V22ZM21.4718 24.2821L27.1358 10.0021L21.5585 7.78991L15.8945 22.0699L21.4718 24.2821ZM27.1431 9.98334C27.1486 9.96934 27.0575 10.2003 26.7527 10.4095C26.4466 10.6196 26.1928 10.624 26.1951 10.624V4.624C25.2855 4.624 24.2757 4.8324 23.3576 5.46246C22.4407 6.09167 21.8817 6.95866 21.5511 7.80866L27.1431 9.98334ZM26.1951 10.624H27.3231V4.624H26.1951V10.624ZM27.3231 10.624C27.3255 10.624 27.0717 10.6196 26.7656 10.4095C26.4607 10.2003 26.3697 9.96934 26.3751 9.98334L31.9671 7.80866C31.6366 6.95866 31.0775 6.09167 30.1607 5.46246C29.2426 4.8324 28.2328 4.624 27.3231 4.624V10.624ZM26.3841 10.0061L32.0721 24.2861L37.6462 22.0659L31.9582 7.78587L26.3841 10.0061ZM32.2977 18.1536L29.5617 10.7376L23.9326 12.8144L26.6686 20.2304L32.2977 18.1536ZM23.9296 10.7456L21.2176 18.1616L26.8526 20.2224L29.5646 12.8064L23.9296 10.7456ZM24.0351 22.192H29.4831V16.192H24.0351V22.192ZM43.6534 22.216C41.7155 22.216 40.8362 21.7138 40.3746 21.2013C39.8548 20.6241 39.3094 19.4227 39.3094 16.936H33.3094C33.3094 20.1373 33.9881 23.0759 35.9163 25.2167C37.9027 27.4222 40.6953 28.216 43.6534 28.216V22.216ZM39.3094 16.936V9.232H33.3094V16.936H39.3094ZM39.3094 9.232C39.3094 9.23548 39.3096 9.34251 39.2514 9.51329C39.1897 9.69419 39.0694 9.92368 38.8592 10.1386C38.4031 10.605 37.9252 10.624 37.8934 10.624V4.624C36.8297 4.624 35.5598 4.931 34.5697 5.94338C33.5902 6.94489 33.3094 8.20321 33.3094 9.232H39.3094ZM37.8934 10.624H38.4934V4.624H37.8934V10.624ZM38.4934 10.624C38.4632 10.624 38.0074 10.6067 37.5631 10.1623C37.1188 9.71799 37.1014 9.26226 37.1014 9.232H43.1014C43.1014 8.16974 42.7961 6.91001 41.8058 5.91968C40.8154 4.92935 39.5557 4.624 38.4934 4.624V10.624ZM37.1014 9.232V16.912H43.1014V9.232H37.1014ZM37.1014 16.912C37.1014 18.8399 37.3715 20.8738 38.5286 22.4565C39.8542 24.2697 41.8165 24.832 43.6534 24.832V18.832C43.309 18.832 43.1955 18.781 43.2119 18.7878C43.2617 18.8086 43.3349 18.8643 43.3723 18.9155C43.3892 18.9386 43.3129 18.8458 43.2365 18.5043C43.1595 18.16 43.1014 17.648 43.1014 16.912H37.1014ZM43.6534 24.832C45.4918 24.832 47.459 24.2766 48.7917 22.4698C49.9588 20.8876 50.2294 18.8542 50.2294 16.936H44.2294C44.2294 17.6651 44.1715 18.1706 44.0951 18.5094C44.0195 18.8447 43.9446 18.9334 43.9632 18.9081C44.0021 18.8554 44.0745 18.8024 44.1182 18.7843C44.1283 18.7801 44.0069 18.832 43.6534 18.832V24.832ZM50.2294 16.936V9.232H44.2294V16.936H50.2294ZM50.2294 9.232C50.2294 9.26226 50.2121 9.71799 49.7678 10.1623C49.3234 10.6066 48.8677 10.624 48.8374 10.624V4.624C47.7752 4.624 46.5154 4.92935 45.5251 5.91968C44.5348 6.91001 44.2294 8.16974 44.2294 9.232H50.2294ZM48.8374 10.624H49.4374V4.624H48.8374V10.624ZM49.4374 10.624C49.4072 10.624 48.9515 10.6067 48.5071 10.1623C48.0628 9.71799 48.0454 9.26226 48.0454 9.232H54.0454C54.0454 8.16974 53.7401 6.91001 52.7498 5.91968C51.7594 4.92935 50.4997 4.624 49.4374 4.624V10.624ZM48.0454 9.232V16.96H54.0454V9.232H48.0454ZM48.0454 16.96C48.0454 19.3951 47.501 20.5945 46.9704 21.1806C46.4937 21.7072 45.593 22.216 43.6534 22.216V28.216C46.6339 28.216 49.4291 27.4048 51.4185 25.2074C53.3539 23.0695 54.0454 20.1409 54.0454 16.96H48.0454ZM53.7854 22L51.2013 23.524C51.2144 23.5461 51.2277 23.5682 51.2414 23.59L53.7854 22ZM54.6014 20.032L53.7772 17.1474C53.7486 17.1556 53.7201 17.1642 53.6918 17.1732L54.6014 20.032ZM54.9374 19.936L55.7615 22.8206C55.8115 22.8063 55.8612 22.7907 55.9103 22.7738L54.9374 19.936ZM56.9294 20.656L54.7031 22.6669C54.7208 22.6865 54.7387 22.7058 54.757 22.725L56.9294 20.656ZM66.4814 10.264L63.9276 11.8382C63.9375 11.8543 63.9476 11.8704 63.9578 11.8863L66.4814 10.264ZM65.7374 12.28L66.4245 15.2003L66.4351 15.1977L65.7374 12.28ZM65.3294 12.376L66.0089 15.298L66.0165 15.2963L65.3294 12.376ZM63.1694 11.56L61.1481 13.7769C61.1667 13.7938 61.1856 13.8106 61.2046 13.8271L63.1694 11.56ZM60.6014 22.216C58.3661 22.216 56.8418 21.2298 56.3294 20.41L51.2414 23.59C53.129 26.6102 56.8846 28.216 60.6014 28.216V22.216ZM56.3695 20.476C56.37 20.4769 56.4536 20.6155 56.4949 20.8776C56.5401 21.1641 56.5253 21.5536 56.3529 21.9607C56.007 22.7778 55.3805 22.9323 55.511 22.8908L53.6918 17.1732C52.7662 17.4677 51.4558 18.1382 50.8278 19.6213C50.1728 21.1682 50.6658 22.616 51.2013 23.524L56.3695 20.476ZM55.4255 22.9166L55.7615 22.8206L54.1132 17.0514L53.7772 17.1474L55.4255 22.9166ZM55.9103 22.7738C55.9096 22.7741 55.7875 22.8166 55.5798 22.8215C55.3515 22.827 55.1095 22.7849 54.8869 22.6963C54.6828 22.615 54.5689 22.524 54.553 22.511C54.5431 22.5029 54.5862 22.5375 54.7031 22.6669L59.1557 18.6451C58.763 18.2104 58.0897 17.5133 57.1059 17.1217C55.9532 16.6629 54.8561 16.7924 53.9644 17.0982L55.9103 22.7738ZM54.757 22.725C56.2652 24.3086 58.2666 25.216 60.5534 25.216V19.216C59.9602 19.216 59.5136 19.0194 59.1018 18.587L54.757 22.725ZM60.5534 25.216C61.8346 25.216 63.2552 24.9584 64.4416 24.1201C65.7558 23.1915 66.4814 21.7526 66.4814 20.152H60.4814C60.4814 20.0508 60.5051 19.8657 60.6132 19.6545C60.722 19.4418 60.8672 19.2991 60.9792 19.2199C61.081 19.148 61.1238 19.1497 61.048 19.1691C60.9725 19.1884 60.8136 19.216 60.5534 19.216V25.216ZM66.4814 20.152C66.4814 18.9265 66.0139 17.8639 65.2542 17.0586C64.5767 16.3403 63.762 15.9251 63.142 15.6679C62.5032 15.4029 61.8221 15.2078 61.246 15.0528C60.5952 14.8777 60.1182 14.763 59.5454 14.5985C58.4197 14.2753 57.7621 13.9752 57.3869 13.6557C57.1737 13.4742 56.9534 13.2327 56.9534 12.472H50.9534C50.9534 14.9633 51.924 16.8848 53.4973 18.2243C54.9087 19.4258 56.633 20.0047 57.8894 20.3655C58.5075 20.543 59.2216 20.7215 59.6873 20.8468C60.2278 20.9922 60.5888 21.1046 60.8432 21.2101C61.1165 21.3234 61.0462 21.3417 60.8897 21.1758C60.6511 20.9228 60.4814 20.5315 60.4814 20.152H66.4814ZM56.9534 12.472C56.9534 11.889 57.1673 11.4836 57.572 11.1594C58.0301 10.7924 58.8824 10.432 60.1934 10.432V4.432C57.8323 4.432 55.5647 5.0796 53.8207 6.47664C52.0235 7.91639 50.9534 10.031 50.9534 12.472H56.9534ZM60.1934 10.432C62.3291 10.432 63.5909 11.292 63.9276 11.8382L69.0351 8.68976C67.2119 5.73204 63.5297 4.432 60.1934 4.432V10.432ZM63.9578 11.8863C64.057 12.0406 63.6041 11.4423 63.9564 10.5003C64.13 10.0359 64.4256 9.72602 64.6698 9.55202C64.7846 9.47024 64.8813 9.4226 64.9423 9.39674C65.0033 9.37087 65.0389 9.36245 65.0397 9.36226L66.4351 15.1977C67.4513 14.9547 68.9481 14.2821 69.5764 12.6017C70.1866 10.9697 69.5537 9.49542 69.0049 8.64173L63.9578 11.8863ZM65.0503 9.35975L64.6423 9.45575L66.0165 15.2963L66.4245 15.2003L65.0503 9.35975ZM64.6498 9.45397C64.6264 9.45942 64.7281 9.4327 64.9112 9.44822C65.0025 9.45597 65.0996 9.47305 65.1978 9.50079C65.2954 9.52837 65.3783 9.56199 65.4437 9.59376C65.5645 9.6525 65.6099 9.69811 65.5396 9.64189C65.5066 9.6155 65.4615 9.57769 65.3902 9.51601C65.3551 9.4856 65.3184 9.45351 65.2747 9.41535C65.2326 9.37858 65.1844 9.33645 65.1342 9.29293L61.2046 13.8271C61.3871 13.9853 62.0481 14.6146 62.8211 14.9902C63.8608 15.4955 64.9407 15.5464 66.0089 15.298L64.6498 9.45397ZM65.1906 9.34313C63.8607 8.13052 62.3119 7.456 60.3614 7.456V13.456C60.6124 13.456 60.7233 13.4928 60.774 13.5132C60.8297 13.5355 60.9454 13.592 61.1481 13.7769L65.1906 9.34313ZM60.3614 7.456C59.1505 7.456 57.7979 7.71207 56.6601 8.51948C55.4096 9.40694 54.6734 10.7951 54.6734 12.376H60.6734C60.6734 12.5163 60.6402 12.7263 60.5232 12.9518C60.4067 13.1763 60.2534 13.3268 60.1326 13.4125C59.9249 13.5599 59.9162 13.456 60.3614 13.456V7.456ZM54.6734 12.376C54.6734 13.5705 55.0936 14.6427 55.8459 15.4871C56.5263 16.2509 57.357 16.6931 58.0058 16.9672C59.1592 17.4545 60.8329 17.8027 61.6981 18.0341C62.8503 18.3423 63.5016 18.6241 63.8677 18.9252C64.0542 19.0786 64.2734 19.288 64.2734 20.056H70.2734C70.2734 17.548 69.2926 15.6184 67.6791 14.2913C66.2451 13.1119 64.4964 12.5717 63.2486 12.2379C61.7138 11.8273 60.9875 11.7134 60.3409 11.4403C60.0898 11.3342 60.1705 11.3215 60.3259 11.496C60.5531 11.751 60.6734 12.0995 60.6734 12.376H54.6734ZM64.2734 20.056C64.2734 20.6437 64.0554 21.0676 63.5901 21.4236C63.0595 21.8297 62.0823 22.216 60.6014 22.216V28.216C63.0564 28.216 65.4153 27.5823 67.2366 26.1884C69.1234 24.7444 70.2734 22.5883 70.2734 20.056H64.2734ZM73.5752 11.008V8.008C71.9184 8.008 70.5752 9.35115 70.5752 11.008H73.5752ZM73.5752 14.776H70.5752C70.5752 16.4329 71.9184 17.776 73.5752 17.776V14.776ZM73.5752 17.728V14.728C71.9184 14.728 70.5752 16.0711 70.5752 17.728H73.5752ZM73.5752 21.64H70.5752C70.5752 23.2969 71.9184 24.64 73.5752 24.64V21.64ZM71.3913 22C71.3942 22 71.5071 21.9997 71.6862 22.0614C71.8768 22.1272 72.1144 22.2545 72.3336 22.4737C72.5527 22.6928 72.6801 22.9304 72.7458 23.1211C72.8075 23.3001 72.8073 23.413 72.8073 23.416H66.8073C66.8073 24.4458 67.0892 25.7146 68.0909 26.7163C69.0926 27.718 70.3615 28 71.3913 28V22ZM72.8073 23.416V9.232H66.8073V23.416H72.8073ZM72.8073 9.232C72.8073 9.23548 72.8074 9.34251 72.7492 9.51329C72.6875 9.69419 72.5672 9.92368 72.357 10.1386C71.9009 10.605 71.423 10.624 71.3913 10.624V4.624C70.3275 4.624 69.0576 4.931 68.0675 5.94338C67.088 6.94489 66.8073 8.20321 66.8073 9.232H72.8073ZM71.3913 10.624H79.6953V4.624H71.3913V10.624ZM79.6953 10.624C79.6635 10.624 79.1856 10.605 78.7295 10.1386C78.5193 9.92368 78.399 9.69419 78.3373 9.51329C78.2791 9.34251 78.2793 9.23548 78.2793 9.232H84.2793C84.2793 8.20321 83.9985 6.94489 83.019 5.94338C82.0289 4.931 80.759 4.624 79.6953 4.624V10.624ZM78.2793 9.232V9.424H84.2793V9.232H78.2793ZM78.2793 9.424C78.2793 9.421 78.279 9.30814 78.3407 9.12907C78.4064 8.93842 78.5338 8.70082 78.7529 8.48168C78.9721 8.26254 79.2097 8.13518 79.4003 8.06945C79.5794 8.00771 79.6923 8.008 79.6953 8.008V14.008C80.725 14.008 81.9939 13.726 82.9956 12.7243C83.9973 11.7226 84.2793 10.4538 84.2793 9.424H78.2793ZM79.6953 8.008H73.5752V14.008H79.6953V8.008ZM70.5752 11.008V14.776H76.5752V11.008H70.5752ZM73.5752 17.776H79.2633V11.776H73.5752V17.776ZM79.2633 17.776C79.2991 17.776 78.8598 17.7833 78.3962 17.351C77.9 16.8883 77.8473 16.3657 77.8473 16.24H83.8473C83.8473 15.1783 83.5185 13.9237 82.4883 12.963C81.4907 12.0327 80.2594 11.776 79.2633 11.776V17.776ZM77.8473 16.24V16.264H83.8473V16.24H77.8473ZM77.8473 16.264C77.8473 16.1383 77.9 15.6157 78.3962 15.153C78.8598 14.7207 79.2991 14.728 79.2633 14.728V20.728C80.2594 20.728 81.4907 20.4713 82.4883 19.541C83.5185 18.5803 83.8473 17.3257 83.8473 16.264H77.8473ZM79.2633 14.728H73.5752V20.728H79.2633V14.728ZM70.5752 17.728V21.64H76.5752V17.728H70.5752ZM73.5752 24.64H79.6953V18.64H73.5752V24.64ZM79.6953 24.64C79.6635 24.64 79.1856 24.621 78.7295 24.1546C78.5193 23.9397 78.399 23.7102 78.3373 23.5293C78.2791 23.3585 78.2793 23.2515 78.2793 23.248H84.2793C84.2793 22.2192 83.9985 20.9609 83.019 19.9594C82.0289 18.947 80.759 18.64 79.6953 18.64V24.64ZM78.2793 23.248V23.416H84.2793V23.248H78.2793ZM78.2793 23.416C78.2793 23.413 78.279 23.3001 78.3407 23.1211C78.4064 22.9304 78.5338 22.6928 78.7529 22.4737C78.9721 22.2545 79.2097 22.1272 79.4003 22.0614C79.5794 21.9997 79.6923 22 79.6953 22V28C80.725 28 81.9939 27.718 82.9956 26.7163C83.9973 25.7146 84.2793 24.4458 84.2793 23.416H78.2793ZM79.6953 22H71.3913V28H79.6953V22ZM88.0362 10.984V7.984C86.3793 7.984 85.0362 9.32714 85.0362 10.984H88.0362ZM88.0362 21.64H85.0362C85.0362 23.2969 86.3793 24.64 88.0362 24.64V21.64ZM85.8522 22C85.8552 22 85.968 21.9997 86.1471 22.0614C86.3378 22.1272 86.5754 22.2545 86.7945 22.4737C87.0136 22.6928 87.141 22.9304 87.2067 23.1211C87.2685 23.3001 87.2682 23.413 87.2682 23.416H81.2682C81.2682 24.4458 81.5502 25.7146 82.5519 26.7163C83.5536 27.718 84.8224 28 85.8522 28V22ZM87.2682 23.416V9.232H81.2682V23.416H87.2682ZM87.2682 9.232C87.2682 9.23548 87.2683 9.34251 87.2101 9.51329C87.1485 9.69419 87.0282 9.92368 86.8179 10.1386C86.3618 10.605 85.884 10.624 85.8522 10.624V4.624C84.7884 4.624 83.5186 4.931 82.5284 5.94338C81.5489 6.94489 81.2682 8.20321 81.2682 9.232H87.2682ZM85.8522 10.624H89.2122V4.624H85.8522V10.624ZM89.2122 10.624C92.3823 10.624 93.9184 11.312 94.6823 12.0275C95.4006 12.7003 95.9802 13.9123 95.9802 16.336H101.98C101.98 13.0477 101.192 9.90369 98.784 7.64847C96.4219 5.43598 93.074 4.624 89.2122 4.624V10.624ZM95.9802 16.336C95.9802 18.7138 95.4056 19.9174 94.6846 20.5914C93.9173 21.3086 92.3764 22 89.2122 22V28C93.08 28 96.4231 27.1794 98.7818 24.9746C101.187 22.7266 101.98 19.5982 101.98 16.336H95.9802ZM89.2122 22H85.8522V28H89.2122V22ZM89.3562 24.64C91.8308 24.64 94.2634 24.1745 96.007 22.4656C97.7732 20.7346 98.1642 18.3868 98.1642 16.288H92.1642C92.1642 17.8132 91.8472 18.1414 91.8073 18.1804C91.745 18.2415 91.2736 18.64 89.3562 18.64V24.64ZM98.1642 16.288C98.1642 14.2039 97.7692 11.8649 95.9932 10.1418C94.2477 8.44835 91.8159 7.984 89.3322 7.984V13.984C91.2645 13.984 91.7487 14.3837 91.8152 14.4482C91.8512 14.4831 92.1642 14.7961 92.1642 16.288H98.1642ZM89.3322 7.984H88.0362V13.984H89.3322V7.984ZM85.0362 10.984V21.64H91.0362V10.984H85.0362ZM88.0362 24.64H89.3562V18.64H88.0362V24.64Z" fill="white"/>
<path d="M7.19594 25C6.16394 25 5.61194 24.448 5.61194 23.416V9.232C5.61194 8.2 6.16394 7.624 7.19594 7.624H10.6759C16.7239 7.624 19.0279 9.52 19.0279 14.056C19.0279 18.592 16.7239 20.416 10.6999 20.416H9.40394V23.416C9.40394 24.448 8.82794 25 7.79594 25H7.19594ZM11.2999 17.104C13.9639 17.104 15.1639 16.24 15.1639 13.984C15.1639 11.776 13.9639 10.936 11.2999 10.936H9.40394V17.104H11.2999ZM34.8591 23.176C35.3151 24.256 34.7871 25 33.6351 25H32.9631C32.0511 25 31.4751 24.592 31.1391 23.704L30.5151 22H23.0031L22.4031 23.704C22.0911 24.592 21.4911 25 20.5791 25H19.9311C18.7551 25 18.2271 24.256 18.6831 23.176L24.3471 8.896C24.6831 8.032 25.2831 7.624 26.1951 7.624H27.3231C28.2351 7.624 28.8351 8.032 29.1711 8.896L34.8591 23.176ZM29.4831 19.192L26.7471 11.776L24.0351 19.192H29.4831ZM43.6534 25.216C38.7574 25.216 36.3094 22.624 36.3094 16.936V9.232C36.3094 8.2 36.8614 7.624 37.8934 7.624H38.4934C39.5254 7.624 40.1014 8.2 40.1014 9.232V16.912C40.1014 20.416 41.1814 21.832 43.6534 21.832C46.1494 21.832 47.2294 20.416 47.2294 16.936V9.232C47.2294 8.2 47.8054 7.624 48.8374 7.624H49.4374C50.4694 7.624 51.0454 8.2 51.0454 9.232V16.96C51.0454 22.576 48.5734 25.216 43.6534 25.216ZM60.6014 25.216C57.6254 25.216 54.9854 23.92 53.7854 22C53.2334 21.064 53.5454 20.368 54.6014 20.032L54.9374 19.936C55.7774 19.648 56.2574 19.912 56.9294 20.656C57.8894 21.664 59.1134 22.216 60.5534 22.216C62.4014 22.216 63.4814 21.448 63.4814 20.152C63.4814 16.768 53.9534 18.976 53.9534 12.472C53.9534 9.448 56.5214 7.432 60.1934 7.432C62.9294 7.432 65.4014 8.512 66.4814 10.264C67.1294 11.272 66.8414 12.016 65.7374 12.28L65.3294 12.376C64.2974 12.616 63.8894 12.184 63.1694 11.56C62.3534 10.816 61.5134 10.456 60.3614 10.456C58.7054 10.456 57.6734 11.176 57.6734 12.376C57.6734 16.048 67.2734 13.504 67.2734 20.056C67.2734 23.176 64.5374 25.216 60.6014 25.216ZM71.3913 25C70.3593 25 69.8073 24.448 69.8073 23.416V9.232C69.8073 8.2 70.3593 7.624 71.3913 7.624H79.6953C80.7273 7.624 81.2793 8.2 81.2793 9.232V9.424C81.2793 10.456 80.7273 11.008 79.6953 11.008H73.5753V14.776H79.2633C80.2953 14.776 80.8473 15.304 80.8473 16.24V16.264C80.8473 17.2 80.2953 17.728 79.2633 17.728H73.5753V21.64H79.6953C80.7273 21.64 81.2793 22.216 81.2793 23.248V23.416C81.2793 24.448 80.7273 25 79.6953 25H71.3913ZM85.8522 25C84.8202 25 84.2682 24.448 84.2682 23.416V9.232C84.2682 8.2 84.8202 7.624 85.8522 7.624H89.2122C96.2442 7.624 98.9802 10.624 98.9802 16.336C98.9802 21.976 96.2442 25 89.2122 25H85.8522ZM89.3562 21.64C93.7482 21.64 95.1642 19.912 95.1642 16.288C95.1642 12.712 93.7482 10.984 89.3322 10.984H88.0362V21.64H89.3562Z" fill="#E63C99"/>
</svg>
