<svg width="652" height="280" viewBox="0 0 652 280" fill="none" xmlns="http://www.w3.org/2000/svg">
<path d="M17.2701 280L631.1 280C642.64 280 652 270.64 652 259.1V20.89C652 9.35004 642.64 3.05176e-05 631.1 3.05176e-05L20.9 3.05176e-05C9.36005 3.05176e-05 0 9.35004 0 20.89V262.73C0 272.27 7.73004 280 17.2701 280ZM236 112.3C236 107.16 240.17 103 245.31 103L406.69 103C411.83 103 416 107.16 416 112.3V167.69C416 172.83 411.83 177 406.69 177L245.31 177C240.17 177 236 172.83 236 167.69V112.3Z" fill="#EEE2D0"/>
<path d="M0 130.59V20.8903C0 9.35027 9.36005 0.000259399 20.9 0.000259399L631.1 0.000259399C642.64 0.000259399 652 9.35027 652 20.8903V130.59L416 130.59V112.3C416 107.16 411.83 103 406.69 103L245.31 103C240.17 103 236 107.16 236 112.3V130.59L0 130.59Z" fill="url(#paint0_radial_570_448)"/>
<defs>
<radialGradient id="paint0_radial_570_448" cx="0" cy="0" r="1" gradientUnits="userSpaceOnUse" gradientTransform="translate(38.0081 26.0523) rotate(8.58159) scale(594.279 2977.44)">
<stop stop-color="#F8F6F4"/>
<stop offset="1" stop-color="#F8F6F4"/>
</radialGradient>
</defs>
</svg>
