<svg width="139" height="29" viewBox="0 0 139 29" fill="none" xmlns="http://www.w3.org/2000/svg">
<path d="M13.1813 20.0001C12.3213 20.0001 11.8413 19.5401 11.8413 18.6801V8.3401H9.64127C8.78127 8.3401 8.30127 7.8801 8.30127 7.0201V6.8601C8.30127 6.0001 8.78127 5.5201 9.64127 5.5201H17.1813C18.0413 5.5201 18.5213 6.0001 18.5213 6.8601V7.0201C18.5213 7.8801 18.0413 8.3401 17.1813 8.3401H15.0013V18.6801C15.0013 19.5401 14.5213 20.0001 13.6612 20.0001H13.1813ZM23.212 20.2201C20.372 20.2201 18.212 18.1401 18.212 14.2801C18.212 10.4401 20.352 8.3801 23.212 8.3801C24.812 8.3801 26.332 9.1801 26.932 10.5801V9.7401C26.932 9.0001 27.412 8.5801 28.252 8.5801H28.632C29.492 8.5801 29.952 9.0401 29.952 9.9001V18.6601C29.952 19.5201 29.492 19.9801 28.632 19.9801H28.252C27.412 19.9801 26.932 19.5801 26.932 18.8601V18.0601C26.352 19.4201 24.812 20.2201 23.212 20.2201ZM24.132 17.7201C25.852 17.7201 27.012 16.4201 27.012 14.2801C27.012 12.1801 25.852 10.8601 24.112 10.8601C22.412 10.8601 21.232 12.1601 21.232 14.2801C21.232 16.4201 22.392 17.7201 24.132 17.7201ZM33.9164 23.7001C33.0564 23.7001 32.5964 23.2401 32.5964 22.3801V9.9001C32.5964 9.0401 33.0564 8.5601 33.9164 8.5601H34.2964C35.1364 8.5601 35.6164 8.9801 35.6164 9.7001V10.5001C36.1964 9.2401 37.6564 8.3801 39.3364 8.3801C42.0764 8.3801 44.3364 10.3001 44.3364 14.2601C44.3364 18.2401 42.0764 20.1601 39.3364 20.1601C37.6564 20.1601 36.1764 19.3201 35.6164 18.0001V22.3801C35.6164 23.2401 35.1564 23.7001 34.2964 23.7001H33.9164ZM38.3964 17.7001C40.1364 17.7001 41.3164 16.3801 41.3164 14.2801C41.3164 12.1601 40.1564 10.8401 38.4364 10.8401C36.6964 10.8401 35.5364 12.1401 35.5364 14.2801C35.5364 16.4001 36.6964 17.7001 38.3964 17.7001ZM57.2495 20.1801C54.1295 20.1801 52.7095 18.9401 52.7095 15.4401V10.8601H52.2295C51.5095 10.8601 51.1095 10.4201 51.1095 9.7001C51.1095 8.9601 51.4695 8.5601 52.1295 8.5601H52.7095V7.6401C52.7095 6.8601 53.0895 6.4401 53.9495 6.2601L54.3095 6.1801C55.3295 5.9601 55.7695 6.3601 55.7695 7.3201V8.5601H57.5695C58.4895 8.5601 58.9095 8.9601 58.9095 9.7001C58.9095 10.4601 58.4895 10.8601 57.5695 10.8601H55.7695V15.1801C55.7695 17.0601 56.3295 17.7601 57.7495 17.8001C58.4695 17.8401 58.9295 18.1401 58.9695 18.8401C59.0095 19.5801 58.6695 20.0801 57.8095 20.1601C57.6295 20.1801 57.4295 20.1801 57.2495 20.1801ZM65.7331 20.2201C62.7331 20.2201 59.8331 18.4401 59.8331 14.2801C59.8331 10.1601 62.7531 8.3801 65.7331 8.3801C68.7131 8.3801 71.6531 10.1601 71.6531 14.2801C71.6531 18.4401 68.7331 20.2201 65.7331 20.2201ZM65.7331 17.7201C67.4531 17.7201 68.6131 16.4601 68.6131 14.2801C68.6131 12.1401 67.4331 10.8601 65.7331 10.8601C64.0331 10.8601 62.8531 12.1201 62.8531 14.2801C62.8531 16.4601 64.0331 17.7201 65.7331 17.7201ZM80.8147 7.1601C79.7747 7.1601 79.0947 6.6001 79.0947 5.6401C79.0947 4.6601 79.7747 4.1001 80.8147 4.1001C81.7947 4.1001 82.5547 4.6801 82.5547 5.6401C82.5547 6.5801 81.7947 7.1601 80.8147 7.1601ZM78.7747 23.8001C78.6947 23.8001 78.6147 23.8001 78.5547 23.8001C77.6147 23.7801 77.1547 23.4001 77.1747 22.6601V22.5001C77.1947 21.8201 77.5747 21.4601 78.0947 21.3801C78.1947 21.3801 78.2347 21.3601 78.2947 21.3601C78.9747 21.2801 79.2747 20.8401 79.2747 19.5601V9.9001C79.2747 9.0401 79.7347 8.5601 80.5947 8.5601H80.9947C81.8547 8.5601 82.3147 9.0401 82.3147 9.9001V19.7001C82.3147 22.4201 81.4147 23.8001 78.7747 23.8001ZM94.3811 8.5801C95.2411 8.5801 95.7011 9.0401 95.7011 9.9001V18.6801C95.7011 19.5401 95.2411 20.0201 94.3811 20.0201H94.0011C93.1411 20.0201 92.6811 19.5401 92.6811 18.7201V18.1401C92.1611 19.3201 90.8611 20.1801 89.1411 20.1801C86.0611 20.1801 84.7011 18.4801 84.7011 14.8601V9.9001C84.7011 9.0401 85.1611 8.5801 86.0211 8.5801H86.4011C87.2611 8.5801 87.7411 9.0401 87.7411 9.9001V14.5801C87.7411 16.7001 88.5011 17.6601 90.2211 17.6601C91.9811 17.6601 92.6811 16.5401 92.6811 14.4201V9.9001C92.6811 9.0401 93.1411 8.5801 94.0011 8.5801H94.3811ZM112.139 8.3801C114.999 8.3801 116.199 10.0001 116.199 13.9801V18.6801C116.199 19.5401 115.719 20.0201 114.859 20.0201H114.499C113.639 20.0201 113.159 19.5401 113.159 18.6801V14.2601C113.159 11.8401 112.559 10.9201 110.979 10.9201C109.399 10.9201 108.739 11.8601 108.739 14.1601V18.6801C108.739 19.5401 108.259 20.0201 107.399 20.0201H107.039C106.179 20.0201 105.699 19.5401 105.699 18.6801V14.2601C105.699 11.8001 105.159 10.9201 103.619 10.9201C102.019 10.9201 101.359 11.9401 101.359 14.3801V18.6801C101.359 19.5401 100.899 20.0201 100.039 20.0201H99.6586C98.7986 20.0201 98.3386 19.5401 98.3386 18.6801V9.9001C98.3386 9.0401 98.7986 8.5801 99.6586 8.5801H100.039C100.899 8.5801 101.359 9.0001 101.359 9.8201V10.3601C101.819 9.2401 103.059 8.4001 104.699 8.4001C106.539 8.4001 107.499 9.0601 108.139 10.8401C108.659 9.6001 109.999 8.3801 112.139 8.3801ZM119.893 23.7001C119.033 23.7001 118.573 23.2401 118.573 22.3801V9.9001C118.573 9.0401 119.033 8.5601 119.893 8.5601H120.273C121.113 8.5601 121.593 8.9801 121.593 9.7001V10.5001C122.173 9.2401 123.633 8.3801 125.313 8.3801C128.053 8.3801 130.313 10.3001 130.313 14.2601C130.313 18.2401 128.053 20.1601 125.313 20.1601C123.633 20.1601 122.153 19.3201 121.593 18.0001V22.3801C121.593 23.2401 121.133 23.7001 120.273 23.7001H119.893ZM124.373 17.7001C126.113 17.7001 127.293 16.3801 127.293 14.2801C127.293 12.1601 126.133 10.8401 124.413 10.8401C122.673 10.8401 121.513 12.1401 121.513 14.2801C121.513 16.4001 122.673 17.7001 124.373 17.7001Z" fill="black"/>
<path d="M11.8413 8.3401H14.8413V5.3401H11.8413V8.3401ZM15.0013 8.3401V5.3401H12.0013V8.3401H15.0013ZM13.1813 17.0001C13.264 17.0001 13.7854 17.0278 14.2864 17.5178C14.7982 18.0185 14.8413 18.5623 14.8413 18.6801H8.84127C8.84127 19.6579 9.12427 20.8617 10.0911 21.8074C11.0471 22.7424 12.2385 23.0001 13.1813 23.0001V17.0001ZM14.8413 18.6801V8.3401H8.84127V18.6801H14.8413ZM11.8413 5.3401H9.64127V11.3401H11.8413V5.3401ZM9.64127 5.3401C9.72406 5.3401 10.2454 5.36784 10.7464 5.85784C11.2582 6.35847 11.3013 6.90232 11.3013 7.0201H5.30127C5.30127 7.99787 5.58427 9.20173 6.55115 10.1474C7.50716 11.0824 8.69848 11.3401 9.64127 11.3401V5.3401ZM11.3013 7.0201V6.8601H5.30127V7.0201H11.3013ZM11.3013 6.8601C11.3013 6.97636 11.2599 7.49909 10.7701 7.98892C10.2802 8.47875 9.75753 8.5201 9.64127 8.5201V2.5201C8.66501 2.5201 7.47228 2.80145 6.52745 3.74628C5.58262 4.69111 5.30127 5.88384 5.30127 6.8601H11.3013ZM9.64127 8.5201H17.1813V2.5201H9.64127V8.5201ZM17.1813 8.5201C17.065 8.5201 16.5423 8.47875 16.0524 7.98892C15.5626 7.49909 15.5213 6.97636 15.5213 6.8601H21.5213C21.5213 5.88384 21.2399 4.69111 20.2951 3.74628C19.3502 2.80145 18.1575 2.5201 17.1813 2.5201V8.5201ZM15.5213 6.8601V7.0201H21.5213V6.8601H15.5213ZM15.5213 7.0201C15.5213 6.90233 15.5643 6.35847 16.0761 5.85784C16.5771 5.36784 17.0985 5.3401 17.1813 5.3401V11.3401C18.124 11.3401 19.3154 11.0824 20.2714 10.1474C21.2382 9.20173 21.5213 7.99787 21.5213 7.0201H15.5213ZM17.1813 5.3401H15.0013V11.3401H17.1813V5.3401ZM12.0013 8.3401V18.6801H18.0013V8.3401H12.0013ZM12.0013 18.6801C12.0013 18.5623 12.0443 18.0185 12.5561 17.5178C13.0571 17.0278 13.5785 17.0001 13.6612 17.0001V23.0001C14.604 23.0001 15.7954 22.7424 16.7514 21.8074C17.7182 20.8617 18.0013 19.6579 18.0013 18.6801H12.0013ZM13.6612 17.0001H13.1813V23.0001H13.6612V17.0001ZM26.932 10.5801L24.1746 11.7619L29.932 10.5801H26.932ZM26.932 18.0601H29.932L24.1725 16.8832L26.932 18.0601ZM23.212 17.2201C22.558 17.2201 22.1542 17.0013 21.8849 16.6997C21.5926 16.3722 21.212 15.6604 21.212 14.2801H15.212C15.212 16.7598 15.9114 19.018 17.4091 20.6955C18.9298 22.3989 21.0261 23.2201 23.212 23.2201V17.2201ZM21.212 14.2801C21.212 12.9066 21.5892 12.2094 21.8728 11.8933C22.1327 11.6035 22.5342 11.3801 23.212 11.3801V5.3801C21.0298 5.3801 18.9314 6.18672 17.4063 7.88693C15.9049 9.56077 15.212 11.8136 15.212 14.2801H21.212ZM23.212 11.3801C23.5244 11.3801 23.7849 11.4604 23.9565 11.5586C24.1189 11.6516 24.1625 11.7337 24.1746 11.7619L29.6895 9.39834C28.5036 6.63134 25.6961 5.3801 23.212 5.3801V11.3801ZM29.932 10.5801V9.7401H23.932V10.5801H29.932ZM29.932 9.7401C29.932 10.0493 29.8067 10.6539 29.2561 11.1372C28.7631 11.5699 28.2958 11.5801 28.252 11.5801V5.5801C27.3683 5.5801 26.2409 5.80028 25.298 6.62798C24.2973 7.5063 23.932 8.69092 23.932 9.7401H29.932ZM28.252 11.5801H28.632V5.5801H28.252V11.5801ZM28.632 11.5801C28.5483 11.5801 28.0054 11.5511 27.4932 11.0389C26.981 10.5267 26.952 9.98386 26.952 9.9001H32.952C32.952 8.95634 32.6931 7.75349 31.7359 6.79628C30.7786 5.83907 29.5758 5.5801 28.632 5.5801V11.5801ZM26.952 9.9001V18.6601H32.952V9.9001H26.952ZM26.952 18.6601C26.952 18.5763 26.981 18.0335 27.4932 17.5213C28.0054 17.0091 28.5483 16.9801 28.632 16.9801V22.9801C29.5758 22.9801 30.7786 22.7211 31.7359 21.7639C32.6931 20.8067 32.952 19.6039 32.952 18.6601H26.952ZM28.632 16.9801H28.252V22.9801H28.632V16.9801ZM28.252 16.9801C28.2631 16.9801 28.7165 16.9791 29.2126 17.398C29.7856 17.8819 29.932 18.5113 29.932 18.8601H23.932C23.932 19.9289 24.3185 21.1183 25.3415 21.9822C26.2876 22.7811 27.401 22.9801 28.252 22.9801V16.9801ZM29.932 18.8601V18.0601H23.932V18.8601H29.932ZM24.1725 16.8832C24.1819 16.8612 24.1606 16.9358 23.9833 17.0356C23.8006 17.1384 23.5269 17.2201 23.212 17.2201V23.2201C25.6542 23.2201 28.5133 21.9997 29.6916 19.237L24.1725 16.8832ZM24.132 20.7201C25.8013 20.7201 27.3817 20.0609 28.5002 18.7486C29.5787 17.4833 30.012 15.8717 30.012 14.2801H24.012C24.012 14.8285 23.8654 14.9369 23.9338 14.8566C23.9684 14.8161 24.0253 14.7704 24.0926 14.7406C24.157 14.7121 24.1804 14.7201 24.132 14.7201V20.7201ZM30.012 14.2801C30.012 12.6963 29.5722 11.091 28.493 9.83102C27.3753 8.52614 25.7944 7.8601 24.112 7.8601V13.8601C24.1638 13.8601 24.1443 13.8687 24.0842 13.8421C24.0215 13.8143 23.9683 13.7718 23.9361 13.7342C23.8719 13.6592 24.012 13.7639 24.012 14.2801H30.012ZM24.112 7.8601C22.446 7.8601 20.8743 8.52349 19.7602 9.81876C18.6805 11.0739 18.232 12.6795 18.232 14.2801H24.232C24.232 13.7607 24.3735 13.6563 24.3089 13.7314C24.2774 13.7681 24.2245 13.8106 24.1605 13.839C24.0988 13.8664 24.0733 13.8601 24.112 13.8601V7.8601ZM18.232 14.2801C18.232 15.8716 18.6655 17.4867 19.7511 18.7542C20.877 20.0686 22.4632 20.7201 24.132 20.7201V14.7201C24.0739 14.7201 24.091 14.7103 24.1518 14.737C24.2159 14.7652 24.2725 14.8096 24.308 14.851C24.3786 14.9335 24.232 14.8286 24.232 14.2801H18.232ZM35.6164 10.5001H32.6164L38.3415 11.7545L35.6164 10.5001ZM35.6164 18.0001L38.3782 16.8284L32.6164 18.0001H35.6164ZM33.9164 20.7001C34.0002 20.7001 34.543 20.7291 35.0552 21.2413C35.5674 21.7535 35.5964 22.2963 35.5964 22.3801H29.5964C29.5964 23.3239 29.8554 24.5267 30.8126 25.4839C31.7698 26.4411 32.9726 26.7001 33.9164 26.7001V20.7001ZM35.5964 22.3801V9.9001H29.5964V22.3801H35.5964ZM35.5964 9.9001C35.5964 9.98289 35.5687 10.5042 35.0787 11.0052C34.578 11.5171 34.0342 11.5601 33.9164 11.5601V5.5601C32.9386 5.5601 31.7348 5.8431 30.7891 6.80998C29.8541 7.76599 29.5964 8.95731 29.5964 9.9001H35.5964ZM33.9164 11.5601H34.2964V5.5601H33.9164V11.5601ZM34.2964 11.5601C34.2521 11.5601 33.7944 11.5499 33.3066 11.1272C32.758 10.6517 32.6164 10.0437 32.6164 9.7001H38.6164C38.6164 8.63648 38.2348 7.4585 37.2362 6.59303C36.2984 5.78028 35.1807 5.5601 34.2964 5.5601V11.5601ZM32.6164 9.7001V10.5001H38.6164V9.7001H32.6164ZM38.3415 11.7545C38.3386 11.7609 38.3798 11.6716 38.5599 11.568C38.7368 11.4662 39.0033 11.3801 39.3364 11.3801V5.3801C36.7198 5.3801 34.0521 6.72386 32.8913 9.24567L38.3415 11.7545ZM39.3364 11.3801C39.9893 11.3801 40.4023 11.5937 40.6679 11.879C40.9423 12.1738 41.3364 12.8484 41.3364 14.2601H47.3364C47.3364 11.7118 46.6005 9.44639 45.0599 7.79116C43.5105 6.12651 41.4235 5.3801 39.3364 5.3801V11.3801ZM41.3364 14.2601C41.3364 15.6856 40.9401 16.3655 40.6653 16.6615C40.4003 16.9469 39.9888 17.1601 39.3364 17.1601V23.1601C41.424 23.1601 43.5125 22.4133 45.0625 20.7437C46.6027 19.0847 47.3364 16.8146 47.3364 14.2601H41.3364ZM39.3364 17.1601C38.988 17.1601 38.7206 17.0717 38.5556 16.9765C38.3933 16.8829 38.3709 16.8112 38.3782 16.8284L32.8547 19.1717C33.9947 21.859 36.7609 23.1601 39.3364 23.1601V17.1601ZM32.6164 18.0001V22.3801H38.6164V18.0001H32.6164ZM32.6164 22.3801C32.6164 22.2963 32.6454 21.7535 33.1576 21.2413C33.6698 20.7291 34.2126 20.7001 34.2964 20.7001V26.7001C35.2402 26.7001 36.443 26.4411 37.4002 25.4839C38.3574 24.5267 38.6164 23.3239 38.6164 22.3801H32.6164ZM34.2964 20.7001H33.9164V26.7001H34.2964V20.7001ZM38.3964 20.7001C40.0759 20.7001 41.6564 20.0367 42.7779 18.7402C43.8647 17.4837 44.3164 15.8765 44.3164 14.2801H38.3164C38.3164 14.7837 38.1781 14.8865 38.2399 14.815C38.27 14.7802 38.3195 14.7411 38.377 14.7157C38.4323 14.6914 38.4482 14.7001 38.3964 14.7001V20.7001ZM44.3164 14.2801C44.3164 12.6926 43.8801 11.0862 42.8086 9.82383C41.6976 8.51477 40.12 7.8401 38.4364 7.8401V13.8401C38.4784 13.8401 38.4517 13.8469 38.3868 13.8179C38.3196 13.7878 38.2654 13.7432 38.2342 13.7064C38.1727 13.634 38.3164 13.7476 38.3164 14.2801H44.3164ZM38.4364 7.8401C36.7675 7.8401 35.1813 8.49158 34.0555 9.80602C32.9698 11.0735 32.5364 12.6886 32.5364 14.2801H38.5364C38.5364 13.7316 38.683 13.6267 38.6124 13.7092C38.5769 13.7506 38.5203 13.795 38.4561 13.8232C38.3953 13.8499 38.3783 13.8401 38.4364 13.8401V7.8401ZM32.5364 14.2801C32.5364 15.8682 32.9731 17.4718 34.045 18.7303C35.1553 20.0339 36.7274 20.7001 38.3964 20.7001V14.7001C38.3578 14.7001 38.3868 14.6939 38.4535 14.7236C38.5227 14.7545 38.5792 14.8005 38.6128 14.8399C38.6797 14.9184 38.5364 14.812 38.5364 14.2801H32.5364ZM52.7095 10.8601H55.7095V7.8601H52.7095V10.8601ZM52.7095 8.5601V11.5601H55.7095V8.5601H52.7095ZM53.9495 6.2601L54.5641 9.19647L54.5822 9.19268L54.6003 9.18866L53.9495 6.2601ZM54.3095 6.1801L53.677 3.24754L53.6679 3.24951L53.6587 3.25154L54.3095 6.1801ZM55.7695 8.5601H52.7695V11.5601H55.7695V8.5601ZM55.7695 10.8601V7.8601H52.7695V10.8601H55.7695ZM57.7495 17.8001L57.9159 14.8047L57.875 14.8024L57.834 14.8013L57.7495 17.8001ZM58.9695 18.8401L61.9652 18.6782L61.9646 18.669L58.9695 18.8401ZM57.8095 20.1601L57.5317 17.173L57.5049 17.1755L57.4782 17.1784L57.8095 20.1601ZM57.2495 17.1801C55.9859 17.1801 55.841 16.9111 55.9344 17.0048C56.0211 17.0918 55.7095 16.8881 55.7095 15.4401H49.7095C49.7095 17.4921 50.1079 19.6584 51.6847 21.2404C53.2681 22.8291 55.3932 23.1801 57.2495 23.1801V17.1801ZM55.7095 15.4401V10.8601H49.7095V15.4401H55.7095ZM52.7095 7.8601H52.2295V13.8601H52.7095V7.8601ZM52.2295 7.8601C52.4916 7.8601 53.0736 7.95656 53.5745 8.48385C54.0538 8.98839 54.1095 9.52105 54.1095 9.7001H48.1095C48.1095 10.5991 48.3652 11.7118 49.2245 12.6163C50.1055 13.5436 51.2475 13.8601 52.2295 13.8601V7.8601ZM54.1095 9.7001C54.1095 9.77429 54.0933 10.3111 53.6062 10.8547C53.0711 11.4519 52.4198 11.5601 52.1295 11.5601V5.5601C51.1792 5.5601 50.018 5.86832 49.1378 6.85052C48.3057 7.77909 48.1095 8.88591 48.1095 9.7001H54.1095ZM52.1295 11.5601H52.7095V5.5601H52.1295V11.5601ZM55.7095 8.5601V7.6401H49.7095V8.5601H55.7095ZM55.7095 7.6401C55.7095 7.74398 55.6739 8.24648 55.2369 8.73199C54.847 9.16519 54.4599 9.21829 54.5641 9.19647L53.3349 3.32373C52.5792 3.48191 51.572 3.83501 50.7771 4.71821C49.9352 5.65371 49.7095 6.75622 49.7095 7.6401H55.7095ZM54.6003 9.18866L54.9603 9.10866L53.6587 3.25154L53.2987 3.33154L54.6003 9.18866ZM54.942 9.11266C55.1378 9.07045 54.3574 9.30639 53.533 8.63819C52.711 7.97193 52.7695 7.15482 52.7695 7.3201H58.7695C58.7695 6.52538 58.608 5.02827 57.311 3.97701C56.0116 2.92381 54.5013 3.06975 53.677 3.24754L54.942 9.11266ZM52.7695 7.3201V8.5601H58.7695V7.3201H52.7695ZM55.7695 11.5601H57.5695V5.5601H55.7695V11.5601ZM57.5695 11.5601C57.6626 11.5601 57.1566 11.5894 56.609 11.1103C55.984 10.5634 55.9095 9.8989 55.9095 9.7001H61.9095C61.9095 8.76129 61.6251 7.52676 60.56 6.59487C59.5725 5.73077 58.3965 5.5601 57.5695 5.5601V11.5601ZM55.9095 9.7001C55.9095 9.53416 55.9706 8.8732 56.5946 8.32006C57.1471 7.83036 57.6637 7.8601 57.5695 7.8601V13.8601C58.3953 13.8601 59.582 13.6898 60.5745 12.8101C61.6385 11.867 61.9095 10.626 61.9095 9.7001H55.9095ZM57.5695 7.8601H55.7695V13.8601H57.5695V7.8601ZM52.7695 10.8601V15.1801H58.7695V10.8601H52.7695ZM52.7695 15.1801C52.7695 16.2712 52.9004 17.7691 53.8444 19.003C54.9377 20.4321 56.5039 20.7662 57.6651 20.7989L57.834 14.8013C57.7015 14.7976 57.7757 14.7811 57.9529 14.8518C58.1685 14.9379 58.4174 15.1058 58.6097 15.3572C58.7817 15.582 58.813 15.7492 58.8055 15.7159C58.7963 15.6754 58.7695 15.5178 58.7695 15.1801H52.7695ZM57.5831 20.7955C57.5811 20.7954 57.4949 20.7912 57.3547 20.748C57.2101 20.7034 56.9841 20.6095 56.7439 20.4179C56.493 20.2178 56.2872 19.9587 56.15 19.6679C56.0182 19.3885 55.9824 19.1502 55.9744 19.0112L61.9646 18.669C61.9055 17.6335 61.482 16.5223 60.4852 15.7273C59.5957 15.0178 58.5955 14.8425 57.9159 14.8047L57.5831 20.7955ZM55.9739 19.002C55.969 18.9106 55.9642 18.3829 56.412 17.8396C56.8806 17.2709 57.4321 17.1823 57.5317 17.173L58.0874 23.1472C59.047 23.0579 60.1984 22.6793 61.0421 21.6556C61.8648 20.6573 62.0101 19.5096 61.9652 18.6782L55.9739 19.002ZM57.4782 17.1784C57.5027 17.1757 57.499 17.1774 57.4506 17.1786C57.4015 17.1799 57.3456 17.1801 57.2495 17.1801V23.1801C57.3935 23.1801 57.7656 23.1834 58.1408 23.1418L57.4782 17.1784ZM65.7331 17.2201C64.7929 17.2201 64.0748 16.9394 63.6365 16.5549C63.2641 16.2282 62.8331 15.6062 62.8331 14.2801H56.8331C56.8331 17.114 57.8521 19.462 59.6797 21.0653C61.4414 22.6108 63.6733 23.2201 65.7331 23.2201V17.2201ZM62.8331 14.2801C62.8331 12.9899 63.2578 12.3766 63.6357 12.0476C64.0815 11.6594 64.8059 11.3801 65.7331 11.3801V5.3801C63.6803 5.3801 61.4547 5.99082 59.6956 7.52261C57.8684 9.11361 56.8331 11.4503 56.8331 14.2801H62.8331ZM65.7331 11.3801C66.6611 11.3801 67.3934 11.66 67.8456 12.052C68.2284 12.3838 68.6531 12.9968 68.6531 14.2801H74.6531C74.6531 11.4434 73.6078 9.1064 71.7756 7.5182C70.0129 5.99024 67.7851 5.3801 65.7331 5.3801V11.3801ZM68.6531 14.2801C68.6531 15.5994 68.2221 16.221 67.8448 16.5505C67.4001 16.9388 66.6741 17.2201 65.7331 17.2201V23.2201C67.7921 23.2201 70.0262 22.6114 71.7915 21.0697C73.6242 19.4692 74.6531 17.1208 74.6531 14.2801H68.6531ZM65.7331 20.7201C67.3735 20.7201 68.9597 20.0918 70.0932 18.7732C71.1856 17.5022 71.6131 15.8798 71.6131 14.2801H65.6131C65.6131 14.8604 65.4606 14.958 65.5431 14.862C65.5842 14.8142 65.6467 14.7666 65.7143 14.7372C65.7775 14.7098 65.7943 14.7201 65.7331 14.7201V20.7201ZM71.6131 14.2801C71.6131 12.6754 71.1676 11.0645 70.0809 9.80649C68.9592 8.508 67.3847 7.8601 65.7331 7.8601V13.8601C65.7783 13.8601 65.7561 13.8676 65.6949 13.8407C65.6308 13.8126 65.5752 13.769 65.5404 13.7287C65.4686 13.6457 65.6131 13.7448 65.6131 14.2801H71.6131ZM65.7331 7.8601C64.096 7.8601 62.5187 8.49259 61.3895 9.7942C60.2956 11.0551 59.8531 12.6714 59.8531 14.2801H65.8531C65.8531 13.7288 66.0006 13.6351 65.9217 13.726C65.8836 13.7699 65.8253 13.8145 65.761 13.8424C65.7004 13.8687 65.6815 13.8601 65.7331 13.8601V7.8601ZM59.8531 14.2801C59.8531 15.8924 60.2922 17.5132 61.3854 18.7787C62.5153 20.0868 64.0952 20.7201 65.7331 20.7201V14.7201C65.6815 14.7201 65.7012 14.7115 65.7631 14.7384C65.8287 14.7669 65.8878 14.8124 65.9259 14.8565C66.004 14.947 65.8531 14.8478 65.8531 14.2801H59.8531ZM78.5547 23.8001L78.4909 26.7994L78.5228 26.8001H78.5547V23.8001ZM77.1747 22.6601L80.1736 22.7412L80.1747 22.7006V22.6601H77.1747ZM77.1747 22.5001L74.176 22.4119L74.1747 22.456V22.5001H77.1747ZM78.0947 21.3801V18.3801H77.8653L77.6385 18.415L78.0947 21.3801ZM78.2947 21.3601V24.3601H78.4706L78.6452 24.3396L78.2947 21.3601ZM80.8147 4.1601C80.8202 4.1601 80.8976 4.16049 81.0252 4.20151C81.1563 4.24364 81.3407 4.32945 81.5295 4.49303C81.968 4.87307 82.0947 5.36331 82.0947 5.6401H76.0947C76.0947 6.87689 76.5614 8.12713 77.5999 9.02717C78.5847 9.88064 79.7816 10.1601 80.8147 10.1601V4.1601ZM82.0947 5.6401C82.0947 5.88819 81.9811 6.37455 81.5402 6.76033C81.3501 6.9267 81.163 7.01452 81.0291 7.05776C80.899 7.09975 80.82 7.1001 80.8147 7.1001V1.1001C79.7817 1.1001 78.5779 1.37976 77.5892 2.24487C76.5483 3.15564 76.0947 4.412 76.0947 5.6401H82.0947ZM80.8147 7.1001C80.7329 7.1001 80.4387 7.07527 80.1119 6.79817C79.7355 6.47901 79.5547 6.01929 79.5547 5.6401H85.5547C85.5547 4.3009 84.9939 3.07119 83.9925 2.22202C83.0407 1.41493 81.8765 1.1001 80.8147 1.1001V7.1001ZM79.5547 5.6401C79.5547 5.23114 79.751 4.76766 80.1226 4.45549C80.4451 4.18455 80.733 4.1601 80.8147 4.1601V10.1601C81.8763 10.1601 83.0342 9.84565 83.9818 9.04971C84.9784 8.21254 85.5547 6.98905 85.5547 5.6401H79.5547ZM78.7747 20.8001C78.7745 20.8001 78.7734 20.8001 78.7733 20.8001C78.7732 20.8001 78.772 20.8001 78.7719 20.8001C78.7718 20.8001 78.7706 20.8001 78.7705 20.8001C78.7704 20.8001 78.7692 20.8001 78.7691 20.8001C78.769 20.8001 78.7678 20.8001 78.7677 20.8001C78.7676 20.8001 78.7664 20.8001 78.7663 20.8001C78.7662 20.8001 78.765 20.8001 78.7648 20.8001C78.7647 20.8001 78.7636 20.8001 78.7634 20.8001C78.7632 20.8001 78.7622 20.8001 78.762 20.8001C78.7618 20.8001 78.7608 20.8001 78.7606 20.8001C78.7604 20.8001 78.7594 20.8001 78.7592 20.8001C78.759 20.8001 78.758 20.8001 78.7578 20.8001C78.7576 20.8001 78.7566 20.8001 78.7564 20.8001C78.7562 20.8001 78.7552 20.8001 78.755 20.8001C78.7548 20.8001 78.7538 20.8001 78.7536 20.8001C78.7534 20.8001 78.7524 20.8001 78.7522 20.8001C78.752 20.8001 78.751 20.8001 78.7508 20.8001C78.7506 20.8001 78.7496 20.8001 78.7494 20.8001C78.7492 20.8001 78.7482 20.8001 78.748 20.8001C78.7478 20.8001 78.7468 20.8001 78.7466 20.8001C78.7464 20.8001 78.7453 20.8001 78.7452 20.8001C78.745 20.8001 78.7439 20.8001 78.7438 20.8001C78.7436 20.8001 78.7425 20.8001 78.7424 20.8001C78.7422 20.8001 78.7411 20.8001 78.741 20.8001C78.7408 20.8001 78.7397 20.8001 78.7396 20.8001C78.7394 20.8001 78.7384 20.8001 78.7382 20.8001C78.738 20.8001 78.737 20.8001 78.7368 20.8001C78.7366 20.8001 78.7356 20.8001 78.7354 20.8001C78.7352 20.8001 78.7342 20.8001 78.734 20.8001C78.7338 20.8001 78.7328 20.8001 78.7326 20.8001C78.7324 20.8001 78.7314 20.8001 78.7312 20.8001C78.731 20.8001 78.73 20.8001 78.7298 20.8001C78.7296 20.8001 78.7286 20.8001 78.7284 20.8001C78.7282 20.8001 78.7272 20.8001 78.727 20.8001C78.7269 20.8001 78.7258 20.8001 78.7256 20.8001C78.7255 20.8001 78.7244 20.8001 78.7243 20.8001C78.7242 20.8001 78.723 20.8001 78.7229 20.8001C78.7228 20.8001 78.7216 20.8001 78.7215 20.8001C78.7214 20.8001 78.7202 20.8001 78.7201 20.8001C78.7199 20.8001 78.7188 20.8001 78.7187 20.8001C78.7185 20.8001 78.7175 20.8001 78.7173 20.8001C78.7171 20.8001 78.7161 20.8001 78.7159 20.8001C78.7157 20.8001 78.7147 20.8001 78.7145 20.8001C78.7144 20.8001 78.7133 20.8001 78.7132 20.8001C78.713 20.8001 78.7133 20.8001 78.7132 20.8001C78.713 20.8001 78.7124 20.8001 78.7122 20.8001C78.7121 20.8001 78.711 20.8001 78.7109 20.8001C78.7108 20.8001 78.7096 20.8001 78.7095 20.8001C78.7093 20.8001 78.7082 20.8001 78.7081 20.8001C78.7079 20.8001 78.7069 20.8001 78.7067 20.8001C78.7065 20.8001 78.7055 20.8001 78.7053 20.8001C78.7052 20.8001 78.7041 20.8001 78.704 20.8001C78.7039 20.8001 78.7027 20.8001 78.7026 20.8001C78.7024 20.8001 78.7014 20.8001 78.7012 20.8001C78.701 20.8001 78.7 20.8001 78.6998 20.8001C78.6997 20.8001 78.6986 20.8001 78.6985 20.8001C78.6983 20.8001 78.6973 20.8001 78.6971 20.8001C78.6969 20.8001 78.6959 20.8001 78.6957 20.8001C78.6956 20.8001 78.6945 20.8001 78.6944 20.8001C78.6942 20.8001 78.6932 20.8001 78.693 20.8001C78.6928 20.8001 78.6918 20.8001 78.6916 20.8001C78.6915 20.8001 78.6904 20.8001 78.6903 20.8001C78.6901 20.8001 78.6891 20.8001 78.6889 20.8001C78.6888 20.8001 78.6877 20.8001 78.6876 20.8001C78.6875 20.8001 78.6863 20.8001 78.6862 20.8001C78.686 20.8001 78.685 20.8001 78.6848 20.8001C78.6847 20.8001 78.6836 20.8001 78.6835 20.8001C78.6833 20.8001 78.6823 20.8001 78.6821 20.8001C78.682 20.8001 78.6809 20.8001 78.6808 20.8001C78.6806 20.8001 78.6796 20.8001 78.6794 20.8001C78.6793 20.8001 78.6782 20.8001 78.6781 20.8001C78.6779 20.8001 78.6769 20.8001 78.6767 20.8001C78.6766 20.8001 78.6755 20.8001 78.6754 20.8001C78.6752 20.8001 78.6742 20.8001 78.674 20.8001C78.6739 20.8001 78.6729 20.8001 78.6727 20.8001C78.6726 20.8001 78.6715 20.8001 78.6714 20.8001C78.6712 20.8001 78.6702 20.8001 78.67 20.8001C78.6699 20.8001 78.6688 20.8001 78.6687 20.8001C78.6686 20.8001 78.6675 20.8001 78.6674 20.8001C78.6672 20.8001 78.6662 20.8001 78.666 20.8001C78.6659 20.8001 78.6648 20.8001 78.6647 20.8001C78.6646 20.8001 78.6635 20.8001 78.6634 20.8001C78.6632 20.8001 78.6622 20.8001 78.662 20.8001C78.6618 20.8001 78.6609 20.8001 78.6607 20.8001C78.6606 20.8001 78.6595 20.8001 78.6594 20.8001C78.6593 20.8001 78.6582 20.8001 78.6581 20.8001C78.6579 20.8001 78.6569 20.8001 78.6567 20.8001C78.6565 20.8001 78.6556 20.8001 78.6554 20.8001C78.6552 20.8001 78.6543 20.8001 78.6541 20.8001C78.654 20.8001 78.653 20.8001 78.6528 20.8001C78.6527 20.8001 78.6516 20.8001 78.6515 20.8001C78.6514 20.8001 78.6503 20.8001 78.6502 20.8001C78.6501 20.8001 78.649 20.8001 78.6489 20.8001C78.6488 20.8001 78.6477 20.8001 78.6476 20.8001C78.6475 20.8001 78.6464 20.8001 78.6463 20.8001C78.6462 20.8001 78.6451 20.8001 78.645 20.8001C78.6449 20.8001 78.6438 20.8001 78.6437 20.8001C78.6436 20.8001 78.6425 20.8001 78.6424 20.8001C78.6423 20.8001 78.6412 20.8001 78.6411 20.8001C78.641 20.8001 78.6399 20.8001 78.6398 20.8001C78.6397 20.8001 78.6387 20.8001 78.6385 20.8001C78.6383 20.8001 78.6374 20.8001 78.6372 20.8001C78.637 20.8001 78.6361 20.8001 78.6359 20.8001C78.6358 20.8001 78.6348 20.8001 78.6347 20.8001C78.6346 20.8001 78.6335 20.8001 78.6334 20.8001C78.6333 20.8001 78.6323 20.8001 78.6321 20.8001C78.6319 20.8001 78.631 20.8001 78.6308 20.8001C78.6307 20.8001 78.6297 20.8001 78.6296 20.8001C78.6295 20.8001 78.6284 20.8001 78.6283 20.8001C78.6281 20.8001 78.6272 20.8001 78.627 20.8001C78.6269 20.8001 78.6259 20.8001 78.6258 20.8001C78.6257 20.8001 78.6247 20.8001 78.6245 20.8001C78.6243 20.8001 78.6234 20.8001 78.6233 20.8001C78.6232 20.8001 78.6221 20.8001 78.622 20.8001C78.6218 20.8001 78.6209 20.8001 78.6208 20.8001C78.6207 20.8001 78.6196 20.8001 78.6195 20.8001C78.6193 20.8001 78.6184 20.8001 78.6183 20.8001C78.6182 20.8001 78.6172 20.8001 78.617 20.8001C78.6168 20.8001 78.6159 20.8001 78.6158 20.8001C78.6157 20.8001 78.6147 20.8001 78.6145 20.8001C78.6144 20.8001 78.6134 20.8001 78.6133 20.8001C78.6131 20.8001 78.6122 20.8001 78.6121 20.8001C78.612 20.8001 78.611 20.8001 78.6108 20.8001C78.6107 20.8001 78.6097 20.8001 78.6096 20.8001C78.6095 20.8001 78.6085 20.8001 78.6084 20.8001C78.6082 20.8001 78.6073 20.8001 78.6072 20.8001C78.607 20.8001 78.6061 20.8001 78.606 20.8001C78.6059 20.8001 78.6049 20.8001 78.6047 20.8001C78.6046 20.8001 78.6037 20.8001 78.6035 20.8001C78.6034 20.8001 78.6025 20.8001 78.6023 20.8001C78.6022 20.8001 78.6012 20.8001 78.6011 20.8001C78.601 20.8001 78.6 20.8001 78.5999 20.8001C78.5998 20.8001 78.5988 20.8001 78.5987 20.8001C78.5986 20.8001 78.5977 20.8001 78.5975 20.8001C78.5974 20.8001 78.5965 20.8001 78.5963 20.8001C78.5962 20.8001 78.5953 20.8001 78.5951 20.8001C78.595 20.8001 78.5941 20.8001 78.594 20.8001C78.5938 20.8001 78.5929 20.8001 78.5928 20.8001C78.5927 20.8001 78.5917 20.8001 78.5916 20.8001C78.5915 20.8001 78.5905 20.8001 78.5904 20.8001C78.5903 20.8001 78.5894 20.8001 78.5892 20.8001C78.589 20.8001 78.5882 20.8001 78.5881 20.8001C78.588 20.8001 78.587 20.8001 78.5869 20.8001C78.5868 20.8001 78.5859 20.8001 78.5857 20.8001C78.5855 20.8001 78.5847 20.8001 78.5846 20.8001C78.5845 20.8001 78.5836 20.8001 78.5834 20.8001C78.5832 20.8001 78.5824 20.8001 78.5823 20.8001C78.5822 20.8001 78.5813 20.8001 78.5811 20.8001C78.5809 20.8001 78.5801 20.8001 78.58 20.8001C78.5799 20.8001 78.579 20.8001 78.5788 20.8001C78.5787 20.8001 78.5778 20.8001 78.5777 20.8001C78.5775 20.8001 78.5767 20.8001 78.5766 20.8001C78.5765 20.8001 78.5756 20.8001 78.5754 20.8001C78.5753 20.8001 78.5744 20.8001 78.5743 20.8001C78.5741 20.8001 78.5733 20.8001 78.5732 20.8001C78.5731 20.8001 78.5722 20.8001 78.5721 20.8001C78.572 20.8001 78.5711 20.8001 78.571 20.8001C78.5709 20.8001 78.57 20.8001 78.5698 20.8001C78.5697 20.8001 78.5689 20.8001 78.5687 20.8001C78.5686 20.8001 78.5678 20.8001 78.5676 20.8001C78.5675 20.8001 78.5667 20.8001 78.5665 20.8001C78.5664 20.8001 78.5656 20.8001 78.5654 20.8001C78.5653 20.8001 78.5645 20.8001 78.5643 20.8001C78.5642 20.8001 78.5644 20.8001 78.5643 20.8001C78.5641 20.8001 78.563 20.8001 78.5629 20.8001C78.5627 20.8001 78.5619 20.8001 78.5618 20.8001C78.5617 20.8001 78.5608 20.8001 78.5607 20.8001C78.5606 20.8001 78.5608 20.8001 78.5607 20.8001C78.5605 20.8001 78.5594 20.8001 78.5593 20.8001C78.5592 20.8001 78.5583 20.8001 78.5582 20.8001C78.5581 20.8001 78.5583 20.8001 78.5582 20.8001C78.558 20.8001 78.5569 20.8001 78.5568 20.8001C78.5567 20.8001 78.5559 20.8001 78.5557 20.8001C78.5556 20.8001 78.5558 20.8001 78.5557 20.8001L78.5547 26.8001C78.5546 26.8001 78.5548 26.8001 78.5547 26.8001C78.5549 26.8001 78.556 26.8001 78.5561 26.8001C78.5562 26.8001 78.557 26.8001 78.5572 26.8001C78.5571 26.8001 78.5573 26.8001 78.5572 26.8001C78.5573 26.8001 78.5585 26.8001 78.5586 26.8001C78.5587 26.8001 78.5595 26.8001 78.5597 26.8001C78.5596 26.8001 78.5598 26.8001 78.5597 26.8001C78.5598 26.8001 78.561 26.8001 78.5611 26.8001C78.5612 26.8001 78.562 26.8001 78.5622 26.8001C78.5623 26.8001 78.5631 26.8001 78.5633 26.8001C78.5632 26.8001 78.5634 26.8001 78.5633 26.8001C78.5635 26.8001 78.5646 26.8001 78.5647 26.8001C78.5649 26.8001 78.5657 26.8001 78.5658 26.8001C78.566 26.8001 78.5668 26.8001 78.5669 26.8001C78.5671 26.8001 78.5679 26.8001 78.568 26.8001C78.5682 26.8001 78.569 26.8001 78.5691 26.8001C78.5693 26.8001 78.5701 26.8001 78.5702 26.8001C78.5703 26.8001 78.5712 26.8001 78.5713 26.8001C78.5714 26.8001 78.5723 26.8001 78.5724 26.8001C78.5725 26.8001 78.5734 26.8001 78.5736 26.8001C78.5737 26.8001 78.5746 26.8001 78.5747 26.8001C78.5749 26.8001 78.5757 26.8001 78.5758 26.8001C78.5759 26.8001 78.5768 26.8001 78.577 26.8001C78.5771 26.8001 78.578 26.8001 78.5781 26.8001C78.5783 26.8001 78.5791 26.8001 78.5792 26.8001C78.5793 26.8001 78.5802 26.8001 78.5804 26.8001C78.5806 26.8001 78.5814 26.8001 78.5815 26.8001C78.5816 26.8001 78.5825 26.8001 78.5827 26.8001C78.5829 26.8001 78.5837 26.8001 78.5838 26.8001C78.5839 26.8001 78.5848 26.8001 78.585 26.8001C78.5852 26.8001 78.586 26.8001 78.5861 26.8001C78.5862 26.8001 78.5872 26.8001 78.5873 26.8001C78.5874 26.8001 78.5883 26.8001 78.5885 26.8001C78.5887 26.8001 78.5895 26.8001 78.5896 26.8001C78.5897 26.8001 78.5907 26.8001 78.5908 26.8001C78.5909 26.8001 78.5919 26.8001 78.592 26.8001C78.5921 26.8001 78.593 26.8001 78.5932 26.8001C78.5933 26.8001 78.5942 26.8001 78.5943 26.8001C78.5945 26.8001 78.5954 26.8001 78.5955 26.8001C78.5957 26.8001 78.5966 26.8001 78.5967 26.8001C78.5969 26.8001 78.5978 26.8001 78.5979 26.8001C78.598 26.8001 78.599 26.8001 78.5991 26.8001C78.5992 26.8001 78.6002 26.8001 78.6003 26.8001C78.6004 26.8001 78.6014 26.8001 78.6015 26.8001C78.6017 26.8001 78.6026 26.8001 78.6027 26.8001C78.6029 26.8001 78.6038 26.8001 78.6039 26.8001C78.6041 26.8001 78.605 26.8001 78.6051 26.8001C78.6052 26.8001 78.6062 26.8001 78.6064 26.8001C78.6065 26.8001 78.6074 26.8001 78.6076 26.8001C78.6077 26.8001 78.6087 26.8001 78.6088 26.8001C78.6089 26.8001 78.6099 26.8001 78.61 26.8001C78.6102 26.8001 78.6111 26.8001 78.6112 26.8001C78.6113 26.8001 78.6123 26.8001 78.6125 26.8001C78.6126 26.8001 78.6136 26.8001 78.6137 26.8001C78.6139 26.8001 78.6148 26.8001 78.6149 26.8001C78.615 26.8001 78.616 26.8001 78.6162 26.8001C78.6164 26.8001 78.6173 26.8001 78.6174 26.8001C78.6175 26.8001 78.6185 26.8001 78.6187 26.8001C78.6188 26.8001 78.6198 26.8001 78.6199 26.8001C78.62 26.8001 78.621 26.8001 78.6212 26.8001C78.6213 26.8001 78.6223 26.8001 78.6224 26.8001C78.6225 26.8001 78.6235 26.8001 78.6237 26.8001C78.6239 26.8001 78.6248 26.8001 78.6249 26.8001C78.625 26.8001 78.6261 26.8001 78.6262 26.8001C78.6264 26.8001 78.6273 26.8001 78.6275 26.8001C78.6276 26.8001 78.6286 26.8001 78.6287 26.8001C78.6288 26.8001 78.6299 26.8001 78.63 26.8001C78.6302 26.8001 78.6311 26.8001 78.6313 26.8001C78.6315 26.8001 78.6324 26.8001 78.6325 26.8001C78.6326 26.8001 78.6337 26.8001 78.6338 26.8001C78.6339 26.8001 78.635 26.8001 78.6351 26.8001C78.6353 26.8001 78.6362 26.8001 78.6364 26.8001C78.6366 26.8001 78.6375 26.8001 78.6377 26.8001C78.6379 26.8001 78.6388 26.8001 78.6389 26.8001C78.639 26.8001 78.6401 26.8001 78.6402 26.8001C78.6403 26.8001 78.6414 26.8001 78.6415 26.8001C78.6416 26.8001 78.6427 26.8001 78.6428 26.8001C78.6429 26.8001 78.644 26.8001 78.6441 26.8001C78.6442 26.8001 78.6453 26.8001 78.6454 26.8001C78.6455 26.8001 78.6466 26.8001 78.6467 26.8001C78.6468 26.8001 78.6479 26.8001 78.648 26.8001C78.6481 26.8001 78.6492 26.8001 78.6493 26.8001C78.6494 26.8001 78.6505 26.8001 78.6506 26.8001C78.6507 26.8001 78.6518 26.8001 78.6519 26.8001C78.6521 26.8001 78.6531 26.8001 78.6532 26.8001C78.6534 26.8001 78.6544 26.8001 78.6546 26.8001C78.6548 26.8001 78.6557 26.8001 78.6559 26.8001C78.6561 26.8001 78.657 26.8001 78.6572 26.8001C78.6573 26.8001 78.6584 26.8001 78.6585 26.8001C78.6586 26.8001 78.6597 26.8001 78.6598 26.8001C78.66 26.8001 78.661 26.8001 78.6612 26.8001C78.6614 26.8001 78.6623 26.8001 78.6625 26.8001C78.6626 26.8001 78.6637 26.8001 78.6638 26.8001C78.6639 26.8001 78.665 26.8001 78.6651 26.8001C78.6653 26.8001 78.6663 26.8001 78.6665 26.8001C78.6666 26.8001 78.6677 26.8001 78.6678 26.8001C78.6679 26.8001 78.669 26.8001 78.6691 26.8001C78.6693 26.8001 78.6703 26.8001 78.6705 26.8001C78.6706 26.8001 78.6717 26.8001 78.6718 26.8001C78.672 26.8001 78.673 26.8001 78.6731 26.8001C78.6733 26.8001 78.6743 26.8001 78.6745 26.8001C78.6746 26.8001 78.6757 26.8001 78.6758 26.8001C78.676 26.8001 78.677 26.8001 78.6772 26.8001C78.6773 26.8001 78.6784 26.8001 78.6785 26.8001C78.6787 26.8001 78.6797 26.8001 78.6799 26.8001C78.68 26.8001 78.6811 26.8001 78.6812 26.8001C78.6814 26.8001 78.6824 26.8001 78.6826 26.8001C78.6827 26.8001 78.6838 26.8001 78.6839 26.8001C78.6841 26.8001 78.6851 26.8001 78.6853 26.8001C78.6854 26.8001 78.6865 26.8001 78.6866 26.8001C78.6867 26.8001 78.6879 26.8001 78.688 26.8001C78.6882 26.8001 78.6892 26.8001 78.6894 26.8001C78.6895 26.8001 78.6906 26.8001 78.6907 26.8001C78.6909 26.8001 78.6919 26.8001 78.6921 26.8001C78.6923 26.8001 78.6933 26.8001 78.6935 26.8001C78.6936 26.8001 78.6947 26.8001 78.6948 26.8001C78.695 26.8001 78.696 26.8001 78.6962 26.8001C78.6964 26.8001 78.6974 26.8001 78.6976 26.8001C78.6977 26.8001 78.6988 26.8001 78.6989 26.8001C78.6991 26.8001 78.7001 26.8001 78.7003 26.8001C78.7005 26.8001 78.7015 26.8001 78.7017 26.8001C78.7018 26.8001 78.7029 26.8001 78.703 26.8001C78.7031 26.8001 78.7043 26.8001 78.7044 26.8001C78.7046 26.8001 78.7056 26.8001 78.7058 26.8001C78.706 26.8001 78.707 26.8001 78.7072 26.8001C78.7073 26.8001 78.7084 26.8001 78.7086 26.8001C78.7087 26.8001 78.7098 26.8001 78.7099 26.8001C78.71 26.8001 78.7112 26.8001 78.7113 26.8001C78.7115 26.8001 78.7125 26.8001 78.7127 26.8001C78.7129 26.8001 78.7139 26.8001 78.7141 26.8001C78.7143 26.8001 78.7153 26.8001 78.7155 26.8001C78.7156 26.8001 78.7167 26.8001 78.7168 26.8001C78.7169 26.8001 78.7181 26.8001 78.7182 26.8001C78.7183 26.8001 78.7195 26.8001 78.7196 26.8001C78.7198 26.8001 78.7209 26.8001 78.721 26.8001C78.7212 26.8001 78.7222 26.8001 78.7224 26.8001C78.7226 26.8001 78.7236 26.8001 78.7238 26.8001C78.724 26.8001 78.725 26.8001 78.7252 26.8001C78.7254 26.8001 78.7264 26.8001 78.7266 26.8001C78.7268 26.8001 78.7278 26.8001 78.728 26.8001C78.7281 26.8001 78.7292 26.8001 78.7294 26.8001C78.7295 26.8001 78.7306 26.8001 78.7307 26.8001C78.7308 26.8001 78.732 26.8001 78.7321 26.8001C78.7322 26.8001 78.7334 26.8001 78.7335 26.8001C78.7336 26.8001 78.7348 26.8001 78.7349 26.8001C78.735 26.8001 78.7362 26.8001 78.7363 26.8001C78.7364 26.8001 78.7376 26.8001 78.7377 26.8001C78.7378 26.8001 78.739 26.8001 78.7391 26.8001C78.7392 26.8001 78.7404 26.8001 78.7405 26.8001C78.7406 26.8001 78.7418 26.8001 78.7419 26.8001C78.742 26.8001 78.7432 26.8001 78.7433 26.8001C78.7434 26.8001 78.7446 26.8001 78.7447 26.8001C78.7448 26.8001 78.746 26.8001 78.7461 26.8001C78.7462 26.8001 78.7474 26.8001 78.7475 26.8001C78.7476 26.8001 78.7488 26.8001 78.7489 26.8001C78.749 26.8001 78.7502 26.8001 78.7503 26.8001C78.7504 26.8001 78.7516 26.8001 78.7517 26.8001C78.7518 26.8001 78.753 26.8001 78.7531 26.8001C78.7532 26.8001 78.7544 26.8001 78.7545 26.8001C78.7546 26.8001 78.7558 26.8001 78.7559 26.8001C78.756 26.8001 78.7572 26.8001 78.7574 26.8001C78.7575 26.8001 78.7586 26.8001 78.7588 26.8001C78.7589 26.8001 78.76 26.8001 78.7602 26.8001C78.7604 26.8001 78.7614 26.8001 78.7616 26.8001C78.7618 26.8001 78.7628 26.8001 78.763 26.8001C78.7632 26.8001 78.7642 26.8001 78.7644 26.8001C78.7646 26.8001 78.7656 26.8001 78.7658 26.8001C78.766 26.8001 78.767 26.8001 78.7672 26.8001C78.7674 26.8001 78.7684 26.8001 78.7686 26.8001C78.7688 26.8001 78.7698 26.8001 78.77 26.8001C78.7702 26.8001 78.7713 26.8001 78.7714 26.8001C78.7716 26.8001 78.7727 26.8001 78.7728 26.8001C78.7726 26.8001 78.773 26.8001 78.7728 26.8001C78.7729 26.8001 78.7736 26.8001 78.7738 26.8001L78.7747 20.8001ZM78.6183 20.8001C78.459 20.7967 78.8998 20.7614 79.4153 21.1872C79.696 21.4191 79.9126 21.7213 80.0419 22.0506C80.1639 22.3611 80.177 22.6137 80.1736 22.7412L74.1758 22.579C74.1475 23.6268 74.4824 24.8947 75.594 25.813C76.5696 26.6188 77.7102 26.7828 78.4909 26.7994L78.6183 20.8001ZM80.1747 22.6601V22.5001H74.1747V22.6601H80.1747ZM80.1734 22.5883C80.1671 22.8013 80.0869 23.2557 79.7011 23.6949C79.3186 24.1304 78.8571 24.2981 78.5509 24.3452L77.6385 18.415C76.8122 18.5421 75.9007 18.9298 75.1932 19.7353C74.4824 20.5445 74.2022 21.5189 74.176 22.4119L80.1734 22.5883ZM78.0947 24.3801C78.2227 24.3801 78.3437 24.3735 78.4582 24.3621C78.5706 24.3508 78.6596 24.3365 78.7029 24.3293C78.7126 24.3277 78.7213 24.3262 78.7243 24.3257C78.7269 24.3253 78.729 24.3249 78.7243 24.3257C78.719 24.3266 78.6931 24.3309 78.6575 24.3357C78.5789 24.3464 78.4519 24.3601 78.2947 24.3601V18.3601C78.1075 18.3601 77.9529 18.3763 77.8468 18.3907C77.7975 18.3975 77.7576 18.404 77.7382 18.4072C77.7286 18.4089 77.7197 18.4104 77.7172 18.4108C77.7129 18.4115 77.715 18.4112 77.7172 18.4108C77.7305 18.4086 77.7863 18.3994 77.8612 18.3919C77.9382 18.3842 78.0166 18.3801 78.0947 18.3801V24.3801ZM78.6452 24.3396C79.6755 24.2183 80.8977 23.7052 81.6444 22.3985C82.2128 21.4038 82.2747 20.3028 82.2747 19.5601H76.2747C76.2747 19.7757 76.2611 19.8589 76.2617 19.8554C76.2617 19.855 76.2911 19.6734 76.435 19.4217C76.5981 19.1363 76.8602 18.8463 77.2182 18.6366C77.5487 18.443 77.831 18.394 77.9442 18.3806L78.6452 24.3396ZM82.2747 19.5601V9.9001H76.2747V19.5601H82.2747ZM82.2747 9.9001C82.2747 9.98289 82.2469 10.5042 81.7569 11.0052C81.2563 11.5171 80.7125 11.5601 80.5947 11.5601V5.5601C79.6169 5.5601 78.4131 5.8431 77.4674 6.80998C76.5324 7.76599 76.2747 8.95731 76.2747 9.9001H82.2747ZM80.5947 11.5601H80.9947V5.5601H80.5947V11.5601ZM80.9947 11.5601C80.8769 11.5601 80.3331 11.5171 79.8324 11.0052C79.3424 10.5042 79.3147 9.98289 79.3147 9.9001H85.3147C85.3147 8.95731 85.0569 7.76599 84.1219 6.80998C83.1763 5.8431 81.9725 5.5601 80.9947 5.5601V11.5601ZM79.3147 9.9001V19.7001H85.3147V9.9001H79.3147ZM79.3147 19.7001C79.3147 20.2301 79.2692 20.5697 79.2193 20.7732C79.1717 20.9669 79.1389 20.9616 79.2037 20.8815C79.2358 20.842 79.2767 20.8032 79.3208 20.772C79.3637 20.7416 79.3897 20.7324 79.3827 20.7351C79.3585 20.7442 79.1878 20.8001 78.7747 20.8001L78.7738 26.8001C80.593 26.8001 82.5271 26.3107 83.8656 24.6587C85.0821 23.1572 85.3147 21.2653 85.3147 19.7001H79.3147ZM92.6811 18.1401H95.6811L89.9358 16.9303L92.6811 18.1401ZM94.3811 11.5801C94.2973 11.5801 93.7545 11.5511 93.2423 11.0389C92.7301 10.5267 92.7011 9.98386 92.7011 9.9001H98.7011C98.7011 8.95634 98.4421 7.75349 97.4849 6.79628C96.5277 5.83907 95.3249 5.5801 94.3811 5.5801V11.5801ZM92.7011 9.9001V18.6801H98.7011V9.9001H92.7011ZM92.7011 18.6801C92.7011 18.5973 92.7288 18.076 93.2188 17.575C93.7195 17.0631 94.2633 17.0201 94.3811 17.0201V23.0201C95.3589 23.0201 96.5627 22.7371 97.5084 21.7702C98.4434 20.8142 98.7011 19.6229 98.7011 18.6801H92.7011ZM94.3811 17.0201H94.0011V23.0201H94.3811V17.0201ZM94.0011 17.0201C94.1183 17.0201 94.6456 17.062 95.1399 17.5563C95.6332 18.0495 95.6811 18.581 95.6811 18.7201H89.6811C89.6811 19.6792 89.959 20.8607 90.8973 21.7989C91.8366 22.7382 93.0239 23.0201 94.0011 23.0201V17.0201ZM95.6811 18.7201V18.1401H89.6811V18.7201H95.6811ZM89.9358 16.9303C89.9664 16.8609 89.8591 17.1801 89.1411 17.1801V23.1801C91.8631 23.1801 94.3558 21.7793 95.4264 19.3499L89.9358 16.9303ZM89.1411 17.1801C88.6364 17.1801 88.358 17.1091 88.2263 17.0584C88.1197 17.0174 88.0951 16.9865 88.0788 16.9668C88.0076 16.8805 87.7011 16.3937 87.7011 14.8601H81.7011C81.7011 16.9465 82.0746 19.1197 83.4533 20.7884C84.9365 22.5835 87.0512 23.1801 89.1411 23.1801V17.1801ZM87.7011 14.8601V9.9001H81.7011V14.8601H87.7011ZM87.7011 9.9001C87.7011 9.98386 87.6721 10.5267 87.1599 11.0389C86.6477 11.5511 86.1049 11.5801 86.0211 11.5801V5.5801C85.0773 5.5801 83.8745 5.83907 82.9173 6.79628C81.9601 7.75349 81.7011 8.95634 81.7011 9.9001H87.7011ZM86.0211 11.5801H86.4011V5.5801H86.0211V11.5801ZM86.4011 11.5801C86.3183 11.5801 85.797 11.5524 85.296 11.0624C84.7841 10.5617 84.7411 10.0179 84.7411 9.9001H90.7411C90.7411 8.92232 90.4581 7.71847 89.4912 6.77284C88.5352 5.83784 87.3439 5.5801 86.4011 5.5801V11.5801ZM84.7411 9.9001V14.5801H90.7411V9.9001H84.7411ZM84.7411 14.5801C84.7411 15.8908 84.9552 17.4946 85.9957 18.792C87.1567 20.2396 88.7981 20.6601 90.2211 20.6601V14.6601C90.0591 14.6601 90.0813 14.6361 90.2058 14.6851C90.2715 14.7109 90.3558 14.7534 90.4457 14.8188C90.5363 14.8847 90.6142 14.9605 90.6764 15.0382C90.8012 15.1938 90.8135 15.2926 90.7952 15.2204C90.7751 15.1407 90.7411 14.9439 90.7411 14.5801H84.7411ZM90.2211 20.6601C91.7956 20.6601 93.4406 20.1128 94.5402 18.5956C95.4911 17.2836 95.6811 15.7004 95.6811 14.4201H89.6811C89.6811 14.7969 89.6488 15.0259 89.6212 15.1455C89.5942 15.2624 89.588 15.2043 89.682 15.0746C89.7305 15.0077 89.7975 14.9334 89.884 14.8633C89.9706 14.793 90.0586 14.7418 90.1372 14.7072C90.2917 14.639 90.3499 14.6601 90.2211 14.6601V20.6601ZM95.6811 14.4201V9.9001H89.6811V14.4201H95.6811ZM95.6811 9.9001C95.6811 9.98386 95.6521 10.5267 95.1399 11.0389C94.6277 11.5511 94.0849 11.5801 94.0011 11.5801V5.5801C93.0573 5.5801 91.8545 5.83907 90.8973 6.79628C89.9401 7.75349 89.6811 8.95634 89.6811 9.9001H95.6811ZM94.0011 11.5801H94.3811V5.5801H94.0011V11.5801ZM101.359 10.3601H98.3586L104.134 11.4999L101.359 10.3601ZM108.139 10.8401L105.316 11.8551L107.924 19.1096L110.905 12.0003L108.139 10.8401ZM112.139 11.3801C112.584 11.3801 112.779 11.445 112.827 11.4654C112.848 11.4738 112.843 11.4741 112.827 11.462C112.811 11.4496 112.808 11.4424 112.816 11.4541C112.838 11.4832 112.942 11.6439 113.037 12.0732C113.132 12.5052 113.199 13.1213 113.199 13.9801H119.199C119.199 11.8255 118.902 9.61787 117.666 7.92109C116.257 5.98733 114.159 5.3801 112.139 5.3801V11.3801ZM113.199 13.9801V18.6801H119.199V13.9801H113.199ZM113.199 18.6801C113.199 18.5638 113.24 18.0411 113.73 17.5513C114.22 17.0614 114.742 17.0201 114.859 17.0201V23.0201C115.835 23.0201 117.028 22.7388 117.972 21.7939C118.917 20.8491 119.199 19.6564 119.199 18.6801H113.199ZM114.859 17.0201H114.499V23.0201H114.859V17.0201ZM114.499 17.0201C114.615 17.0201 115.138 17.0614 115.627 17.5513C116.117 18.0411 116.159 18.5638 116.159 18.6801H110.159C110.159 19.6564 110.44 20.8491 111.385 21.7939C112.33 22.7388 113.522 23.0201 114.499 23.0201V17.0201ZM116.159 18.6801V14.2601H110.159V18.6801H116.159ZM116.159 14.2601C116.159 12.9634 116.031 11.357 115.173 10.0431C114.094 8.38916 112.407 7.9201 110.979 7.9201V13.9201C111.099 13.9201 110.985 13.94 110.765 13.842C110.65 13.7907 110.526 13.7159 110.408 13.6147C110.291 13.5141 110.206 13.41 110.149 13.3221C110.042 13.1591 110.058 13.0954 110.093 13.2765C110.127 13.4545 110.159 13.7636 110.159 14.2601H116.159ZM110.979 7.9201C109.544 7.9201 107.893 8.39383 106.801 9.96752C105.897 11.2715 105.739 12.8621 105.739 14.1601H111.739C111.739 13.7144 111.772 13.4452 111.802 13.301C111.832 13.1572 111.841 13.2295 111.731 13.3877C111.673 13.4708 111.592 13.5645 111.484 13.6534C111.376 13.7424 111.265 13.8076 111.163 13.8521C110.966 13.9381 110.869 13.9201 110.979 13.9201V7.9201ZM105.739 14.1601V18.6801H111.739V14.1601H105.739ZM105.739 18.6801C105.739 18.5638 105.78 18.0411 106.27 17.5513C106.76 17.0614 107.282 17.0201 107.399 17.0201V23.0201C108.375 23.0201 109.568 22.7388 110.512 21.7939C111.457 20.8491 111.739 19.6564 111.739 18.6801H105.739ZM107.399 17.0201H107.039V23.0201H107.399V17.0201ZM107.039 17.0201C107.155 17.0201 107.678 17.0614 108.167 17.5513C108.657 18.0411 108.699 18.5638 108.699 18.6801H102.699C102.699 19.6564 102.98 20.8491 103.925 21.7939C104.87 22.7388 106.062 23.0201 107.039 23.0201V17.0201ZM108.699 18.6801V14.2601H102.699V18.6801H108.699ZM108.699 14.2601C108.699 12.9884 108.595 11.3904 107.785 10.0852C106.726 8.37939 105.021 7.9201 103.619 7.9201V13.9201C103.738 13.9201 103.602 13.9402 103.356 13.8291C103.227 13.7706 103.09 13.6857 102.962 13.5722C102.835 13.4595 102.746 13.3443 102.687 13.25C102.581 13.0783 102.6 13.0145 102.635 13.2156C102.669 13.4104 102.699 13.7385 102.699 14.2601H108.699ZM103.619 7.9201C102.094 7.9201 100.435 8.47046 99.3753 10.097C98.5137 11.4189 98.3586 13.0285 98.3586 14.3801H104.359C104.359 13.8919 104.393 13.5787 104.43 13.3928C104.467 13.2045 104.489 13.2399 104.402 13.3732C104.355 13.4451 104.283 13.5351 104.181 13.6248C104.078 13.7154 103.966 13.7861 103.858 13.8366C103.645 13.9358 103.527 13.9201 103.619 13.9201V7.9201ZM98.3586 14.3801V18.6801H104.359V14.3801H98.3586ZM98.3586 18.6801C98.3586 18.5973 98.3863 18.076 98.8763 17.575C99.377 17.0631 99.9208 17.0201 100.039 17.0201V23.0201C101.016 23.0201 102.22 22.7371 103.166 21.7702C104.101 20.8142 104.359 19.6229 104.359 18.6801H98.3586ZM100.039 17.0201H99.6586V23.0201H100.039V17.0201ZM99.6586 17.0201C99.7764 17.0201 100.32 17.0631 100.821 17.575C101.311 18.076 101.339 18.5973 101.339 18.6801H95.3386C95.3386 19.6229 95.5963 20.8142 96.5313 21.7702C97.477 22.7371 98.6808 23.0201 99.6586 23.0201V17.0201ZM101.339 18.6801V9.9001H95.3386V18.6801H101.339ZM101.339 9.9001C101.339 9.98386 101.31 10.5267 100.797 11.0389C100.285 11.5511 99.7424 11.5801 99.6586 11.5801V5.5801C98.7148 5.5801 97.512 5.83907 96.5548 6.79628C95.5976 7.75349 95.3386 8.95634 95.3386 9.9001H101.339ZM99.6586 11.5801H100.039V5.5801H99.6586V11.5801ZM100.039 11.5801C100.023 11.5801 99.5013 11.5774 98.975 11.0866C98.4122 10.5617 98.3586 9.96455 98.3586 9.8201H104.359C104.359 8.85565 104.075 7.63853 103.067 6.69861C102.096 5.79283 100.914 5.5801 100.039 5.5801V11.5801ZM98.3586 9.8201V10.3601H104.359V9.8201H98.3586ZM104.134 11.4999C104.057 11.6857 104.068 11.4001 104.699 11.4001V5.4001C102.05 5.4001 99.5799 6.7945 98.5835 9.22034L104.134 11.4999ZM104.699 11.4001C105.285 11.4001 105.288 11.5088 105.141 11.405C104.996 11.3029 105.108 11.2782 105.316 11.8551L110.962 9.82506C110.529 8.62195 109.841 7.37726 108.596 6.50015C107.349 5.62144 105.952 5.4001 104.699 5.4001V11.4001ZM110.905 12.0003C110.951 11.8905 111.056 11.7378 111.233 11.6153C111.389 11.5079 111.663 11.3801 112.139 11.3801V5.3801C108.712 5.3801 106.328 7.39953 105.372 9.67992L110.905 12.0003ZM121.593 10.5001H118.593L124.318 11.7545L121.593 10.5001ZM121.593 18.0001L124.355 16.8284L118.593 18.0001H121.593ZM119.893 20.7001C119.977 20.7001 120.52 20.7291 121.032 21.2413C121.544 21.7535 121.573 22.2963 121.573 22.3801H115.573C115.573 23.3239 115.832 24.5267 116.789 25.4839C117.746 26.4411 118.949 26.7001 119.893 26.7001V20.7001ZM121.573 22.3801V9.9001H115.573V22.3801H121.573ZM121.573 9.9001C121.573 9.98289 121.545 10.5042 121.055 11.0052C120.555 11.5171 120.011 11.5601 119.893 11.5601V5.5601C118.915 5.5601 117.711 5.8431 116.766 6.80998C115.831 7.76599 115.573 8.95731 115.573 9.9001H121.573ZM119.893 11.5601H120.273V5.5601H119.893V11.5601ZM120.273 11.5601C120.229 11.5601 119.771 11.5499 119.283 11.1272C118.735 10.6517 118.593 10.0437 118.593 9.7001H124.593C124.593 8.63648 124.211 7.4585 123.213 6.59303C122.275 5.78028 121.157 5.5601 120.273 5.5601V11.5601ZM118.593 9.7001V10.5001H124.593V9.7001H118.593ZM124.318 11.7545C124.315 11.7609 124.356 11.6716 124.536 11.568C124.713 11.4662 124.98 11.3801 125.313 11.3801V5.3801C122.696 5.3801 120.029 6.72386 118.868 9.24567L124.318 11.7545ZM125.313 11.3801C125.966 11.3801 126.379 11.5937 126.644 11.879C126.919 12.1738 127.313 12.8484 127.313 14.2601H133.313C133.313 11.7118 132.577 9.44639 131.036 7.79116C129.487 6.12651 127.4 5.3801 125.313 5.3801V11.3801ZM127.313 14.2601C127.313 15.6856 126.917 16.3655 126.642 16.6615C126.377 16.9469 125.965 17.1601 125.313 17.1601V23.1601C127.401 23.1601 129.489 22.4133 131.039 20.7437C132.579 19.0847 133.313 16.8146 133.313 14.2601H127.313ZM125.313 17.1601C124.965 17.1601 124.697 17.0717 124.532 16.9765C124.37 16.8829 124.347 16.8112 124.355 16.8284L118.831 19.1717C119.971 21.859 122.737 23.1601 125.313 23.1601V17.1601ZM118.593 18.0001V22.3801H124.593V18.0001H118.593ZM118.593 22.3801C118.593 22.2963 118.622 21.7535 119.134 21.2413C119.646 20.7291 120.189 20.7001 120.273 20.7001V26.7001C121.217 26.7001 122.42 26.4411 123.377 25.4839C124.334 24.5267 124.593 23.3239 124.593 22.3801H118.593ZM120.273 20.7001H119.893V26.7001H120.273V20.7001ZM124.373 20.7001C126.052 20.7001 127.633 20.0367 128.754 18.7402C129.841 17.4837 130.293 15.8765 130.293 14.2801H124.293C124.293 14.7837 124.155 14.8865 124.217 14.815C124.247 14.7802 124.296 14.7411 124.354 14.7157C124.409 14.6914 124.425 14.7001 124.373 14.7001V20.7001ZM130.293 14.2801C130.293 12.6926 129.857 11.0862 128.785 9.82383C127.674 8.51477 126.097 7.8401 124.413 7.8401V13.8401C124.455 13.8401 124.428 13.8469 124.363 13.8179C124.296 13.7878 124.242 13.7432 124.211 13.7064C124.149 13.634 124.293 13.7476 124.293 14.2801H130.293ZM124.413 7.8401C122.744 7.8401 121.158 8.49158 120.032 9.80602C118.946 11.0735 118.513 12.6886 118.513 14.2801H124.513C124.513 13.7316 124.66 13.6267 124.589 13.7092C124.553 13.7506 124.497 13.795 124.433 13.8232C124.372 13.8499 124.355 13.8401 124.413 13.8401V7.8401ZM118.513 14.2801C118.513 15.8682 118.95 17.4718 120.022 18.7303C121.132 20.0339 122.704 20.7001 124.373 20.7001V14.7001C124.334 14.7001 124.363 14.6939 124.43 14.7236C124.499 14.7545 124.556 14.8005 124.589 14.8399C124.656 14.9184 124.513 14.812 124.513 14.2801H118.513Z" fill="black"/>
<path d="M13.1813 20.0001C12.3213 20.0001 11.8413 19.5401 11.8413 18.6801V8.3401H9.64127C8.78127 8.3401 8.30127 7.8801 8.30127 7.0201V6.8601C8.30127 6.0001 8.78127 5.5201 9.64127 5.5201H17.1813C18.0413 5.5201 18.5213 6.0001 18.5213 6.8601V7.0201C18.5213 7.8801 18.0413 8.3401 17.1813 8.3401H15.0013V18.6801C15.0013 19.5401 14.5213 20.0001 13.6612 20.0001H13.1813ZM23.212 20.2201C20.372 20.2201 18.212 18.1401 18.212 14.2801C18.212 10.4401 20.352 8.3801 23.212 8.3801C24.812 8.3801 26.332 9.1801 26.932 10.5801V9.7401C26.932 9.0001 27.412 8.5801 28.252 8.5801H28.632C29.492 8.5801 29.952 9.0401 29.952 9.9001V18.6601C29.952 19.5201 29.492 19.9801 28.632 19.9801H28.252C27.412 19.9801 26.932 19.5801 26.932 18.8601V18.0601C26.352 19.4201 24.812 20.2201 23.212 20.2201ZM24.132 17.7201C25.852 17.7201 27.012 16.4201 27.012 14.2801C27.012 12.1801 25.852 10.8601 24.112 10.8601C22.412 10.8601 21.232 12.1601 21.232 14.2801C21.232 16.4201 22.392 17.7201 24.132 17.7201ZM33.9164 23.7001C33.0564 23.7001 32.5964 23.2401 32.5964 22.3801V9.9001C32.5964 9.0401 33.0564 8.5601 33.9164 8.5601H34.2964C35.1364 8.5601 35.6164 8.9801 35.6164 9.7001V10.5001C36.1964 9.2401 37.6564 8.3801 39.3364 8.3801C42.0764 8.3801 44.3364 10.3001 44.3364 14.2601C44.3364 18.2401 42.0764 20.1601 39.3364 20.1601C37.6564 20.1601 36.1764 19.3201 35.6164 18.0001V22.3801C35.6164 23.2401 35.1564 23.7001 34.2964 23.7001H33.9164ZM38.3964 17.7001C40.1364 17.7001 41.3164 16.3801 41.3164 14.2801C41.3164 12.1601 40.1564 10.8401 38.4364 10.8401C36.6964 10.8401 35.5364 12.1401 35.5364 14.2801C35.5364 16.4001 36.6964 17.7001 38.3964 17.7001ZM57.2495 20.1801C54.1295 20.1801 52.7095 18.9401 52.7095 15.4401V10.8601H52.2295C51.5095 10.8601 51.1095 10.4201 51.1095 9.7001C51.1095 8.9601 51.4695 8.5601 52.1295 8.5601H52.7095V7.6401C52.7095 6.8601 53.0895 6.4401 53.9495 6.2601L54.3095 6.1801C55.3295 5.9601 55.7695 6.3601 55.7695 7.3201V8.5601H57.5695C58.4895 8.5601 58.9095 8.9601 58.9095 9.7001C58.9095 10.4601 58.4895 10.8601 57.5695 10.8601H55.7695V15.1801C55.7695 17.0601 56.3295 17.7601 57.7495 17.8001C58.4695 17.8401 58.9295 18.1401 58.9695 18.8401C59.0095 19.5801 58.6695 20.0801 57.8095 20.1601C57.6295 20.1801 57.4295 20.1801 57.2495 20.1801ZM65.7331 20.2201C62.7331 20.2201 59.8331 18.4401 59.8331 14.2801C59.8331 10.1601 62.7531 8.3801 65.7331 8.3801C68.7131 8.3801 71.6531 10.1601 71.6531 14.2801C71.6531 18.4401 68.7331 20.2201 65.7331 20.2201ZM65.7331 17.7201C67.4531 17.7201 68.6131 16.4601 68.6131 14.2801C68.6131 12.1401 67.4331 10.8601 65.7331 10.8601C64.0331 10.8601 62.8531 12.1201 62.8531 14.2801C62.8531 16.4601 64.0331 17.7201 65.7331 17.7201ZM80.8147 7.1601C79.7747 7.1601 79.0947 6.6001 79.0947 5.6401C79.0947 4.6601 79.7747 4.1001 80.8147 4.1001C81.7947 4.1001 82.5547 4.6801 82.5547 5.6401C82.5547 6.5801 81.7947 7.1601 80.8147 7.1601ZM78.7747 23.8001C78.6947 23.8001 78.6147 23.8001 78.5547 23.8001C77.6147 23.7801 77.1547 23.4001 77.1747 22.6601V22.5001C77.1947 21.8201 77.5747 21.4601 78.0947 21.3801C78.1947 21.3801 78.2347 21.3601 78.2947 21.3601C78.9747 21.2801 79.2747 20.8401 79.2747 19.5601V9.9001C79.2747 9.0401 79.7347 8.5601 80.5947 8.5601H80.9947C81.8547 8.5601 82.3147 9.0401 82.3147 9.9001V19.7001C82.3147 22.4201 81.4147 23.8001 78.7747 23.8001ZM94.3811 8.5801C95.2411 8.5801 95.7011 9.0401 95.7011 9.9001V18.6801C95.7011 19.5401 95.2411 20.0201 94.3811 20.0201H94.0011C93.1411 20.0201 92.6811 19.5401 92.6811 18.7201V18.1401C92.1611 19.3201 90.8611 20.1801 89.1411 20.1801C86.0611 20.1801 84.7011 18.4801 84.7011 14.8601V9.9001C84.7011 9.0401 85.1611 8.5801 86.0211 8.5801H86.4011C87.2611 8.5801 87.7411 9.0401 87.7411 9.9001V14.5801C87.7411 16.7001 88.5011 17.6601 90.2211 17.6601C91.9811 17.6601 92.6811 16.5401 92.6811 14.4201V9.9001C92.6811 9.0401 93.1411 8.5801 94.0011 8.5801H94.3811ZM112.139 8.3801C114.999 8.3801 116.199 10.0001 116.199 13.9801V18.6801C116.199 19.5401 115.719 20.0201 114.859 20.0201H114.499C113.639 20.0201 113.159 19.5401 113.159 18.6801V14.2601C113.159 11.8401 112.559 10.9201 110.979 10.9201C109.399 10.9201 108.739 11.8601 108.739 14.1601V18.6801C108.739 19.5401 108.259 20.0201 107.399 20.0201H107.039C106.179 20.0201 105.699 19.5401 105.699 18.6801V14.2601C105.699 11.8001 105.159 10.9201 103.619 10.9201C102.019 10.9201 101.359 11.9401 101.359 14.3801V18.6801C101.359 19.5401 100.899 20.0201 100.039 20.0201H99.6586C98.7986 20.0201 98.3386 19.5401 98.3386 18.6801V9.9001C98.3386 9.0401 98.7986 8.5801 99.6586 8.5801H100.039C100.899 8.5801 101.359 9.0001 101.359 9.8201V10.3601C101.819 9.2401 103.059 8.4001 104.699 8.4001C106.539 8.4001 107.499 9.0601 108.139 10.8401C108.659 9.6001 109.999 8.3801 112.139 8.3801ZM119.893 23.7001C119.033 23.7001 118.573 23.2401 118.573 22.3801V9.9001C118.573 9.0401 119.033 8.5601 119.893 8.5601H120.273C121.113 8.5601 121.593 8.9801 121.593 9.7001V10.5001C122.173 9.2401 123.633 8.3801 125.313 8.3801C128.053 8.3801 130.313 10.3001 130.313 14.2601C130.313 18.2401 128.053 20.1601 125.313 20.1601C123.633 20.1601 122.153 19.3201 121.593 18.0001V22.3801C121.593 23.2401 121.133 23.7001 120.273 23.7001H119.893ZM124.373 17.7001C126.113 17.7001 127.293 16.3801 127.293 14.2801C127.293 12.1601 126.133 10.8401 124.413 10.8401C122.673 10.8401 121.513 12.1401 121.513 14.2801C121.513 16.4001 122.673 17.7001 124.373 17.7001Z" fill="#EF1C90"/>
</svg>
